<?xml version="1.0" standalone="no"?>
<!DOCTYPE svg PUBLIC "-//W3C//DTD SVG 1.1//EN" "http://www.w3.org/Graphics/SVG/1.1/DTD/svg11.dtd" >
<svg xmlns="http://www.w3.org/2000/svg" xmlns:xlink="http://www.w3.org/1999/xlink" version="1.1">
<metadata>
Created by FontForge 20170731 at Mon Oct 11 01:39:45 2021
 By Aleksey,,,
Classic Console Neue (c) DeeJayy. 2011-2021. All Rights Reserved.
</metadata>
<defs>
<font id="ClassicConsoleNeue" horiz-adv-x="256" >
  <font-face 
    font-family="Classic Console Neue"
    font-weight="400"
    font-stretch="normal"
    units-per-em="512"
    panose-1="2 11 5 9 7 2 4 3 8 3"
    ascent="409"
    descent="-103"
    x-height="224"
    cap-height="320"
    bbox="-5 -192 288 512"
    underline-thickness="32"
    underline-position="-48"
    unicode-range="U+0020-FFFD"
  />
<missing-glyph 
d="M32 288h192v-256h-192v256zM64 64h128v192h-128v-192z" />
    <glyph glyph-name="uniFB52" unicode="&#x67b;" arabic-form="isolated" 
d="M224 160v96h32v-128h-32v-32h-192v32h-32v128h32v-96h192zM128 -32v32h32v-32h-32zM128 32v32h32v-32h-32z" />
    <glyph glyph-name="uniFB53" unicode="&#x67b;" arabic-form="final" 
d="M224 160v96h32v-128h-32v-32h-192v32h-32v128h32v-96h192zM128 -32v32h32v-32h-32zM128 32v32h32v-32h-32z" />
    <glyph glyph-name="uniFB54" unicode="&#x67b;" arabic-form="initial" 
d="M0 96v64h192v64h32v32h32v-96h-32v-32h-32v-32h-192zM128 -32v32h32v-32h-32zM128 32v32h32v-32h-32z" />
    <glyph glyph-name="uniFB55" unicode="&#x67b;" arabic-form="medial" 
d="M0 96v64h128v64h32v32h32v-96h64v-64h-64v32h-64v-32h-128zM128 -32v32h32v-32h-32zM128 32v32h32v-32h-32z" />
    <glyph glyph-name="uniFB56" unicode="&#x67e;" arabic-form="isolated" 
d="M224 160v96h32v-128h-32v-32h-192v32h-32v128h32v-96h192zM96 64h32v-32h-32v32zM160 64h32v-32h-32v32zM128 0h32v-32h-32v32z" />
    <glyph glyph-name="uniFB57" unicode="&#x67e;" arabic-form="final" 
d="M224 160v96h32v-128h-32v-32h-192v32h-32v128h32v-96h192zM96 64h32v-32h-32v32zM160 64h32v-32h-32v32zM128 0h32v-32h-32v32z" />
    <glyph glyph-name="uniFB58" unicode="&#x67e;" arabic-form="initial" 
d="M0 96v64h192v64h32v32h32v-96h-32v-32h-32v-32h-192zM96 64h32v-32h-32v32zM160 64h32v-32h-32v32zM128 0h32v-32h-32v32z" />
    <glyph glyph-name="uniFB59" unicode="&#x67e;" arabic-form="medial" 
d="M0 96v64h128v64h32v32h32v-96h64v-64h-64v32h-64v-32h-128zM96 64h32v-32h-32v32zM160 64h32v-32h-32v32zM128 0h32v-32h-32v32z" />
    <glyph glyph-name="uniFB5A" unicode="&#x680;" arabic-form="isolated" 
d="M224 160v96h32v-128h-32v-32h-192v32h-32v128h32v-96h192zM96 64h32v-32h-32v32zM160 64h32v-32h-32v32zM96 0h32v-32h-32v32zM160 0h32v-32h-32v32z" />
    <glyph glyph-name="uniFB5B" unicode="&#x680;" arabic-form="final" 
d="M224 160v96h32v-128h-32v-32h-192v32h-32v128h32v-96h192zM96 64h32v-32h-32v32zM160 64h32v-32h-32v32zM96 0h32v-32h-32v32zM160 0h32v-32h-32v32z" />
    <glyph glyph-name="uniFB5C" unicode="&#x680;" arabic-form="initial" 
d="M0 96v64h192v64h32v32h32v-96h-32v-32h-32v-32h-192zM96 64h32v-32h-32v32zM160 64h32v-32h-32v32zM96 0h32v-32h-32v32zM160 0h32v-32h-32v32z" />
    <glyph glyph-name="uniFB5D" unicode="&#x680;" arabic-form="medial" 
d="M0 96v64h128v64h32v32h32v-96h64v-64h-64v32h-64v-32h-128zM96 64h32v-32h-32v32zM160 64h32v-32h-32v32zM96 0h32v-32h-32v32zM160 0h32v-32h-32v32z" />
    <glyph glyph-name="uniFB5E" unicode="&#x67a;" arabic-form="isolated" 
d="M0 128v128h32v-96h192v96h32v-128h-32v-32h-192v32h-32zM128 288v32h32v-32h-32zM128 352v32h32v-32h-32z" />
    <glyph glyph-name="uniFB5F" unicode="&#x67a;" arabic-form="final" 
d="M0 128v128h32v-96h192v96h32v-128h-32v-32h-192v32h-32zM128 288v32h32v-32h-32zM128 352v32h32v-32h-32z" />
    <glyph glyph-name="uniFB60" unicode="&#x67a;" arabic-form="initial" 
d="M0 96v64h192v64h32v32h32v-96h-32v-32h-32v-32h-192zM128 288v32h32v-32h-32zM128 352v32h32v-32h-32z" />
    <glyph glyph-name="uniFB61" unicode="&#x67a;" arabic-form="medial" 
d="M0 96v64h128v64h32v32h32v-96h64v-64h-64v32h-64v-32h-128zM128 288v32h32v-32h-32zM128 352v32h32v-32h-32z" />
    <glyph glyph-name="uniFB62" unicode="&#x67f;" arabic-form="isolated" 
d="M0 128v128h32v-96h192v96h32v-128h-32v-32h-192v32h-32zM96 384h32v-32h-32v32zM160 384h32v-32h-32v32zM96 320h32v-32h-32v32zM160 320h32v-32h-32v32z" />
    <glyph glyph-name="uniFB63" unicode="&#x67f;" arabic-form="final" 
d="M0 128v128h32v-96h192v96h32v-128h-32v-32h-192v32h-32zM96 384h32v-32h-32v32zM160 384h32v-32h-32v32zM96 320h32v-32h-32v32zM160 320h32v-32h-32v32z" />
    <glyph glyph-name="uniFB64" unicode="&#x67f;" arabic-form="initial" 
d="M0 96v64h192v64h32v32h32v-96h-32v-32h-32v-32h-192zM96 384h32v-32h-32v32zM160 384h32v-32h-32v32zM96 320h32v-32h-32v32zM160 320h32v-32h-32v32z" />
    <glyph glyph-name="uniFB65" unicode="&#x67f;" arabic-form="medial" 
d="M0 96v64h128v64h32v32h32v-96h64v-64h-64v32h-64v-32h-128zM96 384h32v-32h-32v32zM160 384h32v-32h-32v32zM96 320h32v-32h-32v32zM160 320h32v-32h-32v32z" />
    <glyph glyph-name="uniFB66" unicode="&#x679;" arabic-form="isolated" 
d="M0 128v128h32v-96h192v96h32v-128h-32v-32h-192v32h-32zM64 288v32h32v96h32v-32h64v-64h-32v32h-32v-32h32v-32h-96z" />
    <glyph glyph-name="uniFB67" unicode="&#x679;" arabic-form="final" 
d="M0 128v128h32v-96h192v96h32v-128h-32v-32h-192v32h-32zM64 288v32h32v96h32v-32h64v-64h-32v32h-32v-32h32v-32h-96z" />
    <glyph glyph-name="uniFB68" unicode="&#x679;" arabic-form="initial" 
d="M0 96v64h192v64h32v32h32v-96h-32v-32h-32v-32h-192zM64 288v32h32v96h32v-32h64v-64h-32v32h-32v-32h32v-32h-96z" />
    <glyph glyph-name="uniFB69" unicode="&#x679;" arabic-form="medial" 
d="M0 96v64h128v64h32v32h32v-96h64v-64h-64v32h-64v-32h-128zM64 288v32h32v96h32v-32h64v-64h-32v32h-32v-32h32v-32h-96z" />
    <glyph glyph-name="uniFB6A" unicode="&#x6a4;" arabic-form="isolated" 
d="M0 96v96h32v-64h192v32h-64v96h32v32h32v-32h32v-160h-32v-32h-192v32h-32zM192 192h32v32h-32v-32zM128 320v32h32v-32h-32zM192 320v32h32v-32h-32zM160 384v32h32v-32h-32z" />
    <glyph glyph-name="uniFB6B" unicode="&#x6a4;" arabic-form="final" 
d="M0 160v64h32v-64h-32zM64 256v-32h-32v32h32zM128 192v64h32v-64h-32zM128 320v32h32v-32h-32zM192 160v-32h-160v32h128v32h64v-32h-32zM192 320v32h32v-32h-32zM192 416v-32h-32v32h32zM256 192h-32v64h32v-64zM256 160v-32h-32v32h32zM160 256v32h64v-32h-64z" />
    <glyph glyph-name="uniFB6C" unicode="&#x6a4;" arabic-form="initial" 
d="M0 128v32h160v32h32v64h32v-96h-32v-32h-192zM128 192v32h32v-32h-32zM128 256v-32h-32v32h32zM128 352v-32h-32v32h32zM128 288h64v-32h-64v32zM128 384v32h32v-32h-32zM192 352v-32h-32v32h32z" />
    <glyph glyph-name="uniFB6D" unicode="&#x6a4;" arabic-form="medial" 
d="M0 128v32h128v-32h-128zM128 192h64v-32h-64v32zM128 256v-64h-32v64h32zM128 352v-32h-32v32h32zM128 288h64v-32h-64v32zM128 384v32h32v-32h-32zM192 192v64h32v-64h-32zM192 160h64v-32h-64v32zM192 352v-32h-32v32h32z" />
    <glyph glyph-name="uniFB6E" unicode="&#x6a6;" arabic-form="isolated" 
d="M0 160v64h32v-64h-32zM64 256v-32h-32v32h32zM128 224v32h32v-32h-32zM128 320v32h32v-32h-32zM128 384v32h32v-32h-32zM192 192h-32v32h32v-32zM192 160v32h32v64h32v-96h-32v-32h-192v32h160zM192 320v32h32v-32h-32zM192 384v32h32v-32h-32zM160 256v32h64v-32h-64z
" />
    <glyph glyph-name="uniFB6F" unicode="&#x6a6;" arabic-form="final" 
d="M0 160v64h32v-64h-32zM64 256v-32h-32v32h32zM128 192v64h32v-64h-32zM128 320v32h32v-32h-32zM128 384v32h32v-32h-32zM192 160v-32h-160v32h128v32h64v-32h-32zM192 320v32h32v-32h-32zM192 384v32h32v-32h-32zM256 192h-32v64h32v-64zM256 160v-32h-32v32h32zM160 256
v32h64v-32h-64z" />
    <glyph glyph-name="uniFB70" unicode="&#x6a6;" arabic-form="initial" 
d="M0 128v32h160v32h32v64h32v-96h-32v-32h-192zM128 192v32h32v-32h-32zM128 256v-32h-32v32h32zM128 352v-32h-32v32h32zM128 288h64v-32h-64v32zM128 416v-32h-32v32h32zM192 352v-32h-32v32h32zM192 416v-32h-32v32h32z" />
    <glyph glyph-name="uniFB71" unicode="&#x6a6;" arabic-form="medial" 
d="M0 128v32h128v-32h-128zM128 192h64v-32h-64v32zM128 256v-64h-32v64h32zM128 352v-32h-32v32h32zM128 288h64v-32h-64v32zM128 416v-32h-32v32h32zM192 192v64h32v-64h-32zM192 160h64v-32h-64v32zM192 352v-32h-32v32h32zM192 416v-32h-32v32h32z" />
    <glyph glyph-name="uniFB72" unicode="&#x684;" arabic-form="isolated" 
d="M0 64v96h32v-96h-32zM0 224v32h32v-32h-32zM64 64v-32h-32v32h32zM64 32h160v-32h-160v32zM64 192v-32h-32v32h32zM64 224h64v-32h-64v32zM128 64v32h32v-32h-32zM128 128v32h32v-32h-32zM128 256h128v-32h-128v32zM128 288v-32h-96v32h96zM256 64v-32h-32v32h32z" />
    <glyph glyph-name="uniFB73" unicode="&#x684;" arabic-form="final" 
d="M0 32v96h32v-96h-32zM0 192v32h32v-32h-32zM64 32v-32h-32v32h32zM64 0h160v-32h-160v32zM64 160v32h64v-32h-64zM64 128h-32v32h32v-32zM128 96v32h32v-32h-32zM128 32v32h32v-32h-32zM128 192v32h128v-32h-32v-32h-32v32h-64zM128 256v-32h-96v32h96zM256 160v-32h-32
v32h32z" />
    <glyph glyph-name="uniFB74" unicode="&#x684;" arabic-form="initial" 
d="M0 128v32h96v-32h-96zM256 192h-96v32h96v-32zM32 192v32h32v-32h-32zM64 224v32h96v-32h-96zM96 160v32h64v-32h-64zM160 64v32h32v-32h-32zM160 0v32h32v-32h-32z" />
    <glyph glyph-name="uniFB75" unicode="&#x684;" arabic-form="medial" 
d="M0 192v32h32v-32h-32zM0 128v32h64v-32h-64zM64 160v32h64v-32h-64zM128 64v32h32v-32h-32zM128 0v32h32v-32h-32zM128 192v32h128v-32h-32v-32h-32v32h-64zM128 256v-32h-96v32h96zM256 160v-32h-32v32h32z" />
    <glyph glyph-name="uniFB76" unicode="&#x683;" arabic-form="isolated" 
d="M0 64v96h32v-96h-32zM0 224v32h32v-32h-32zM64 64v-32h-32v32h32zM64 32h160v-32h-160v32zM64 192v-32h-32v32h32zM64 224h64v-32h-64v32zM128 96h-32v32h32v-32zM128 256h128v-32h-128v32zM128 288v-32h-96v32h96zM192 96h-32v32h32v-32zM256 64v-32h-32v32h32z" />
    <glyph glyph-name="uniFB77" unicode="&#x683;" arabic-form="final" 
d="M0 32v96h32v-96h-32zM0 192v32h32v-32h-32zM64 32v-32h-32v32h32zM64 0h160v-32h-160v32zM64 160v32h64v-32h-64zM64 128h-32v32h32v-32zM128 96v-32h-32v32h32zM128 192v32h128v-32h-32v-32h-32v32h-64zM128 256v-32h-96v32h96zM192 96v-32h-32v32h32zM256 160v-32h-32
v32h32z" />
    <glyph glyph-name="uniFB78" unicode="&#x683;" arabic-form="initial" 
d="M0 128v32h96v-32h-96zM256 192h-96v32h96v-32zM32 192v32h32v-32h-32zM64 224v32h96v-32h-96zM96 160v32h64v-32h-64zM128 32v32h32v-32h-32zM192 32v32h32v-32h-32z" />
    <glyph glyph-name="uniFB79" unicode="&#x683;" arabic-form="medial" 
d="M0 192v32h32v-32h-32zM0 128v32h64v-32h-64zM64 160v32h64v-32h-64zM128 64v-32h-32v32h32zM128 192v32h128v-32h-32v-32h-32v32h-64zM128 256v-32h-96v32h96zM192 64v-32h-32v32h32zM256 160v-32h-32v32h32z" />
    <glyph glyph-name="uniFB7A" unicode="&#x686;" arabic-form="isolated" 
d="M0 64v96h32v-96h-32zM0 224v32h32v-32h-32zM64 64v-32h-32v32h32zM64 32h160v-32h-160v32zM64 192v-32h-32v32h32zM64 224h64v-32h-64v32zM128 64v32h32v-32h-32zM128 160v-32h-32v32h32zM128 256h128v-32h-128v32zM128 288v-32h-96v32h96zM192 160v-32h-32v32h32z
M256 64v-32h-32v32h32z" />
    <glyph glyph-name="uniFB7B" unicode="&#x686;" arabic-form="final" 
d="M0 32v96h32v-96h-32zM0 192v32h32v-32h-32zM64 32v-32h-32v32h32zM64 0h160v-32h-160v32zM64 160v32h64v-32h-64zM64 128h-32v32h32v-32zM128 96h-32v32h32v-32zM128 32v32h32v-32h-32zM128 192v32h128v-32h-32v-32h-32v32h-64zM128 256v-32h-96v32h96zM192 96h-32v32h32
v-32zM256 160v-32h-32v32h32z" />
    <glyph glyph-name="uniFB7C" unicode="&#x686;" arabic-form="initial" 
d="M0 128v32h96v-32h-96zM64 192h-32v32h32v-32zM64 224v32h96v-32h-96zM128 64v32h32v-32h-32zM192 64v32h32v-32h-32zM192 32v-32h-32v32h32zM256 192h-96v32h96v-32zM96 160v32h64v-32h-64z" />
    <glyph glyph-name="uniFB7D" unicode="&#x686;" arabic-form="medial" 
d="M0 192v32h32v-32h-32zM0 128v32h64v-32h-64zM64 160v32h64v-32h-64zM128 96v-32h-32v32h32zM128 0v32h32v-32h-32zM128 192v32h128v-32h-32v-32h-32v32h-64zM128 256v-32h-96v32h96zM192 96v-32h-32v32h32zM256 160v-32h-32v32h32z" />
    <glyph glyph-name="uniFB7E" unicode="&#x687;" arabic-form="isolated" 
d="M0 64v96h32v-96h-32zM0 224v32h32v-32h-32zM64 64v-32h-32v32h32zM64 32h160v-32h-160v32zM64 192v-32h-32v32h32zM64 224h64v-32h-64v32zM128 96v-32h-32v32h32zM128 160v-32h-32v32h32zM128 256h128v-32h-128v32zM128 288v-32h-96v32h96zM192 96v-32h-32v32h32z
M192 160v-32h-32v32h32zM256 64v-32h-32v32h32z" />
    <glyph glyph-name="uniFB7F" unicode="&#x687;" arabic-form="final" 
d="M0 32v96h32v-96h-32zM0 192v32h32v-32h-32zM64 32v-32h-32v32h32zM64 0h160v-32h-160v32zM64 160v32h64v-32h-64zM64 128h-32v32h32v-32zM128 96h-32v32h32v-32zM128 64v-32h-32v32h32zM128 192v32h128v-32h-32v-32h-32v32h-64zM128 256v-32h-96v32h96zM192 96h-32v32h32
v-32zM192 64v-32h-32v32h32zM256 160v-32h-32v32h32z" />
    <glyph glyph-name="uniFB80" unicode="&#x687;" arabic-form="initial" 
d="M0 128v32h96v-32h-96zM64 192h-32v32h32v-32zM64 224v32h96v-32h-96zM128 64v32h32v-32h-32zM128 0v32h32v-32h-32zM192 64v32h32v-32h-32zM192 0v32h32v-32h-32zM256 192h-96v32h96v-32zM96 160v32h64v-32h-64z" />
    <glyph glyph-name="uniFB81" unicode="&#x687;" arabic-form="medial" 
d="M0 192v32h32v-32h-32zM0 128v32h64v-32h-64zM64 160v32h64v-32h-64zM128 96v-32h-32v32h32zM128 32v-32h-32v32h32zM128 192v32h128v-32h-32v-32h-32v32h-64zM128 256v-32h-96v32h96zM192 96v-32h-32v32h32zM192 32v-32h-32v32h32zM256 160v-32h-32v32h32z" />
    <glyph glyph-name="uniFB82" unicode="&#x68d;" arabic-form="isolated" 
d="M32 160v32h32v-32h-32zM64 160h128v-32h-128v32zM96 32v32h32v-32h-32zM128 256v32h32v-32h-32zM160 32v32h32v-32h-32zM160 256h32v-32h-32v32zM192 160v64h32v-64h-32z" />
    <glyph glyph-name="uniFB83" unicode="&#x68d;" arabic-form="final" 
d="M64 192v-32h-32v32h32zM64 160h96v-32h-96v32zM128 64v-32h-32v32h32zM128 224v64h32v-64h-32zM192 64v-32h-32v32h32zM192 192h32v-32h-64v64h32v-32zM256 160v-32h-32v32h32z" />
    <glyph glyph-name="uniFB84" unicode="&#x68c;" arabic-form="isolated" 
d="M32 160v32h32v-32h-32zM64 160h128v-32h-128v32zM64 320v32h32v-32h-32zM128 256v32h32v-32h-32zM128 320v32h32v-32h-32zM160 256h32v-32h-32v32zM192 160v64h32v-64h-32z" />
    <glyph glyph-name="uniFB85" unicode="&#x68c;" arabic-form="final" 
d="M64 192v-32h-32v32h32zM64 160h96v-32h-96v32zM64 320v32h32v-32h-32zM128 224v64h32v-64h-32zM128 320v32h32v-32h-32zM192 192h32v-32h-64v64h32v-32zM256 160v-32h-32v32h32z" />
    <glyph glyph-name="uniFB86" unicode="&#x68e;" arabic-form="isolated" 
d="M64 192v-32h-32v32h32zM64 160h128v-32h-128v32zM64 320v32h32v-32h-32zM128 256v32h32v-32h-32zM128 320v32h32v-32h-32zM128 416v-32h-32v32h32zM192 160v64h32v-64h-32zM192 256v-32h-32v32h32z" />
    <glyph glyph-name="uniFB87" unicode="&#x68e;" arabic-form="final" 
d="M64 192v-32h-32v32h32zM64 160h96v-32h-96v32zM64 320v32h32v-32h-32zM128 224v64h32v-64h-32zM128 320v32h32v-32h-32zM128 416v-32h-32v32h32zM192 192h32v-32h-64v64h32v-32zM256 160v-32h-32v32h32z" />
    <glyph glyph-name="uniFB88" unicode="&#x688;" arabic-form="isolated" 
d="M64 192v-32h-32v32h32zM64 160h128v-32h-128v32zM64 320v96h32v-32h64v-64h-32v32h-32v-32h32v-32h-96v32h32zM128 256v32h32v-32h-32zM192 160v64h32v-64h-32zM192 256v-32h-32v32h32z" />
    <glyph glyph-name="uniFB89" unicode="&#x688;" arabic-form="final" 
d="M64 192v-32h-32v32h32zM64 160h96v-32h-96v32zM64 320v96h32v-32h64v-64h-32v32h-32v-32h32v-32h-96v32h32zM128 224v64h32v-64h-32zM192 192h32v-32h-64v64h32v-32zM256 160v-32h-32v32h32z" />
    <glyph glyph-name="uniFB8A" unicode="&#x698;" arabic-form="isolated" 
d="M128 352v-32h-32v32h32zM128 384v32h32v-32h-32zM192 160v-32h-32v32h32zM192 256v-32h-32v32h32zM192 224h32v-64h-32v64zM192 352v-32h-32v32h32zM32 64v32h64v-32h-64zM96 96v32h64v-32h-64z" />
    <glyph glyph-name="uniFB8B" unicode="&#x698;" arabic-form="final" 
d="M128 256h-32v32h32v-32zM128 320v32h32v-32h-32zM192 96h-32v96h32v-32h64v-32h-64v-32zM192 256h-32v32h32v-32zM32 32v32h64v-32h-64zM96 64v32h64v-32h-64z" />
    <glyph glyph-name="uniFB8C" unicode="&#x691;" arabic-form="isolated" 
d="M64 288v32h32v96h32v-32h64v-64h-32v32h-32v-32h32v-32h-96zM192 160v-32h-32v32h32zM192 256v-32h-32v32h32zM192 224h32v-64h-32v64zM32 64v32h64v-32h-64zM96 96v32h64v-32h-64z" />
    <glyph glyph-name="uniFB8D" unicode="&#x691;" arabic-form="final" 
d="M64 288v32h32v96h32v-32h64v-64h-32v32h-32v-32h32v-32h-96zM192 96h-32v96h32v-32h64v-32h-64v-32zM32 32v32h64v-32h-64zM96 64v32h64v-32h-64z" />
    <glyph glyph-name="uniFB8E" unicode="&#x6a9;" arabic-form="isolated" 
d="M128 192v32h96v-32h-96zM128 224h-32v64h32v-64zM128 288v32h32v-32h-32zM192 352v-32h-32v32h32zM192 384h32v32h32v-64h-64v32zM0 128v32h224v32h32v-64h-32v-32h-192v32h-32z" />
    <glyph glyph-name="uniFB8F" unicode="&#x6a9;" arabic-form="final" 
d="M128 192v32h64v-32h-64zM128 224h-32v64h32v-64zM128 288v32h32v-32h-32zM192 352v-32h-32v32h32zM192 384h32v32h32v-64h-64v32zM224 160h32v-64h-32v32h-32v-32h-192v64h192v32h32v-32z" />
    <glyph glyph-name="uniFB90" unicode="&#x6a9;" arabic-form="initial" 
d="M0 96v64h224v32h32v-64h-32v-32h-224zM128 192v32h96v-32h-96zM128 224h-32v64h32v-64zM128 288v32h32v-32h-32zM192 352v-32h-32v32h32zM192 384h32v32h32v-64h-64v32z" />
    <glyph glyph-name="uniFB91" unicode="&#x6a9;" arabic-form="medial" 
d="M0 96v64h224v32h32v-64h-32v-32h-224zM128 192v32h96v-32h-96zM128 224h-32v64h32v-64zM128 288v32h32v-32h-32zM192 352v-32h-32v32h32zM192 384h32v32h32v-64h-64v32z" />
    <glyph glyph-name="uniFB92" unicode="&#x6af;" arabic-form="isolated" 
d="M0 160v64h32v-64h-32zM64 256v-32h-32v32h32zM128 256v32h32v-32h-32zM128 352v-32h-32v32h32zM128 384h32v-32h-32v32zM192 160v-32h-160v32h160zM192 256v-32h-32v32h32zM192 224h32v-64h-32v64zM192 320v32h32v-32h-32zM192 288h-32v32h32v-32zM192 416v-32h-32v32h32
zM256 352h-32v32h32v-32z" />
    <glyph glyph-name="uniFB93" unicode="&#x6af;" arabic-form="final" 
d="M0 160v64h32v-64h-32zM64 256v-32h-32v32h32zM128 224v64h32v-64h-32zM128 352v-32h-32v32h32zM128 384h32v-32h-32v32zM192 192h-32v32h32v-32zM192 160v32h32v-32h-32zM192 128h-160v32h160v-32zM192 320v32h32v-32h-32zM192 288h-32v32h32v-32zM192 416v-32h-32v32h32
zM256 160v-32h-32v32h32zM256 352h-32v32h32v-32z" />
    <glyph glyph-name="uniFB94" unicode="&#x6af;" arabic-form="initial" 
d="M0 128v32h128v-32h-128zM64 256v32h32v-32h-32zM64 352v-32h-32v32h32zM64 384h64v-32h-64v32zM128 160v64h32v-64h-32zM128 256v-32h-32v32h32zM128 384v32h64v-32h-64zM96 288v32h64v-32h-64zM160 320v32h64v-32h-64z" />
    <glyph glyph-name="uniFB95" unicode="&#x6af;" arabic-form="medial" 
d="M0 128v32h128v-32h-128zM64 224v64h32v-64h-32zM64 352v-32h-32v32h32zM64 384h64v-32h-64v32zM128 192h32v-32h-32v32zM128 224v-32h-32v32h32zM128 384v32h64v-32h-64zM256 160v-32h-96v32h96zM96 288v32h64v-32h-64zM160 320v32h64v-32h-64z" />
    <glyph glyph-name="uniFB96" unicode="&#x6b3;" arabic-form="isolated" 
d="M0 160v64h32v-64h-32zM64 256v-32h-32v32h32zM128 96v-32h-32v32h32zM128 32v-32h-32v32h32zM128 256v32h32v-32h-32zM128 352v-32h-32v32h32zM128 384h32v-32h-32v32zM192 160v-32h-160v32h160zM192 256v-32h-32v32h32zM192 224h32v-64h-32v64zM192 320v32h32v-32h-32z
M192 288h-32v32h32v-32zM192 416v-32h-32v32h32zM256 352h-32v32h32v-32z" />
    <glyph glyph-name="uniFB97" unicode="&#x6b3;" arabic-form="final" 
d="M0 160v64h32v-64h-32zM128 96v-32h-32v32h32zM128 32v-32h-32v32h32zM128 224v64h32v-64h-32zM128 352v-32h-32v32h32zM128 384h32v-32h-32v32zM256 160v-32h-32v32h32zM256 352h-32v32h32v-32zM224 192v-32h-32v32h32zM224 352v-32h-32v32h32zM64 256v-32h-32v32h32z
M192 192h-32v32h32v-32zM192 160v-32h-160v32h160zM192 320v-32h-32v32h32zM192 416v-32h-32v32h32z" />
    <glyph glyph-name="uniFB98" unicode="&#x6b3;" arabic-form="initial" 
d="M0 128v32h128v-32h-128zM64 256v32h32v-32h-32zM64 352v-32h-32v32h32zM64 384h64v-32h-64v32zM128 96v-32h-32v32h32zM128 32v-32h-32v32h32zM128 160v64h32v-64h-32zM128 256v-32h-32v32h32zM128 384v32h64v-32h-64zM96 288v32h64v-32h-64zM160 320v32h64v-32h-64z" />
    <glyph glyph-name="uniFB99" unicode="&#x6b3;" arabic-form="medial" 
d="M0 128v32h128v-32h-128zM64 224v64h32v-64h-32zM64 352v-32h-32v32h32zM64 384h64v-32h-64v32zM128 64v32h32v-32h-32zM128 0v32h32v-32h-32zM128 192h32v-32h-32v32zM128 224v-32h-32v32h32zM128 384v32h64v-32h-64zM256 160v-32h-96v32h96zM96 288v32h64v-32h-64z
M160 320v32h64v-32h-64z" />
    <glyph glyph-name="uniFB9A" unicode="&#x6b1;" arabic-form="isolated" 
d="M0 160v64h32v-64h-32zM0 384v32h32v-32h-32zM64 256v-32h-32v32h32zM64 384v32h32v-32h-32zM128 256v32h32v-32h-32zM128 352v-32h-32v32h32zM128 384h32v-32h-32v32zM192 160v-32h-160v32h160zM192 256v-32h-32v32h32zM192 224h32v-64h-32v64zM192 320v32h32v-32h-32z
M192 288h-32v32h32v-32zM192 416v-32h-32v32h32zM256 352h-32v32h32v-32z" />
    <glyph glyph-name="uniFB9B" unicode="&#x6b1;" arabic-form="final" 
d="M0 160v64h32v-64h-32zM0 384v32h32v-32h-32zM128 224v64h32v-64h-32zM128 352v-32h-32v32h32zM128 384h32v-32h-32v32zM256 160v-32h-32v32h32zM256 352h-32v32h32v-32zM96 416v-32h-32v32h32zM224 192v-32h-32v32h32zM224 352v-32h-32v32h32zM64 256v-32h-32v32h32z
M192 192h-32v32h32v-32zM192 160v-32h-160v32h160zM192 320v-32h-32v32h32zM192 416v-32h-32v32h32z" />
    <glyph glyph-name="uniFB9C" unicode="&#x6b1;" arabic-form="initial" 
d="M0 128v32h160v-32h-160zM0 384v32h32v-32h-32zM64 384v32h32v-32h-32zM128 256h32v-32h-32v32zM128 352v-32h-32v32h32zM128 320h64v-32h-64v32zM128 288v-32h-32v32h32zM128 384h64v-32h-64v32zM192 160h-32v64h32v-64zM192 352h64v-32h-64v32zM192 384v32h32v-32h-32z
" />
    <glyph glyph-name="uniFB9D" unicode="&#x6b1;" arabic-form="medial" 
d="M0 128v32h160v-32h-160zM0 384v32h32v-32h-32zM64 384v32h32v-32h-32zM128 192v32h32v-32h-32zM128 224h-32v64h32v-64zM128 352v-32h-32v32h32zM128 320h64v-32h-64v32zM128 384h64v-32h-64v32zM192 192v-32h-32v32h32zM192 160h64v-32h-64v32zM192 352h64v-32h-64v32z
M192 384v32h32v-32h-32z" />
    <glyph glyph-name="uniFB9E" unicode="&#x6ba;" arabic-form="isolated" 
d="M256 64h-32v96h-32v64h32v32h32v-192zM32 32v128h32v-96h160v-32h-32v-32h-128v32h-32zM64 160v32h32v-32h-32z" />
    <glyph glyph-name="uniFB9F" unicode="&#x6ba;" arabic-form="final" 
d="M256 64h-32v96h-32v32h32v32h32v-160zM32 32v96h32v-64h160v-32h-32v-32h-128v32h-32zM64 128v32h32v-32h-32z" />
    <glyph glyph-name="uniFBA0" unicode="&#x6bb;" arabic-form="isolated" 
d="M256 64h-32v96h-32v64h32v32h32v-192zM32 32v128h32v-96h160v-32h-32v-32h-128v32h-32zM64 160v32h32v-32h-32zM64 256v32h32v96h32v-32h64v-64h-32v32h-32v-32h32v-32h-96z" />
    <glyph glyph-name="uniFBA1" unicode="&#x6bb;" arabic-form="final" 
d="M256 64h-32v96h-32v32h32v32h32v-160zM32 32v96h32v-64h160v-32h-32v-32h-128v32h-32zM64 128v32h32v-32h-32zM64 256v32h32v96h32v-32h64v-64h-32v32h-32v-32h32v-32h-96z" />
    <glyph glyph-name="uniFBA2" unicode="&#x6bb;" arabic-form="initial" 
d="M0 96v64h192v64h32v32h32v-96h-32v-32h-32v-32h-192zM64 288v32h32v96h32v-32h64v-64h-32v32h-32v-32h32v-32h-96z" />
    <glyph glyph-name="uniFBA3" unicode="&#x6bb;" arabic-form="medial" 
d="M0 96v64h128v64h32v32h32v-96h64v-64h-64v32h-64v-32h-128zM64 288v32h32v96h32v-32h64v-64h-32v32h-32v-32h32v-32h-96z" />
    <glyph glyph-name="uniFBA4" unicode="&#x6c0;" arabic-form="isolated" 
d="M160 320v32h-64v-32h-32v-32h32v32h64zM160 384v32h-64v-32h-32v-32h32v32h64zM224 128h-32v-32h-64v32h-32v96h32v-64h64v64h-64v32h32v32h32v-32h32v-128z" />
    <glyph glyph-name="uniFBA6" unicode="&#x6c1;" arabic-form="isolated" 
d="M224 128h-32v-32h-64v32h-32v96h32v-64h64v64h-64v32h32v32h32v-32h32v-128z" />
    <glyph glyph-name="uniFBAA" unicode="&#x6be;" arabic-form="isolated" 
d="M64 96h-32v32h32v-32zM64 192h-32v64h32v-64zM64 128v64h32v32h32v-64h64v-32h-128zM64 256v32h32v32h32v-32h32v-32h32v-32h-64v32h-64zM192 160v64h32v-64h-32zM256 160v-32h-32v32h32z" />
    <glyph glyph-name="uniFBAB" unicode="&#x6be;" arabic-form="final" 
d="M64 96h-32v32h32v-32zM64 192h-32v64h32v-64zM64 128v64h32v32h32v-64h64v-32h-128zM64 256v32h32v32h32v-32h32v-32h32v-32h-64v32h-64zM192 160v64h32v-64h-32zM256 160v-32h-32v32h32z" />
    <glyph glyph-name="uniFBAC" unicode="&#x6be;" arabic-form="initial" 
d="M0 128v32h64v32h32v32h32v-64h64v-32h-192zM64 192h-32v64h32v-64zM64 256v32h32v32h32v-32h32v-32h32v-32h-64v32h-64zM192 160v64h32v-64h-32z" />
    <glyph glyph-name="uniFBAD" unicode="&#x6be;" arabic-form="medial" 
d="M0 128v32h64v32h32v32h32v-64h64v-32h-192zM64 192h-32v64h32v-64zM64 256v32h32v32h32v-32h32v-32h32v-32h-64v32h-64zM192 160v64h32v-64h-32zM256 160v-32h-32v32h32z" />
    <glyph glyph-name="uniFBAE" unicode="&#x6d2;" arabic-form="isolated" 
d="M0 64v64h32v-32h192v-32h-224zM32 128v32h64v-32h-64zM96 160v32h32v-32h-32zM128 192v32h32v-32h-32zM160 192h32v-32h-32v32z" />
    <glyph glyph-name="uniFBAF" unicode="&#x6d2;" arabic-form="final" 
d="M256 64v-32h-192v64h32v-32h160zM256 160v-32h-96v32h96zM160 96h-64v32h64v-32z" />
    <glyph glyph-name="uniFBB0" unicode="&#x6d3;" arabic-form="isolated" 
d="M96 256v32h-64v-32h-32v-32h32v32h64zM96 320v32h-64v-32h-32v-32h32v32h64zM0 64v64h32v-32h192v-32h-224zM32 128v32h64v-32h-64zM96 160v32h32v-32h-32zM128 192v32h32v-32h-32zM160 192h32v-32h-32v32z" />
    <glyph glyph-name="uniFBB1" unicode="&#x6d3;" arabic-form="final" 
d="M160 224v32h-64v-32h-32v-32h32v32h64zM160 288v32h-64v-32h-32v-32h32v32h64zM256 64v-32h-192v64h32v-32h160zM256 160v-32h-96v32h96zM160 96h-64v32h64v-32z" />
    <glyph glyph-name="uniFBD3" unicode="&#x6ad;" arabic-form="isolated" 
d="M0 160v32h32v-32h-32zM64 160v32h32v-32h128v-32h-192v32h32zM64 224v32h32v-32h-32zM64 320v32h32v-32h-32zM128 320v32h32v-32h-32zM128 416v-32h-32v32h32zM256 160h-32v192h32v-192zM96 192v32h64v-32h-64zM96 256v32h64v-32h-64z" />
    <glyph glyph-name="uniFBD4" unicode="&#x6ad;" arabic-form="final" 
d="M0 160v32h64v-32h96v-32h-128v32h-32zM64 192v32h64v-32h-64zM64 256v-32h-32v32h32zM64 320v32h32v-32h-32zM64 288h64v-32h-64v32zM128 320v32h32v-32h-32zM128 416v-32h-32v32h32zM192 192v160h32v-192h-64v32h32zM256 160v-32h-32v32h32z" />
    <glyph glyph-name="uniFBD5" unicode="&#x6ad;" arabic-form="initial" 
d="M0 128v32h160v-32h-160zM0 320v32h32v-32h-32zM64 320v32h32v-32h-32zM64 416v-32h-32v32h32zM128 256h32v-32h-32v32zM128 288v-32h-32v32h32zM128 320h64v-32h-64v32zM192 160h-32v64h32v-64zM192 320v32h64v-32h-64z" />
    <glyph glyph-name="uniFBD6" unicode="&#x6ad;" arabic-form="medial" 
d="M0 128v32h160v-32h-160zM0 320v32h32v-32h-32zM64 320v32h32v-32h-32zM64 416v-32h-32v32h32zM128 192v32h32v-32h-32zM128 224h-32v64h32v-64zM128 288v32h64v-32h-64zM192 192v-32h-32v32h32zM192 160h64v-32h-64v32zM192 320v32h64v-32h-64z" />
    <glyph glyph-name="uniFBD7" unicode="&#x6c7;" arabic-form="isolated" 
d="M64 256v32h32v-32h-32zM64 352v32h32v-32h-32zM128 192h64v32h32v-96h-32v32h-64v32zM128 224v-32h-32v32h32zM128 256h64v-32h-64v32zM128 352v32h32v-64h-32v-32h-32v64h32zM128 416v-32h-32v32h32zM192 96h-32v32h32v-32zM32 32v32h64v-32h-64zM96 64v32h64v-32h-64z
" />
    <glyph glyph-name="uniFBD8" unicode="&#x6c7;" arabic-form="final" 
d="M64 256v32h32v-32h-32zM64 352v32h32v-32h-32zM128 192v-32h-32v32h32zM128 160h64v32h32v-32h32v-32h-32v-32h-32v32h-64v32zM128 224h64v-32h-64v32zM128 352v32h32v-64h-32v-32h-32v64h32zM128 416v-32h-32v32h32zM192 96v-32h-32v32h32zM32 0v32h64v-32h-64zM96 32
v32h64v-32h-64z" />
    <glyph glyph-name="uniFBD9" unicode="&#x6c6;" arabic-form="isolated" 
d="M128 192h64v32h32v-96h-32v32h-64v32zM128 224v-32h-32v32h32zM128 256h64v-32h-64v32zM128 352h32v-32h-32v32zM128 384v-32h-32v32h32zM192 96h-32v32h32v-32zM192 352h-32v32h32v-32zM32 32v32h64v-32h-64zM96 64v32h64v-32h-64z" />
    <glyph glyph-name="uniFBDA" unicode="&#x6c6;" arabic-form="final" 
d="M128 192v-32h-32v32h32zM128 160h64v32h32v-32h32v-32h-32v-32h-32v32h-64v32zM128 224h64v-32h-64v32zM128 352h32v-32h-32v32zM128 384v-32h-32v32h32zM192 96v-32h-32v32h32zM192 352h-32v32h32v-32zM32 0v32h64v-32h-64zM96 32v32h64v-32h-64z" />
    <glyph glyph-name="uniFBDB" unicode="&#x6c8;" arabic-form="isolated" 
d="M128 192h64v32h32v-96h-32v32h-64v32zM128 224v-32h-32v32h32zM128 256h64v-32h-64v32zM128 288v128h32v-128h-32zM192 96h-32v32h32v-32zM32 32v32h64v-32h-64zM96 64v32h64v-32h-64z" />
    <glyph glyph-name="uniFBDC" unicode="&#x6c8;" arabic-form="final" 
d="M128 192v-32h-32v32h32zM128 160h64v32h32v-32h32v-32h-32v-32h-32v32h-64v32zM128 224h64v-32h-64v32zM128 288v128h32v-128h-32zM192 96v-32h-32v32h32zM32 0v32h64v-32h-64zM96 32v32h64v-32h-64z" />
    <glyph glyph-name="uniFBDE" unicode="&#x6cb;" arabic-form="isolated" 
d="M128 192h64v32h32v-96h-32v32h-64v32zM128 224v-32h-32v32h32zM128 256h64v-32h-64v32zM128 352v32h32v-32h-32zM128 320v-32h-32v32h32zM192 96h-32v32h32v-32zM192 320v-32h-32v32h32zM32 32v32h64v-32h-64zM96 64v32h64v-32h-64z" />
    <glyph glyph-name="uniFBDF" unicode="&#x6cb;" arabic-form="final" 
d="M128 192v-32h-32v32h32zM128 160h64v32h32v-32h32v-32h-32v-32h-32v32h-64v32zM128 256h-32v32h32v-32zM128 224h64v-32h-64v32zM128 320v32h32v-32h-32zM192 96v-32h-32v32h32zM192 256h-32v32h32v-32zM32 0v32h64v-32h-64zM96 32v32h64v-32h-64z" />
    <glyph glyph-name="uniFBE4" unicode="&#x6d0;" arabic-form="isolated" 
d="M64 64h-32v128h32v-96h160v-32h-32v-32h-128v32zM128 192v64h32v-32h64v-32h32v-96h-32v64h-64v32h-32zM192 288v32h64v-64h-96v32h32zM128 -96v32h32v-32h-32zM128 -32v32h32v-32h-32z" />
    <glyph glyph-name="uniFBE5" unicode="&#x6d0;" arabic-form="final" 
d="M0 32v128h32v-96h128v64h32v-96h-32v-32h-128v32h-32zM128 128v32h32v-32h-32zM128 224v32h64v-32h32v-32h32v-64h-32v32h-32v32h-64v-32h-32v64h32zM128 -96v32h32v-32h-32zM128 -32v32h32v-32h-32z" />
    <glyph glyph-name="uniFBE6" unicode="&#x6d0;" arabic-form="initial" 
d="M0 96v64h192v64h32v32h32v-96h-32v-32h-32v-32h-192zM128 -32v32h32v-32h-32zM128 32v32h32v-32h-32z" />
    <glyph glyph-name="uniFBE7" unicode="&#x6d0;" arabic-form="medial" 
d="M0 96v64h128v64h32v32h32v-96h64v-64h-64v32h-64v-32h-128zM128 -32v32h32v-32h-32zM128 32v32h32v-32h-32z" />
    <glyph glyph-name="uniFBE8" unicode="&#x649;" arabic-form="initial" 
d="M0 96v64h192v64h32v32h32v-96h-32v-32h-32v-32h-192z" />
    <glyph glyph-name="uniFBE9" unicode="&#x649;" arabic-form="medial" 
d="M0 96v64h128v64h32v32h32v-96h64v-64h-64v32h-64v-32h-128z" />
    <glyph glyph-name="uniFBFC" unicode="&#x6cc;" arabic-form="isolated" 
d="M64 32h-32v128h32v-96h160v-32h-32v-32h-128v32zM128 160v64h32v-32h64v-32h32v-96h-32v64h-64v32h-32zM192 256v32h64v-64h-96v32h32z" />
    <glyph glyph-name="uniFBFD" unicode="&#x6cc;" arabic-form="final" 
d="M0 32v128h32v-96h128v64h32v-96h-32v-32h-128v32h-32zM128 128v32h32v-32h-32zM128 224v32h64v-32h32v-32h32v-64h-32v32h-32v32h-64v-32h-32v64h32z" />
    <glyph glyph-name="uniFBFE" unicode="&#x6cc;" arabic-form="initial" 
d="M256 32v32h-64v-32h64zM0 96v64h192v64h32v32h32v-96h-32v-32h-32v-32h-192zM128 32v32h-64v-32h64z" />
    <glyph glyph-name="uniFBFF" unicode="&#x6cc;" arabic-form="medial" 
d="M256 32v32h-64v-32h64zM0 96v64h192v64h32v32h32v-96h-32v-32h-32v-32h-192zM128 32v32h-64v-32h64z" />
    <glyph glyph-name="uniFE80" unicode="&#x621;" arabic-form="isolated" 
d="M64 64v32h32v-32h-32zM64 160v32h32v32h32v32h64v-32h32v-32h-96v-32h96v-32h-32v-32h-96v64h-32z" />
    <glyph glyph-name="uniFE81" unicode="&#x622;" arabic-form="isolated" 
d="M128 96v256h32v-256h-32zM32 384h32v-32h-32v32zM256 416v-32h-192v32h192z" />
    <glyph glyph-name="uniFE82" unicode="&#x622;" arabic-form="final" 
d="M256 96h-64v32h-32v32h96v-64zM128 160v192h32v-192h-32zM32 384h32v-32h-32v32zM256 416v-32h-192v32h192z" />
    <glyph glyph-name="uniFE83" unicode="&#x623;" arabic-form="isolated" 
d="M128 64v256h32v-256h-32zM160 352v32h-64v-32h-32v-32h32v32h64zM160 416v32h-64v-32h-32v-32h32v32h64z" />
    <glyph glyph-name="uniFE84" unicode="&#x623;" arabic-form="final" 
d="M256 64h-64v32h-32v32h96v-64zM128 128v192h32v-192h-32zM160 352v32h-64v-32h-32v-32h32v32h64zM160 416v32h-64v-32h-32v-32h32v32h64z" />
    <glyph glyph-name="uniFE85" unicode="&#x624;" arabic-form="isolated" 
d="M64 32h-32v32h160v-32h-32v-32h-96v32zM128 96v32h-32v96h32v32h64v-32h32v-32h-96v-32h96v32h32v-96h-32v-32h-32v32h-64zM160 288v32h-64v-32h-32v-32h32v32h64zM160 352v32h-64v-32h-32v-32h32v32h64z" />
    <glyph glyph-name="uniFE86" unicode="&#x624;" arabic-form="final" 
d="M64 32h-32v32h160v-32h-32v-32h-96v32zM128 96v32h-32v96h32v32h64v-32h32v-32h-96v-32h96v32h32v-96h-32v-32h-32v32h-64zM160 288v32h-64v-32h-32v-32h32v32h64zM160 352v32h-64v-32h-32v-32h32v32h64z" />
    <glyph glyph-name="uniFE87" unicode="&#x625;" arabic-form="isolated" 
d="M192 -32v32h-64v-32h-32v-32h32v32h64zM192 32v32h-64v-32h-32v-32h32v32h64zM128 96v256h-32v32h32v32h32v-64h32v-32h-32v-224h-32z" />
    <glyph glyph-name="uniFE88" unicode="&#x625;" arabic-form="final" 
d="M128 32v32h-64v-32h-32v-32h32v32h64zM128 96v32h-64v-32h-32v-32h32v32h64zM256 96h-64v32h-32v32h96v-64zM128 384v32h32v-64h32v-32h-32v-160h-32v192h-32v32h32z" />
    <glyph glyph-name="uniFE89" unicode="&#x626;" arabic-form="isolated" 
d="M96 256v32h-64v-32h-32v-32h32v32h64zM96 320v32h-64v-32h-32v-32h32v32h64zM64 32h-32v128h32v-96h160v-32h-32v-32h-128v32zM128 160v64h32v-32h64v-32h32v-96h-32v64h-64v32h-32zM192 256v32h64v-64h-96v32h32z" />
    <glyph glyph-name="uniFE8A" unicode="&#x626;" arabic-form="final" 
d="M96 256v32h-64v-32h-32v-32h32v32h64zM96 320v32h-64v-32h-32v-32h32v32h64zM0 32v128h32v-96h128v64h32v-96h-32v-32h-128v32h-32zM128 128v32h32v-32h-32zM128 224v32h64v-32h32v-32h32v-64h-32v32h-32v32h-64v-32h-32v64h32z" />
    <glyph glyph-name="uniFE8B" unicode="&#x626;" arabic-form="initial" 
d="M0 96v64h192v64h32v32h32v-96h-32v-32h-32v-32h-192zM224 288v32h-64v-32h-32v-32h32v32h64zM224 352v32h-64v-32h-32v-32h32v32h64z" />
    <glyph glyph-name="uniFE8C" unicode="&#x626;" arabic-form="medial" 
d="M0 96v64h128v64h32v32h32v-96h64v-64h-64v32h-64v-32h-128zM160 288v32h-64v-32h-32v-32h32v32h64zM160 352v32h-64v-32h-32v-32h32v32h64z" />
    <glyph glyph-name="uniFE8D" unicode="&#x627;" arabic-form="isolated" 
d="M128 96v256h-32v32h32v32h32v-64h32v-32h-32v-224h-32z" />
    <glyph glyph-name="uniFE8E" unicode="&#x627;" arabic-form="final" 
d="M256 96h-64v32h-32v32h96v-64zM128 384v32h32v-64h32v-32h-32v-160h-32v192h-32v32h32z" />
    <glyph glyph-name="uniFE8F" unicode="&#x628;" arabic-form="isolated" 
d="M160 32v32h-64v-32h64zM224 160v96h32v-128h-32v-32h-192v32h-32v128h32v-96h192z" />
    <glyph glyph-name="uniFE90" unicode="&#x628;" arabic-form="final" 
d="M160 32v32h-64v-32h64zM224 160v96h32v-128h-32v-32h-192v32h-32v128h32v-96h192z" />
    <glyph glyph-name="uniFE91" unicode="&#x628;" arabic-form="initial" 
d="M224 32v32h-64v-32h64zM0 96v64h192v64h32v32h32v-96h-32v-32h-32v-32h-192z" />
    <glyph glyph-name="uniFE92" unicode="&#x628;" arabic-form="medial" 
d="M224 32v32h-64v-32h64zM0 96v64h192v64h32v32h32v-96h-32v-32h-32v-32h-192z" />
    <glyph glyph-name="uniFE93" unicode="&#x629;" arabic-form="isolated" 
d="M128 320v32h-64v-32h64zM256 128h-32v-32h-96v32h-32v96h32v-64h96v64h-96v32h32v32h64v-32h32v-128zM256 320v32h-64v-32h64z" />
    <glyph glyph-name="uniFE94" unicode="&#x629;" arabic-form="final" 
d="M128 320v32h-64v-32h64zM256 128h-32v-32h-96v32h-32v96h32v-64h96v64h-96v32h32v32h64v-32h32v-128zM256 320v32h-64v-32h64z" />
    <glyph glyph-name="uniFE95" unicode="&#x62a;" arabic-form="isolated" 
d="M0 128v128h32v-96h192v96h32v-128h-32v-32h-192v32h-32zM64 288v32h64v-32h-64zM160 288v32h64v-32h-64z" />
    <glyph glyph-name="uniFE96" unicode="&#x62a;" arabic-form="final" 
d="M0 128v128h32v-96h192v96h32v-128h-32v-32h-192v32h-32zM64 288v32h64v-32h-64zM160 288v32h64v-32h-64z" />
    <glyph glyph-name="uniFE97" unicode="&#x62a;" arabic-form="initial" 
d="M256 288v32h-64v-32h64zM0 96v64h192v64h32v32h32v-96h-32v-32h-32v-32h-192zM128 288v32h-64v-32h64z" />
    <glyph glyph-name="uniFE98" unicode="&#x62a;" arabic-form="medial" 
d="M256 288v32h-64v-32h64zM0 96v64h192v64h32v32h32v-96h-32v-32h-32v-32h-192zM128 288v32h-64v-32h64z" />
    <glyph glyph-name="uniFE99" unicode="&#x62b;" arabic-form="isolated" 
d="M224 160v96h32v-128h-32v-32h-192v32h-32v128h32v-96h192zM32 288v32h64v-32h-64zM96 320v32h64v-32h-64zM160 320h64v-32h-64v32z" />
    <glyph glyph-name="uniFE9A" unicode="&#x62b;" arabic-form="final" 
d="M224 160v96h32v-128h-32v-32h-192v32h-32v128h32v-96h192zM32 288v32h64v-32h-64zM96 320v32h64v-32h-64zM160 320h64v-32h-64v32z" />
    <glyph glyph-name="uniFE9B" unicode="&#x62b;" arabic-form="initial" 
d="M0 96v64h192v64h32v32h32v-96h-32v-32h-32v-32h-192zM64 288v32h64v-32h-64zM128 320v32h64v-32h-64zM192 320h64v-32h-64v32z" />
    <glyph glyph-name="uniFE9C" unicode="&#x62b;" arabic-form="medial" 
d="M0 96v64h192v64h32v32h32v-96h-32v-32h-32v-32h-192zM64 288v32h64v-32h-64zM128 320v32h64v-32h-64zM192 320h64v-32h-64v32z" />
    <glyph glyph-name="uniFE9D" unicode="&#x62c;" arabic-form="isolated" 
d="M224 64v32h-64v-32h64zM64 96v-64h-32v64h32zM64 32h192v-32h-32v-32h-128v32h-32v32zM64 128h32v-32h-32v32zM64 224v32h96v-32h96v-64h-128v32h-96v32h32zM128 160v-32h-32v32h32z" />
    <glyph glyph-name="uniFE9E" unicode="&#x62c;" arabic-form="final" 
d="M224 64v32h-64v-32h64zM64 96v-64h-32v64h32zM64 32h192v-32h-32v-32h-128v32h-32v32zM64 128h32v-32h-32v32zM64 224v32h96v-32h96v-32h-32v-32h-96v32h-96v32h32zM128 160v-32h-32v32h32zM256 160v-32h-32v32h32z" />
    <glyph glyph-name="uniFE9F" unicode="&#x62c;" arabic-form="initial" 
d="M160 32v32h-64v-32h64zM0 96v64h160v-32h-32v-32h-128zM256 160h-96v32h-96v32h32v32h64v-32h96v-64z" />
    <glyph glyph-name="uniFEA0" unicode="&#x62c;" arabic-form="medial" 
d="M160 32v32h-64v-32h64zM0 96v64h160v-32h-32v-32h-128zM256 128h-32v32h-64v32h-96v32h32v32h64v-32h96v-96z" />
    <glyph glyph-name="uniFEA1" unicode="&#x62d;" arabic-form="isolated" 
d="M64 96v-64h-32v64h32zM64 32h192v-32h-32v-32h-128v32h-32v32zM64 128h32v-32h-32v32zM64 224v32h96v-32h96v-64h-128v32h-96v32h32zM128 160v-32h-32v32h32z" />
    <glyph glyph-name="uniFEA2" unicode="&#x62d;" arabic-form="final" 
d="M64 96v-64h-32v64h32zM64 32h192v-32h-32v-32h-128v32h-32v32zM64 128h32v-32h-32v32zM64 224v32h96v-32h96v-32h-32v-32h-96v32h-96v32h32zM128 160v-32h-32v32h32zM256 160v-32h-32v32h32z" />
    <glyph glyph-name="uniFEA3" unicode="&#x62d;" arabic-form="initial" 
d="M0 96v64h160v-32h-32v-32h-128zM256 160h-96v32h-96v32h32v32h64v-32h96v-64z" />
    <glyph glyph-name="uniFEA4" unicode="&#x62d;" arabic-form="medial" 
d="M0 96v64h160v-32h-32v-32h-128zM256 128h-32v32h-64v32h-96v32h32v32h64v-32h96v-96z" />
    <glyph glyph-name="uniFEA5" unicode="&#x62e;" arabic-form="isolated" 
d="M160 288v32h-64v-32h64zM64 96v-64h-32v64h32zM64 32h192v-32h-32v-32h-128v32h-32v32zM64 128h32v-32h-32v32zM64 224v32h96v-32h96v-64h-128v32h-96v32h32zM128 160v-32h-32v32h32z" />
    <glyph glyph-name="uniFEA6" unicode="&#x62e;" arabic-form="final" 
d="M160 288v32h-64v-32h64zM64 96v-64h-32v64h32zM64 32h192v-32h-32v-32h-128v32h-32v32zM64 128h32v-32h-32v32zM64 224v32h96v-32h96v-32h-32v-32h-96v32h-96v32h32zM128 160v-32h-32v32h32zM256 160v-32h-32v32h32z" />
    <glyph glyph-name="uniFEA7" unicode="&#x62e;" arabic-form="initial" 
d="M160 288v32h-64v-32h64zM0 96v64h160v-32h-32v-32h-128zM256 160h-96v32h-96v32h32v32h64v-32h96v-64z" />
    <glyph glyph-name="uniFEA8" unicode="&#x62e;" arabic-form="medial" 
d="M160 288v32h-64v-32h64zM0 96v64h160v-32h-32v-32h-128zM256 128h-32v32h-64v32h-96v32h32v32h64v-32h96v-96z" />
    <glyph glyph-name="uniFEA9" unicode="&#x62f;" arabic-form="isolated" 
d="M64 96h-32v32h32v32h32v-32h96v32h32v32h-32v32h-96v32h32v32h64v-32h32v-32h32v-96h-32v-32h-32v-32h-128v32z" />
    <glyph glyph-name="uniFEAA" unicode="&#x62f;" arabic-form="final" 
d="M64 96h-32v32h32v32h32v-32h96v32h32v32h-32v32h-96v32h32v32h64v-32h32v-32h32v-96h-32v-32h-32v-32h-128v32z" />
    <glyph glyph-name="uniFEAB" unicode="&#x630;" arabic-form="isolated" 
d="M192 320v32h-64v-32h64zM64 96h-32v32h32v32h32v-32h96v32h32v32h-32v32h-96v32h32v32h64v-32h32v-32h32v-96h-32v-32h-32v-32h-128v32z" />
    <glyph glyph-name="uniFEAC" unicode="&#x630;" arabic-form="final" 
d="M192 320v32h-64v-32h64zM64 96h-32v32h32v32h32v-32h96v32h32v32h-32v32h-96v32h32v32h64v-32h32v-32h32v-96h-32v-32h-32v-32h-128v32z" />
    <glyph glyph-name="uniFEAD" unicode="&#x631;" arabic-form="isolated" 
d="M256 96h-32v64h-32v32h-32v32h32v32h32v-32h32v-128zM32 32v32h160v-32h-32v-32h-96v32h-32zM192 64v32h32v-32h-32z" />
    <glyph glyph-name="uniFEAE" unicode="&#x631;" arabic-form="final" 
d="M256 96h-32v64h-32v32h-32v32h32v32h32v-32h32v-128zM32 32v32h160v-32h-32v-32h-96v32h-32zM192 64v32h32v-32h-32z" />
    <glyph glyph-name="uniFEAF" unicode="&#x632;" arabic-form="isolated" 
d="M224 288v32h-64v-32h64zM256 96h-32v64h-32v32h-32v32h32v32h32v-32h32v-128zM32 32v32h160v-32h-32v-32h-96v32h-32zM192 64v32h32v-32h-32z" />
    <glyph glyph-name="uniFEB0" unicode="&#x632;" arabic-form="final" 
d="M224 288v32h-64v-32h64zM256 96h-32v64h-32v32h-32v32h32v32h32v-32h32v-128zM32 32v32h160v-32h-32v-32h-96v32h-32zM192 64v32h32v-32h-32z" />
    <glyph glyph-name="uniFEB1" unicode="&#x633;" arabic-form="isolated" 
d="M0 128h32v-64h128v64h32v-96h-32v-32h-128v32h-32v96zM128 128v32h-32v96h32v-64h32v32h32v-32h32v64h32v-96h-32v-32h-32v32h-32v-32h-32z" />
    <glyph glyph-name="uniFEB2" unicode="&#x633;" arabic-form="final" 
d="M0 96h32v-64h128v64h32v-96h-32v-32h-128v32h-32v96zM128 96v32h-32v96h32v-64h32v32h32v-32h32v64h32v-96h-32v-32h-32v32h-32v-32h-32z" />
    <glyph glyph-name="uniFEB3" unicode="&#x633;" arabic-form="initial" 
d="M0 96v64h96v96h32v-96h32v64h32v-64h32v96h32v-128h-32v-32h-32v32h-32v-32h-32v32h-32v-32h-96z" />
    <glyph glyph-name="uniFEB4" unicode="&#x633;" arabic-form="medial" 
d="M0 96v64h96v96h32v-96h32v64h32v-64h32v96h32v-128h-32v-32h-32v32h-32v-32h-32v32h-32v-32h-96z" />
    <glyph glyph-name="uniFEB5" unicode="&#x634;" arabic-form="isolated" 
d="M0 128h32v-64h128v64h32v-96h-32v-32h-128v32h-32v96zM128 128v32h-32v96h32v-64h32v32h32v-32h32v64h32v-96h-32v-32h-32v32h-32v-32h-32zM128 288h-32v32h32v-32zM192 352v-32h-32v32h32zM256 288h-32v32h32v-32z" />
    <glyph glyph-name="uniFEB6" unicode="&#x634;" arabic-form="final" 
d="M0 96h32v-64h128v64h32v-96h-32v-32h-128v32h-32v96zM128 96v32h-32v96h32v-64h32v32h32v-32h32v64h32v-96h-32v-32h-32v32h-32v-32h-32zM128 256h-32v32h32v-32zM192 320v-32h-32v32h32zM256 256h-32v32h32v-32z" />
    <glyph glyph-name="uniFEB7" unicode="&#x634;" arabic-form="initial" 
d="M0 96v64h96v96h32v-96h32v64h32v-64h32v96h32v-128h-32v-32h-32v32h-32v-32h-32v32h-32v-32h-96zM64 288v32h64v-32h-64zM128 320v32h64v-32h-64zM192 320h64v-32h-64v32z" />
    <glyph glyph-name="uniFEB8" unicode="&#x634;" arabic-form="medial" 
d="M0 96v64h96v96h32v-96h32v64h32v-64h32v96h32v-128h-32v-32h-32v32h-32v-32h-32v32h-32v-32h-96zM64 288v32h64v-32h-64zM128 320v32h64v-32h-64zM192 320h64v-32h-64v32z" />
    <glyph glyph-name="uniFEB9" unicode="&#x635;" arabic-form="isolated" 
d="M0 128h32v-64h128v64h32v-96h-32v-32h-128v32h-32v96zM64 192v32h32v32h32v-32h96v32h32v-64h-32v-32h-64v-32h-32v32h-32v32h-32zM128 256v32h96v-32h-96z" />
    <glyph glyph-name="uniFEBA" unicode="&#x635;" arabic-form="final" 
d="M0 96h32v-64h128v64h32v-96h-32v-32h-128v32h-32v96zM64 160v32h32v32h32v-32h96v32h32v-64h-32v-32h-64v-32h-32v32h-32v32h-32zM128 224v32h96v-32h-96z" />
    <glyph glyph-name="uniFEBB" unicode="&#x635;" arabic-form="initial" 
d="M0 96v64h64v64h32v-32h32v-32h96v-32h-32v-32h-96v32h-32v-32h-64zM128 192v32h32v-32h-32zM192 192v32h-32v32h32v32h32v-32h32v-96h-32v32h-32z" />
    <glyph glyph-name="uniFEBC" unicode="&#x635;" arabic-form="medial" 
d="M0 96v64h64v64h32v-32h32v-32h96v-32h-32v-32h-96v32h-32v-32h-64zM128 192v32h32v-32h-32zM192 192v32h-32v32h32v32h32v-32h32v-96h-32v32h-32z" />
    <glyph glyph-name="uniFEBD" unicode="&#x636;" arabic-form="isolated" 
d="M224 320v32h-64v-32h64zM0 128h32v-64h128v64h32v-96h-32v-32h-128v32h-32v96zM64 192v32h32v32h32v-32h96v32h32v-64h-32v-32h-64v-32h-32v32h-32v32h-32zM128 256v32h96v-32h-96z" />
    <glyph glyph-name="uniFEBE" unicode="&#x636;" arabic-form="final" 
d="M224 288v32h-64v-32h64zM0 96h32v-64h128v64h32v-96h-32v-32h-128v32h-32v96zM64 160v32h32v32h32v-32h96v32h32v-64h-32v-32h-64v-32h-32v32h-32v32h-32zM128 224v32h96v-32h-96z" />
    <glyph glyph-name="uniFEBF" unicode="&#x636;" arabic-form="initial" 
d="M192 320v32h-64v-32h64zM0 96v64h64v64h32v-32h32v-32h96v-32h-32v-32h-96v32h-32v-32h-64zM128 192v32h32v-32h-32zM192 192v32h-32v32h32v32h32v-32h32v-96h-32v32h-32z" />
    <glyph glyph-name="uniFEC0" unicode="&#x636;" arabic-form="medial" 
d="M192 320v32h-64v-32h64zM0 96v64h64v64h32v-32h32v-32h96v-32h-32v-32h-96v32h-32v-32h-64zM128 192v32h32v-32h-32zM192 192v32h-32v32h32v32h32v-32h32v-96h-32v32h-32z" />
    <glyph glyph-name="uniFEC1" unicode="&#x637;" arabic-form="isolated" 
d="M0 192h32v-32h64v192h-32v32h32v32h32v-64h32v-32h-32v-96h32v-32h-32v-32h96v-32h-32v-32h-160v32h-32v64zM192 192v32h-32v32h32v32h32v-32h32v-96h-32v32h-32z" />
    <glyph glyph-name="uniFEC2" unicode="&#x637;" arabic-form="final" 
d="M0 192h32v-32h64v192h-32v32h32v32h32v-64h32v-32h-32v-96h32v-32h-32v-32h96v32h-32v32h-32v32h32v32h32v-32h32v-128h-64v-32h-160v32h-32v64z" />
    <glyph glyph-name="uniFEC3" unicode="&#x637;" arabic-form="initial" 
d="M0 96v64h96v192h-32v32h32v32h32v-64h32v-32h-32v-96h32v-32h-32v-32h96v-32h-32v-32h-192zM192 192v32h-32v32h32v32h32v-32h32v-96h-32v32h-32z" />
    <glyph glyph-name="uniFEC4" unicode="&#x637;" arabic-form="medial" 
d="M0 96v64h96v192h-32v32h32v32h32v-64h32v-32h-32v-96h32v-32h-32v-32h96v32h-32v32h-32v32h32v32h32v-32h32v-128h-64v-32h-192z" />
    <glyph glyph-name="uniFEC5" unicode="&#x638;" arabic-form="isolated" 
d="M256 352v32h-64v-32h64zM0 192h32v-32h64v192h-32v32h32v32h32v-64h32v-32h-32v-96h32v-32h-32v-32h96v-32h-32v-32h-160v32h-32v64zM192 192v32h-32v32h32v32h32v-32h32v-96h-32v32h-32z" />
    <glyph glyph-name="uniFEC6" unicode="&#x638;" arabic-form="final" 
d="M256 352v32h-64v-32h64zM0 192h32v-32h64v192h-32v32h32v32h32v-64h32v-32h-32v-96h32v-32h-32v-32h96v32h-32v32h-32v32h32v32h32v-32h32v-128h-64v-32h-160v32h-32v64z" />
    <glyph glyph-name="uniFEC7" unicode="&#x638;" arabic-form="initial" 
d="M256 352v32h-64v-32h64zM0 96v64h96v192h-32v32h32v32h32v-64h32v-32h-32v-96h32v-32h-32v-32h96v-32h-32v-32h-192zM192 192v32h-32v32h32v32h32v-32h32v-96h-32v32h-32z" />
    <glyph glyph-name="uniFEC8" unicode="&#x638;" arabic-form="medial" 
d="M256 352v32h-64v-32h64zM0 96v64h96v192h-32v32h32v32h32v-64h32v-32h-32v-96h32v-32h-32v-32h96v32h-32v32h-32v32h32v32h32v-32h32v-128h-64v-32h-192z" />
    <glyph glyph-name="uniFEC9" unicode="&#x639;" arabic-form="isolated" 
d="M0 32v96h32v-96h-32zM64 0h-32v32h192v-32h-32v-32h-128v32zM64 192h-32v96h32v32h64v-32h32v-32h-96v-64zM64 160v32h96v-32h-96zM64 128h-32v32h32v-32z" />
    <glyph glyph-name="uniFECA" unicode="&#x639;" arabic-form="final" 
d="M0 32v96h32v-96h-32zM0 256v64h128v-32h32v-64h-32v32h-64v-32h-32v32h-32zM64 0h-32v32h192v-32h-32v-32h-128v32zM64 160v-32h-32v32h32zM64 224h64v-64h-64v64zM128 160h128v-64h-96v32h-32v32z" />
    <glyph glyph-name="uniFECB" unicode="&#x639;" arabic-form="initial" 
d="M0 96v64h96v64h32v-64h128v-32h-32v-32h-224zM256 256v-32h-128v32h32v32h64v-32h32z" />
    <glyph glyph-name="uniFECC" unicode="&#x639;" arabic-form="medial" 
d="M0 96v64h160v-32h-32v-32h-128zM256 192h-32v32h-64v-32h-32v32h-64v64h160v-32h32v-64zM256 160v-32h-32v32h32zM160 192h64v-32h-64v32z" />
    <glyph glyph-name="uniFECD" unicode="&#x63a;" arabic-form="isolated" 
d="M128 352v32h-64v-32h64zM0 32v96h32v-96h-32zM64 0h-32v32h192v-32h-32v-32h-128v32zM64 192h-32v96h32v32h64v-32h32v-32h-96v-64zM64 160v32h96v-32h-96zM64 128h-32v32h32v-32z" />
    <glyph glyph-name="uniFECE" unicode="&#x63a;" arabic-form="final" 
d="M128 352v32h-64v-32h64zM0 32v96h32v-96h-32zM0 256v64h128v-32h32v-64h-32v32h-64v-32h-32v32h-32zM64 0h-32v32h192v-32h-32v-32h-128v32zM64 160v-32h-32v32h32zM64 224h64v-64h-64v64zM128 160h128v-64h-96v32h-32v32z" />
    <glyph glyph-name="uniFECF" unicode="&#x63a;" arabic-form="initial" 
d="M224 320v32h-64v-32h64zM0 96v64h96v64h32v-64h128v-32h-32v-32h-224zM256 256v-32h-128v32h32v32h64v-32h32z" />
    <glyph glyph-name="uniFED0" unicode="&#x63a;" arabic-form="medial" 
d="M192 320v32h-64v-32h64zM0 96v64h160v-32h-32v-32h-128zM256 192h-32v32h-64v-32h-32v32h-64v64h160v-32h32v-64zM256 160v-32h-32v32h32zM160 192h64v-32h-64v32z" />
    <glyph glyph-name="uniFED1" unicode="&#x641;" arabic-form="isolated" 
d="M224 320v32h-64v-32h64zM0 96v96h32v-64h192v32h-64v96h32v32h32v-32h32v-160h-32v-32h-192v32h-32zM192 192h32v32h-32v-32z" />
    <glyph glyph-name="uniFED2" unicode="&#x641;" arabic-form="final" 
d="M224 320v32h-64v-32h64zM0 96v96h32v-64h192v32h-64v96h32v32h32v-32h32v-160h-32v-32h-192v32h-32zM192 192h32v32h-32v-32z" />
    <glyph glyph-name="uniFED3" unicode="&#x641;" arabic-form="initial" 
d="M0 96v64h224v32h-128v96h32v32h64v-32h32v-32h32v-128h-32v-32h-224zM128 256v-32h64v32h-64zM128 352v32h64v-32h-64z" />
    <glyph glyph-name="uniFED4" unicode="&#x641;" arabic-form="medial" 
d="M0 96v64h224v32h-128v96h32v32h64v-32h32v-32h32v-128h-32v-32h-224zM128 256v-32h64v32h-64zM128 352v32h64v-32h-64z" />
    <glyph glyph-name="uniFED5" unicode="&#x642;" arabic-form="isolated" 
d="M160 320v32h-64v-32h64zM32 32v96h32v-64h128v32h32v32h-64v32h-32v96h32v32h32v-32h32v-32h32v-128h-32v-32h-32v-32h-32v-32h-96v32h-32zM160 160h32v32h32v32h-64v-64zM256 320v32h-64v-32h64z" />
    <glyph glyph-name="uniFED6" unicode="&#x642;" arabic-form="final" 
d="M160 320v32h-64v-32h64zM32 32v96h32v-64h128v32h32v32h-64v32h-32v96h32v32h32v-32h32v-32h32v-128h-32v-32h-32v-32h-32v-32h-96v32h-32zM160 160h32v32h32v32h-64v-64zM256 320v32h-64v-32h64z" />
    <glyph glyph-name="uniFED7" unicode="&#x642;" arabic-form="initial" 
d="M0 96v64h160v32h64v32h-64v-32h-32v64h32v32h64v-32h32v-128h-32v-32h-224zM64 320v32h64v-32h-64zM192 320v32h64v-32h-64z" />
    <glyph glyph-name="uniFED8" unicode="&#x642;" arabic-form="medial" 
d="M0 96v64h160v32h64v32h-64v-32h-32v64h32v32h64v-32h32v-128h-32v-32h-224zM64 320v32h64v-32h-64zM192 320v32h64v-32h-64z" />
    <glyph glyph-name="uniFED9" unicode="&#x643;" arabic-form="isolated" 
d="M0 64v96h32v-64h192v256h-32v32h32v32h32v-352h-32v-32h-192v32h-32zM160 192v32h-64v-32h-32v-32h32v32h64zM160 256v32h-64v-32h-32v-32h32v32h64z" />
    <glyph glyph-name="uniFEDA" unicode="&#x643;" arabic-form="final" 
d="M0 64v96h32v-64h192v256h-32v32h32v32h32v-352h-32v-32h-192v32h-32zM160 192v32h-64v-32h-32v-32h32v32h64zM160 256v32h-64v-32h-32v-32h32v32h64z" />
    <glyph glyph-name="uniFEDB" unicode="&#x643;" arabic-form="initial" 
d="M0 96v64h224v32h32v-64h-32v-32h-224zM128 192v32h96v-32h-96zM128 224h-32v64h32v-64zM128 288v32h32v-32h-32zM192 352v-32h-32v32h32zM192 384h32v32h32v-64h-64v32z" />
    <glyph glyph-name="uniFEDC" unicode="&#x643;" arabic-form="medial" 
d="M0 96v64h224v32h32v-64h-32v-32h-224zM128 192v32h96v-32h-96zM128 224h-32v64h32v-64zM128 288v32h32v-32h-32zM192 352v-32h-32v32h32zM192 384h32v32h32v-64h-64v32z" />
    <glyph glyph-name="uniFEDD" unicode="&#x644;" arabic-form="isolated" 
d="M0 64v96h32v-64h192v224h-32v64h32v32h32v-352h-32v-32h-192v32h-32z" />
    <glyph glyph-name="uniFEDE" unicode="&#x644;" arabic-form="final" 
d="M0 64v96h32v-64h192v224h-32v64h32v32h32v-352h-32v-32h-192v32h-32z" />
    <glyph glyph-name="uniFEDF" unicode="&#x644;" arabic-form="initial" 
d="M0 96v64h224v-32h-32v-32h-192zM256 160h-32v160h-32v64h32v32h32v-256z" />
    <glyph glyph-name="uniFEE0" unicode="&#x644;" arabic-form="medial" 
d="M0 96v64h224v-32h-32v-32h-192zM256 160h-32v160h-32v64h32v32h32v-256z" />
    <glyph glyph-name="uniFEE1" unicode="&#x645;" arabic-form="isolated" 
d="M256 160h-32v-32h-32v32h-96v32h64v64h-32v32h64v-32h32v-32h32v-64zM64 -32v192h32v-192h-32zM96 224v32h32v-32h-32z" />
    <glyph glyph-name="uniFEE2" unicode="&#x645;" arabic-form="final" 
d="M256 128h-32v32h-128v32h64v64h-32v32h64v-32h32v-32h32v-96zM64 -32v192h32v-192h-32zM96 224v32h32v-32h-32z" />
    <glyph glyph-name="uniFEE3" unicode="&#x645;" arabic-form="initial" 
d="M0 96v64h96v64h32v-64h32v-32h-64v-32h-96zM256 128h-32v-32h-64v32h32v64h-32v32h-32v32h64v-32h32v-32h32v-64z" />
    <glyph glyph-name="uniFEE4" unicode="&#x645;" arabic-form="medial" 
d="M0 96v64h96v64h32v-64h32v-32h-64v-32h-96zM256 128h-32v-32h-64v32h32v64h-32v32h-32v32h64v-32h32v-32h32v-64z" />
    <glyph glyph-name="uniFEE5" unicode="&#x646;" arabic-form="isolated" 
d="M160 288v32h-64v-32h64zM256 64h-32v96h-32v64h32v32h32v-192zM32 32v128h32v-96h160v-32h-32v-32h-128v32h-32zM64 160v32h32v-32h-32z" />
    <glyph glyph-name="uniFEE6" unicode="&#x646;" arabic-form="final" 
d="M160 288v32h-64v-32h64zM256 64h-32v96h-32v64h32v32h32v-192zM32 32v128h32v-96h160v-32h-32v-32h-128v32h-32zM64 160v32h32v-32h-32z" />
    <glyph glyph-name="uniFEE7" unicode="&#x646;" arabic-form="initial" 
d="M256 288v32h-64v-32h64zM0 96v64h192v64h32v32h32v-96h-32v-32h-32v-32h-192z" />
    <glyph glyph-name="uniFEE8" unicode="&#x646;" arabic-form="medial" 
d="M256 288v32h-64v-32h64zM0 96v64h192v64h32v32h32v-96h-32v-32h-32v-32h-192z" />
    <glyph glyph-name="uniFEE9" unicode="&#x647;" arabic-form="isolated" 
d="M256 128h-32v-32h-96v32h-32v96h32v-64h96v64h-96v32h32v32h64v-32h32v-128z" />
    <glyph glyph-name="uniFEEA" unicode="&#x647;" arabic-form="final" 
d="M256 128h-32v-32h-96v32h-32v96h32v-64h96v64h-96v32h32v32h64v-32h32v-128z" />
    <glyph glyph-name="uniFEEB" unicode="&#x647;" arabic-form="initial" 
d="M0 96v64h96v64h32v-64h32v-32h64v96h32v-128h-32v-32h-64v32h-32v32h-32v-32h-96zM64 288v32h96v-32h32v-32h-32v-32h-32v32h-32v32h-32zM192 160h-32v64h32v-64zM192 256h32v-32h-32v32z" />
    <glyph glyph-name="uniFEEC" unicode="&#x647;" arabic-form="medial" 
d="M0 96v64h128v96h32v-96h32v32h32v-32h32v-64h-32v-32h-32v64h-32v-96h-32v64h-128zM192 0h-32v32h64v32h32v-64h-32v-32h-32v32zM192 288v32h32v-32h32v-96h-32v64h-64v32h32z" />
    <glyph glyph-name="uniFEED" unicode="&#x648;" arabic-form="isolated" 
d="M64 32h-32v32h160v-32h-32v-32h-96v32zM128 96v32h-32v96h32v32h64v-32h32v-32h-96v-32h96v32h32v-96h-32v-32h-32v32h-64z" />
    <glyph glyph-name="uniFEEE" unicode="&#x648;" arabic-form="final" 
d="M64 32h-32v32h160v-32h-32v-32h-96v32zM128 96v32h-32v96h32v32h64v-32h32v-32h-96v-32h96v32h32v-96h-32v-32h-32v32h-64z" />
    <glyph glyph-name="uniFEEF" unicode="&#x649;" arabic-form="isolated" 
d="M64 32h-32v128h32v-96h160v-32h-32v-32h-128v32zM128 160v64h32v-32h64v-32h32v-96h-32v64h-64v32h-32zM192 256v32h64v-64h-96v32h32z" />
    <glyph glyph-name="uniFEF0" unicode="&#x649;" arabic-form="final" 
d="M0 0v128h32v-96h128v64h32v-96h-32v-32h-128v32h-32zM128 96v32h32v-32h-32zM128 192v32h64v-32h32v-32h32v-64h-32v32h-32v32h-64v-32h-32v64h32z" />
    <glyph glyph-name="uniFEF1" unicode="&#x64a;" arabic-form="isolated" 
d="M128 -64v32h-64v-32h64zM64 32h-32v128h32v-96h160v-32h-32v-32h-128v32zM128 160v64h32v-32h64v-32h32v-96h-32v64h-64v32h-32zM192 256v32h64v-64h-96v32h32zM224 -64v32h-64v-32h64z" />
    <glyph glyph-name="uniFEF2" unicode="&#x64a;" arabic-form="final" 
d="M128 -64v32h-64v-32h64zM0 32v128h32v-96h128v64h32v-96h-32v-32h-128v32h-32zM128 128v32h32v-32h-32zM128 224v32h64v-32h32v-32h32v-64h-32v32h-32v32h-64v-32h-32v64h32zM224 -64v32h-64v-32h64z" />
    <glyph glyph-name="uniFEF3" unicode="&#x64a;" arabic-form="initial" 
d="M256 32v32h-64v-32h64zM0 96v64h192v64h32v32h32v-96h-32v-32h-32v-32h-192zM128 32v32h-64v-32h64z" />
    <glyph glyph-name="uniFEF4" unicode="&#x64a;" arabic-form="medial" 
d="M256 32v32h-64v-32h64zM0 96v64h192v64h32v32h32v-96h-32v-32h-32v-32h-192zM128 32v32h-64v-32h64z" />
    <glyph glyph-name="uniFEF5" unicode="&#xfef5;" arabic-form="isolated" 
d="M64 96v32h-32v32h128v64h-32v32h-32v64h64v-64h32v-96h32v160h-32v64h32v32h32v-288h-32v-32h-160zM64 352v-32h-32v32h32zM64 384h96v-32h-96v32z" />
    <glyph glyph-name="uniFEF6" unicode="&#xfef6;" arabic-form="final" 
d="M64 96v32h-32v32h128v64h-32v32h-32v64h64v-64h32v-96h32v160h-32v64h32v32h32v-288h-32v-32h-160zM64 352v-32h-32v32h32zM64 384h96v-32h-96v32z" />
    <glyph glyph-name="uniFEF7" unicode="&#xfef7;" arabic-form="isolated" 
d="M64 96v32h-32v32h128v64h-32v64h32v-32h32v-96h32v160h-32v64h32v32h32v-288h-32v-32h-160zM64 352v32h32v-32h-32zM64 288v32h32v-32h-32zM96 384v32h64v-32h-64zM96 352h64v-32h-64v32z" />
    <glyph glyph-name="uniFEF8" unicode="&#xfef8;" arabic-form="final" 
d="M64 96v32h-32v32h128v64h-32v64h32v-32h32v-96h32v160h-32v64h32v32h32v-288h-32v-32h-160zM64 352v32h32v-32h-32zM64 288v32h32v-32h-32zM96 384v32h64v-32h-64zM96 352h64v-32h-64v32z" />
    <glyph glyph-name="uniFEF9" unicode="&#xfef9;" arabic-form="isolated" 
d="M64 96v32h-32v32h128v64h-32v32h-32v32h-32v32h32v32h32v-32h32v-64h32v-96h32v160h-32v64h32v32h32v-288h-32v-32h-160zM64 -32v32h32v32h32v-32h64v-32h-128zM128 32v32h64v-32h-64z" />
    <glyph glyph-name="uniFEFA" unicode="&#xfefa;" arabic-form="final" 
d="M64 96v32h-32v32h128v64h-32v32h-32v32h-32v32h32v32h32v-32h32v-64h32v-96h32v160h-32v64h32v32h32v-288h-32v-32h-160zM64 -32v32h32v32h32v-32h64v-32h-128zM128 32v32h64v-32h-64z" />
    <glyph glyph-name="uniFEFB" unicode="&#xfefb;" arabic-form="isolated" 
d="M64 96v32h-32v32h128v96h-32v32h-64v64h64v-32h32v-32h32v-128h32v160h-32v64h32v32h32v-288h-32v-32h-160zM64 352h-32v32h32v-32z" />
    <glyph glyph-name="uniFEFC" unicode="&#xfefc;" arabic-form="final" 
d="M64 96v32h-32v32h128v96h-32v32h-64v64h64v-32h32v-32h32v-128h32v160h-32v64h32v32h32v-288h-32v-32h-160zM64 352h-32v32h32v-32z" />
    <glyph glyph-name=".notdef" 
d="M32 288h192v-256h-192v256zM64 64h128v192h-128v-192z" />
    <glyph glyph-name=".null" horiz-adv-x="0" 
 />
    <glyph glyph-name="nonmarkingreturn" horiz-adv-x="170" 
 />
    <glyph glyph-name="space" unicode=" " 
 />
    <glyph glyph-name="exclam" unicode="!" 
d="M96 0v64h64v-64h-64zM96 96v96h-32v96h32v32h64v-32h32v-96h-32v-96h-64z" />
    <glyph glyph-name="quotedbl" unicode="&#x22;" 
d="M32 352h64v-128h-32v32h-32v96zM160 352h64v-96h-32v-32h-32v128z" />
    <glyph glyph-name="numbersign" unicode="#" 
d="M0 224h32v64h64v-64h32v64h64v-64h32v-32h-32v-96h32v-32h-32v-64h-64v64h-32v-64h-64v64h-32v32h32v96h-32v32zM96 96h32v96h-32v-96z" />
    <glyph glyph-name="dollar" unicode="$" 
d="M0 96v-64h32v-32h64v-64h64v64h32v32h32v128h-32v32h-128v96h96v-32h32v-32h32v64h-32v32h-32v64h-64v-64h-64v-32h-32v-96h32v-32h128v-128h-96v32h-32v32h-32z" />
    <glyph glyph-name="percent" unicode="%" 
d="M0 0v64h32v32h32v32h32v32h32v32h32v32h32v32h32v-64h-32v-32h-32v-32h-32v-32h-32v-32h-32v-32h-32v-32h-32zM0 256v-64h64v64h-64zM160 64v-64h64v64h-64z" />
    <glyph glyph-name="ampersand" unicode="&#x26;" 
d="M0 32h32v-32h96v32h32v-32h64v32h-32v128h32v32h-64v-32h-32v32h32v32h32v64h-32v32h-96v-32h-32v-64h32v-32h-32v-32h-32v-128zM64 160h32v-32h32v-96h-64v128zM96 288h32v-64h-32v64z" />
    <glyph glyph-name="quotesingle" unicode="'" 
d="M96 352v-96h-32v-32h64v32h32v96h-64z" />
    <glyph glyph-name="parenleft" unicode="(" 
d="M64 256h32v32h32v32h64v-32h-32v-32h-32v-192h32v-32h32v-32h-64v32h-32v32h-32v192z" />
    <glyph glyph-name="parenright" unicode=")" 
d="M192 64h-32v-32h-32v-32h-64v32h32v32h32v192h-32v32h-32v32h64v-32h32v-32h32v-192z" />
    <glyph glyph-name="asterisk" unicode="*" 
d="M0 160h64v32h-32v32h64v-32h64v32h64v-32h-32v-32h64v-32h-64v-32h32v-32h-64v32h-64v-32h-64v32h32v32h-64v32z" />
    <glyph glyph-name="plus" unicode="+" 
d="M32 160h64v64h64v-64h64v-32h-64v-64h-64v64h-64v32z" />
    <glyph glyph-name="comma" unicode="," 
d="M160 64v-96h-32v-32h-64v32h32v96h64z" />
    <glyph glyph-name="hyphen" unicode="-" 
d="M0 160v-32h224v32h-224z" />
    <glyph glyph-name="period" unicode="." 
d="M96 64v-64h64v64h-64z" />
    <glyph glyph-name="slash" unicode="/" 
d="M0 0v64h32v32h32v32h32v32h32v32h32v32h32v32h32v-64h-32v-32h-32v-32h-32v-32h-32v-32h-32v-32h-32v-32h-32z" />
    <glyph glyph-name="zero" unicode="0" 
d="M0 64h32v-32h32v-32h96v32h32v32h32v192h-32v32h-32v32h-96v-32h-32v-32h-32v-192zM128 288v-32h32v-192h-32v-32h-32v32h-32v192h32v32h32zM96 192h32v-64h-32v64z" />
    <glyph glyph-name="one" unicode="1" 
d="M32 32v-32h192v32h-64v288h-64v-32h-32v-32h-32v-32h64v-192h-64z" />
    <glyph glyph-name="two" unicode="2" 
d="M160 64h64v-64h-224v96h32v32h32v32h32v32h32v32h32v64h-96v-32h-64v32h32v32h160v-32h32v-64h-32v-32h-32v-32h-32v-32h-32v-32h-32v-64h96v32z" />
    <glyph glyph-name="three" unicode="3" 
d="M0 32h32v-32h160v32h32v128h-32v32h32v96h-32v32h-160v-32h-32v-32h64v32h96v-96h-96v-32h96v-128h-96v32h-64v-32z" />
    <glyph glyph-name="four" unicode="4" 
d="M224 0h-128v32h32v96h-128v64h32v32h32v32h32v32h32v32h64v-160h32v-32h-32v-96h32v-32zM64 160h64v64h-32v-32h-32v-32z" />
    <glyph glyph-name="five" unicode="5" 
d="M0 32h32v-32h160v32h32v128h-32v32h-128v96h160v32h-224v-160h160v-128h-96v32h-64v-32z" />
    <glyph glyph-name="six" unicode="6" 
d="M0 32h32v-32h160v32h32v128h-32v32h-128v64h32v32h64v32h-96v-32h-32v-32h-32v-224zM160 32h-96v128h96v-128z" />
    <glyph glyph-name="seven" unicode="7" 
d="M0 256v64h224v-128h-32v-32h-32v-32h-32v-128h-64v128h32v32h32v32h32v96h-96v-32h-64z" />
    <glyph glyph-name="eight" unicode="8" 
d="M0 288h32v32h160v-32h32v-96h-32v-32h32v-128h-32v-32h-160v32h-32v128h32v32h-32v96zM64 192h96v96h-96v-96zM64 32h96v128h-96v-128z" />
    <glyph glyph-name="nine" unicode="9" 
d="M0 288h32v32h160v-32h32v-224h-32v-32h-32v-32h-128v32h96v32h32v96h-128v32h-32v96zM64 192h96v96h-96v-96z" />
    <glyph glyph-name="colon" unicode=":" 
d="M96 224v-64h64v64h-64zM96 64v-64h64v64h-64z" />
    <glyph glyph-name="semicolon" unicode=";" 
d="M96 64v-64h-32v-32h64v32h32v64h-64zM96 224v-64h64v64h-64z" />
    <glyph glyph-name="less" unicode="&#x3c;" 
d="M32 160h32v32h32v32h32v32h32v32h64v-32h-32v-32h-32v-32h-32v-32h-32v-32h32v-32h32v-32h32v-32h32v-32h-64v32h-32v32h-32v32h-32v32h-32v32z" />
    <glyph glyph-name="equal" unicode="=" 
d="M32 224v-32h192v32h-192zM32 128v-32h192v32h-192z" />
    <glyph glyph-name="greater" unicode="&#x3e;" 
d="M224 128h-32v-32h-32v-32h-32v-32h-32v-32h-64v32h32v32h32v32h32v32h32v32h-32v32h-32v32h-32v32h-32v32h64v-32h32v-32h32v-32h32v-32h32v-32z" />
    <glyph glyph-name="question" unicode="?" 
d="M0 224v64h32v32h160v-32h32v-64h-32v-32h-32v-96h-64v96h32v32h32v64h-96v-64h-64zM96 64h64v-64h-64v64z" />
    <glyph glyph-name="at" unicode="@" 
d="M32 288v-32h-32v-224h32v-32h160v32h-128v224h96v-64h-64v-128h96v32h32v160h-32v32h-160z" />
    <glyph glyph-name="A" unicode="A" 
d="M224 0h-64v128h-96v-128h-64v224h32v32h32v32h32v32h32v-32h32v-32h32v-32h32v-224zM160 160v64h-32v32h-32v-32h-32v-64h96z" />
    <glyph glyph-name="B" unicode="B" 
d="M0 320v-32h32v-256h-32v-32h192v32h32v128h-32v32h32v96h-32v32h-192zM160 288v-96h-64v96h64zM160 160v-128h-64v128h64z" />
    <glyph glyph-name="C" unicode="C" 
d="M0 256h32v32h32v32h128v-32h32v-64h-32v32h-32v32h-64v-32h-32v-192h32v-32h64v32h32v32h32v-64h-32v-32h-128v32h-32v32h-32v192z" />
    <glyph glyph-name="D" unicode="D" 
d="M0 320v-32h32v-256h-32v-32h160v32h32v32h32v192h-32v32h-32v32h-160zM96 288h32v-32h32v-192h-32v-32h-32v256z" />
    <glyph glyph-name="E" unicode="E" 
d="M0 320v-32h32v-256h-32v-32h224v96h-32v-32h-32v-32h-64v128h32v-32h32v96h-32v-32h-32v96h64v-32h32v-32h32v96h-224z" />
    <glyph glyph-name="F" unicode="F" 
d="M0 320v-32h32v-256h-32v-32h128v32h-32v128h32v-32h32v96h-32v-32h-32v96h64v-32h32v-32h32v96h-224z" />
    <glyph glyph-name="G" unicode="G" 
d="M0 256h32v32h32v32h128v-32h32v-64h-32v32h-32v32h-64v-32h-32v-192h32v-32h96v-32h32v160h-128v-32h64v-128h-96v32h-32v32h-32v192z" />
    <glyph glyph-name="H" unicode="H" 
d="M0 320h64v-128h96v128h64v-320h-64v160h-96v-160h-64v320z" />
    <glyph glyph-name="I" unicode="I" 
d="M64 320v-32h32v-256h-32v-32h128v32h-32v256h32v32h-128z" />
    <glyph glyph-name="J" unicode="J" 
d="M96 320v-32h32v-256h-64v96h-64v-96h32v-32h128v32h32v256h32v32h-128z" />
    <glyph glyph-name="K" unicode="K" 
d="M0 320v-32h32v-256h-32v-32h96v128h32v-32h32v-96h64v96h-32v32h-32v64h32v32h32v96h-64v-96h-32v-32h-32v128h-96z" />
    <glyph glyph-name="L" unicode="L" 
d="M0 320v-32h32v-256h-32v-32h224v96h-32v-32h-32v-32h-64v256h32v32h-128z" />
    <glyph glyph-name="M" unicode="M" 
d="M0 320v-320h64v192h32v-32h32v32h32v-192h64v320h-64v-32h-32v-32h-32v32h-32v32h-64z" />
    <glyph glyph-name="N" unicode="N" 
d="M64 320v-32h32v-32h32v-32h32v96h64v-320h-64v128h-32v32h-32v32h-32v-192h-64v320h64z" />
    <glyph glyph-name="O" unicode="O" 
d="M0 288h32v32h160v-32h32v-256h-32v-32h-160v32h-32v256zM64 32h96v256h-96v-256z" />
    <glyph glyph-name="P" unicode="P" 
d="M0 320v-32h32v-256h-32v-32h128v32h-32v128h96v32h32v96h-32v32h-192zM96 288h64v-96h-64v96z" />
    <glyph glyph-name="Q" unicode="Q" 
d="M0 288h32v32h160v-32h32v-256h-32v-64h32v-32h-96v64h-96v32h-32v256zM64 32h32v64h32v-32h32v224h-96v-256z" />
    <glyph glyph-name="R" unicode="R" 
d="M0 320v-32h32v-256h-32v-32h96v160h32v-32h32v-128h64v128h-32v64h32v96h-32v32h-192zM96 288h64v-96h-64v96z" />
    <glyph glyph-name="S" unicode="S" 
d="M0 96v-64h32v-32h160v32h32v96h-32v32h-32v32h-64v32h-32v64h96v-64h64v64h-32v32h-160v-32h-32v-64h32v-32h32v-32h64v-32h32v-96h-96v64h-64z" />
    <glyph glyph-name="T" unicode="T" 
d="M32 320v-96h32v32h32v-224h-32v-32h128v32h-32v224h32v-32h32v96h-192z" />
    <glyph glyph-name="U" unicode="U" 
d="M0 320v-288h32v-32h160v32h32v288h-64v-288h-96v288h-64z" />
    <glyph glyph-name="V" unicode="V" 
d="M0 320v-224h32v-32h32v-32h32v-32h32v32h32v32h32v32h32v224h-64v-224h-32v-32h-32v32h-32v224h-64z" />
    <glyph glyph-name="W" unicode="W" 
d="M0 320v-288h32v-32h64v64h32v-64h64v32h32v288h-64v-224h-32v64h-32v-64h-32v224h-64z" />
    <glyph glyph-name="X" unicode="X" 
d="M0 320v-64h32v-64h32v-64h-32v-64h-32v-64h64v64h32v32h32v-32h32v-64h64v64h-32v64h-32v64h32v64h32v64h-64v-64h-32v-32h-32v32h-32v64h-64z" />
    <glyph glyph-name="Y" unicode="Y" 
d="M32 320v-128h32v-32h32v-128h-32v-32h128v32h-32v128h32v32h32v128h-64v-128h-64v128h-64z" />
    <glyph glyph-name="Z" unicode="Z" 
d="M0 224v96h224v-96h-32v-32h-32v-32h-32v-32h-32v-32h-32v-64h96v32h32v32h32v-96h-224v96h32v32h32v32h32v32h32v32h32v64h-96v-32h-32v-32h-32z" />
    <glyph glyph-name="bracketleft" unicode="[" 
d="M192 320h-128v-320h128v32h-64v256h64v32z" />
    <glyph glyph-name="backslash" unicode="\" 
d="M0 288v-96h32v-32h32v-32h32v-32h32v-32h32v-32h32v-32h32v96h-32v32h-32v32h-32v32h-32v32h-32v32h-32v32h-32z" />
    <glyph glyph-name="bracketright" unicode="]" 
d="M64 288h64v-256h-64v-32h128v320h-128v-32z" />
    <glyph glyph-name="asciicircum" unicode="^" 
d="M96 384v-32h-32v-32h-32v-32h-32v-32h64v32h32v32h32v-32h32v-32h64v32h-32v32h-32v32h-32v32h-32z" />
    <glyph glyph-name="underscore" unicode="_" 
d="M0 0v-32h224v32h-224z" />
    <glyph glyph-name="grave" unicode="`" 
d="M160 288h-64v32h-32v32h-32v32h64v-32h32v-32h32v-32z" />
    <glyph glyph-name="a" unicode="a" 
d="M0 32h32v-32h96v32h32v-32h64v32h-32v160h-32v32h-128v-32h96v-32h-96v-32h-32v-96zM128 128v-96h-64v96h64z" />
    <glyph glyph-name="b" unicode="b" 
d="M0 320v-32h32v-288h160v32h32v128h-32v32h-32v32h-64v96h-96zM128 192v-32h32v-128h-64v160h32z" />
    <glyph glyph-name="c" unicode="c" 
d="M0 192h32v32h160v-32h32v-32h-64v32h-96v-160h96v32h64v-32h-32v-32h-160v32h-32v160z" />
    <glyph glyph-name="d" unicode="d" 
d="M128 288v-64h-64v-32h-32v-32h-32v-128h32v-32h96v32h32v-32h64v32h-32v288h-96v-32h32zM128 192v-160h-64v128h32v32h32z" />
    <glyph glyph-name="e" unicode="e" 
d="M0 32h32v-32h160v32h32v32h-64v-32h-96v96h160v64h-32v32h-160v-32h-32v-160zM64 192h96v-32h-96v32z" />
    <glyph glyph-name="f" unicode="f" 
d="M0 32h32v128h-32v32h32v96h32v32h96v-32h32v-64h-32v32h-32v32h-32v-96h32v-32h-32v-128h32v-32h-128v32z" />
    <glyph glyph-name="g" unicode="g" 
d="M0 192h32v32h96v-32h32v32h64v-32h-32v-256h-32v-32h-128v32h-32v32h64v-32h64v64h-96v32h-32v160zM64 32h64v160h-64v-160z" />
    <glyph glyph-name="h" unicode="h" 
d="M0 320v-32h32v-256h-32v-32h96v160h32v32h32v-192h64v192h-32v32h-64v-32h-32v128h-96z" />
    <glyph glyph-name="i" unicode="i" 
d="M64 0v32h32v160h-32v32h96v-192h32v-32h-128zM96 256h64v64h-64v-64z" />
    <glyph glyph-name="j" unicode="j" 
d="M96 0v-64h64v256h-32v32h96v-288h-32v-32h-128v32h-32v64h64zM160 256h64v64h-64v-64z" />
    <glyph glyph-name="k" unicode="k" 
d="M0 320v-32h32v-256h-32v-32h96v96h32v-32h32v-64h64v64h-32v32h-32v64h32v32h32v32h-64v-32h-32v-32h-32v160h-96z" />
    <glyph glyph-name="l" unicode="l" 
d="M64 0v32h32v256h-32v32h96v-288h32v-32h-128z" />
    <glyph glyph-name="m" unicode="m" 
d="M0 0v224h96v-32h32v32h64v-32h32v-192h-64v160h-32v-128h-32v128h-32v-160h-64z" />
    <glyph glyph-name="n" unicode="n" 
d="M32 0v192h-32v32h64v-32h32v32h96v-32h32v-192h-64v192h-64v-192h-64z" />
    <glyph glyph-name="o" unicode="o" 
d="M0 32h32v-32h160v32h32v160h-32v32h-160v-32h-32v-160zM160 192v-160h-96v160h96z" />
    <glyph glyph-name="p" unicode="p" 
d="M0 224v-32h32v-256h-32v-32h128v32h-32v64h96v32h32v160h-32v32h-96v-32h-32v32h-64zM160 192v-160h-64v160h64z" />
    <glyph glyph-name="q" unicode="q" 
d="M160 224v-32h-32v32h-96v-32h-32v-160h32v-32h96v-64h-32v-32h128v32h-32v256h32v32h-64zM128 192v-160h-64v160h64z" />
    <glyph glyph-name="r" unicode="r" 
d="M0 224v-32h32v-160h-32v-32h128v32h-32v128h32v32h32v-64h64v64h-32v32h-96v-32h-32v32h-64z" />
    <glyph glyph-name="s" unicode="s" 
d="M0 64v-32h32v-32h160v32h32v32h-32v32h-32v32h-64v32h-32v32h96v-32h64v32h-32v32h-160v-32h-32v-32h32v-32h32v-32h64v-32h32v-32h-96v32h-64z" />
    <glyph glyph-name="t" unicode="t" 
d="M64 224v64h32v32h32v-96h64v-32h-64v-160h32v32h64v-32h-32v-32h-96v32h-32v160h-64v32h64z" />
    <glyph glyph-name="u" unicode="u" 
d="M0 224v-192h32v-32h96v32h32v-32h64v32h-32v192h-64v-192h-64v192h-64z" />
    <glyph glyph-name="v" unicode="v" 
d="M32 224v-160h32v-32h32v-32h64v32h32v32h32v160h-64v-160h-64v160h-64z" />
    <glyph glyph-name="w" unicode="w" 
d="M0 224v-192h32v-32h64v32h32v-32h64v32h32v192h-64v-160h-32v96h-32v-96h-32v160h-64z" />
    <glyph glyph-name="x" unicode="x" 
d="M0 224v-32h32v-32h32v-96h-32v-32h-32v-32h64v32h32v32h32v-32h32v-32h64v32h-32v32h-32v96h32v32h32v32h-64v-32h-32v-32h-32v32h-32v32h-64z" />
    <glyph glyph-name="y" unicode="y" 
d="M0 224v-192h32v-32h128v-32h-32v-32h-128v-32h160v32h32v32h32v256h-64v-192h-96v192h-64z" />
    <glyph glyph-name="z" unicode="z" 
d="M0 160v64h224v-32h-32v-32h-32v-32h-32v-32h-32v-32h-32v-32h96v32h64v-64h-224v64h32v32h32v32h32v32h32v32h-64v-32h-64z" />
    <glyph glyph-name="braceleft" unicode="{" 
d="M224 320h-96v-32h-32v-96h-64v-32h64v-128h32v-32h96v32h-64v128h-32v32h32v96h64v32z" />
    <glyph glyph-name="bar" unicode="|" 
d="M96 320v-128h64v128h-64zM96 160v-160h64v160h-64z" />
    <glyph glyph-name="braceright" unicode="}" 
d="M32 288h64v-96h32v-32h-32v-128h-64v-32h96v32h32v128h64v32h-64v96h-32v32h-96v-32z" />
    <glyph glyph-name="asciitilde" unicode="~" 
d="M0 288h64v32h32v-32h96v32h32v32h-64v-32h-32v32h-96v-32h-32v-32z" />
    <glyph glyph-name="uni00A0" unicode="&#xa0;" 
 />
    <glyph glyph-name="exclamdown" unicode="&#xa1;" 
d="M160 320v-64h-64v64h64zM160 224v-96h32v-96h-32v-32h-64v32h-32v96h32v96h64z" />
    <glyph glyph-name="cent" unicode="&#xa2;" 
d="M96 320v-64h-64v-32h-32v-128h32v-32h64v-64h64v64h32v32h32v32h-64v-32h-96v128h96v-32h64v32h-32v32h-32v64h-64z" />
    <glyph glyph-name="sterling" unicode="&#xa3;" 
d="M0 32v-32h192v32h32v32h-64v-32h-64v128h32v32h-32v96h32v-32h32v-32h32v64h-32v32h-96v-32h-32v-96h-32v-32h32v-128h-32z" />
    <glyph glyph-name="currency" unicode="&#xa4;" 
d="M32 32h-32v-32h64v32h96v-32h64v32h-32v32h32v128h-32v32h32v32h-64v-32h-96v32h-64v-32h32v-32h-32v-128h32v-32zM64 192h96v-128h-96v128z" />
    <glyph glyph-name="yen" unicode="&#xa5;" 
d="M32 320v-64h32v-32h32v-32h-64v-32h64v-32h-64v-32h64v-96h64v96h64v32h-64v32h64v32h-64v32h32v32h32v64h-64v-64h-64v64h-64z" />
    <glyph glyph-name="brokenbar" unicode="&#xa6;" 
d="M96 320v-128h64v128h-64zM96 160v-160h64v160h-64z" />
    <glyph glyph-name="section" unicode="&#xa7;" 
d="M0 0h32v-32h160v32h32v32h-32v32h-32v32h32v32h32v64h-32v32h-32v32h-64v32h-32v32h96v-32h64v32h-32v32h-160v-32h-32v-32h32v-32h32v-32h-32v-32h-32v-64h32v-32h32v-32h64v-32h32v-32h-96v32h-64v-32zM96 224h32v-32h32v-64h-32v-32h-32v32h-32v64h32v32z" />
    <glyph glyph-name="dieresis" unicode="&#xa8;" 
d="M0 352v32h64v-32h-64zM128 352v32h64v-32h-64z" />
    <glyph glyph-name="copyright" unicode="&#xa9;" 
d="M0 256h32v32h32v32h128v-32h32v-32h32v-160h-32v-32h-32v-32h-128v32h-32v32h-32v160zM32 256v-160h32v-32h128v32h32v160h-32v32h-128v-32h-32zM96 256h64v-32h32v-32h-32v32h-64v-96h64v32h32v-32h-32v-32h-64v32h-32v96h32v32z" />
    <glyph glyph-name="ordfeminine" unicode="&#xaa;" 
d="M64 352v-32h-32v-64h32v-32h160v32h-32v96h-128zM128 320v-64h-32v64h32zM32 192v-32h192v32h-192z" />
    <glyph glyph-name="guillemotleft" unicode="&#xab;" 
d="M0 160h32v32h32v32h64v-32h-32v-32h-32v-32h32v-32h32v-32h-64v32h-32v32h-32v32zM96 160h32v32h32v32h64v-32h-32v-32h-32v-32h32v-32h32v-32h-64v32h-32v32h-32v32z" />
    <glyph glyph-name="logicalnot" unicode="&#xac;" 
d="M0 224h224v-160h-64v128h-160v32z" />
    <glyph glyph-name="uni00AD" unicode="&#xad;" 
d="M0 128v32h224v-32h-224z" />
    <glyph glyph-name="registered" unicode="&#xae;" 
d="M0 256h32v32h32v32h128v-32h32v-32h32v-160h-32v-32h-32v-32h-128v32h-32v32h-32v160zM32 256v-160h32v-32h128v32h32v160h-32v32h-128v-32h-32zM64 256v-160h32v64h64v-64h32v64h-32v32h32v32h-32v32h-96zM96 224h64v-32h-64v32z" />
    <glyph glyph-name="macron" unicode="&#xaf;" 
d="M0 352v32h224v-32h-224z" />
    <glyph glyph-name="degree" unicode="&#xb0;" 
d="M64 352h96v-32h32v-64h-32v-32h-96v32h-32v64h32v32zM96 256h32v64h-32v-64z" />
    <glyph glyph-name="plusminus" unicode="&#xb1;" 
d="M32 224h64v64h64v-64h64v-32h-64v-64h-64v64h-64v32zM32 64v-32h192v32h-192z" />
    <glyph glyph-name="uni00B2" unicode="&#xb2;" 
d="M224 192v-64h-192v32h32v32h32v32h32v32h32v32h-64v-32h-64v32h32v32h128v-32h32v-32h-32v-32h-32v-32h-32v-32h64v32h32z" />
    <glyph glyph-name="uni00B3" unicode="&#xb3;" 
d="M192 128v32h32v64h-32v32h32v32h-32v32h-160v-32h128v-32h-96v-32h96v-64h-128v-32h160z" />
    <glyph glyph-name="acute" unicode="&#xb4;" 
d="M96 384h32v32h32v32h64v-32h-32v-32h-32v-32h-64v32z" />
    <glyph glyph-name="mu" unicode="&#xb5;" 
d="M0 -96v32h32v288h64v-192h64v192h64v-192h-32v-32h-96v-64h-32v-32h-64z" />
    <glyph glyph-name="paragraph" unicode="&#xb6;" 
d="M0 288v-96h32v-32h64v-160h64v288h32v-288h64v320h-224v-32h-32zM64 192v96h32v-96h-32z" />
    <glyph glyph-name="periodcentered" unicode="&#xb7;" 
d="M96 192h64v-64h-64v64z" />
    <glyph glyph-name="cedilla" unicode="&#xb8;" 
d="M160 0v-32h32v-32h-96v-32h128v32h32v32h-32v32h-64z" />
    <glyph glyph-name="uni00B9" unicode="&#xb9;" 
d="M64 129h128v32h-32v160h-64v-32h-32v-32h32v-96h-32v-32z" />
    <glyph glyph-name="ordmasculine" unicode="&#xba;" 
d="M64 352v-32h-32v-64h32v-32h96v32h32v64h-32v32h-96zM32 192v-32h160v32h-160zM96 320h32v-64h-32v64z" />
    <glyph glyph-name="guillemotright" unicode="&#xbb;" 
d="M224 128h-32v-32h-32v-32h-64v32h32v32h32v32h-32v32h-32v32h64v-32h32v-32h32v-32zM128 128h-32v-32h-32v-32h-64v32h32v32h32v32h-32v32h-32v32h64v-32h32v-32h32v-32z" />
    <glyph glyph-name="onequarter" unicode="&#xbc;" 
d="M32 384h64v-160h-64v96h-32v32h32v32zM0 64v64h32v32h32v32h32v32h32v32h32v32h32v32h32v-64h-32v-32h-32v-32h-32v-32h-32v-32h-32v-32h-32v-32h-32zM64 64h32v32h32v32h32v32h64v-96h32v-32h-32v-64h-64v64h-96v32zM160 64h32v32h-32v-32z" />
    <glyph glyph-name="onehalf" unicode="&#xbd;" 
d="M0 64v64h32v32h32v32h32v32h32v32h32v32h32v32h32v-64h-32v-32h-32v-32h-32v-32h-32v-32h-32v-32h-32v-32h-32zM192 128v-32h32v-32h-32v-32h-32v-32h64v-32h-160v32h32v32h32v32h32v32h-64v32h96zM32 384h64v-160h-64v96h-32v32h32v32z" />
    <glyph glyph-name="threequarters" unicode="&#xbe;" 
d="M0 64v64h32v32h32v32h32v32h32v32h32v32h32v32h32v-64h-32v-32h-32v-32h-32v-32h-32v-32h-32v-32h-32v-32h-32zM64 64h32v32h32v32h32v32h64v-96h32v-32h-32v-64h-64v64h-96v32zM0 384h96v-32h32v-32h-32v-32h32v-32h-32v-32h-96v32h64v32h-32v32h32v32h-64v32zM160 64
h32v32h-32v-32z" />
    <glyph glyph-name="questiondown" unicode="&#xbf;" 
d="M224 96v-64h-32v-32h-160v32h-32v96h32v32h32v64h64v-64h-32v-32h-32v-96h96v64h64zM128 256h-64v64h64v-64z" />
    <glyph glyph-name="Agrave" unicode="&#xc0;" 
d="M224 0h-64v128h-96v-128h-64v224h32v32h32v32h32v32h32v-32h32v-32h32v-32h32v-224zM160 160v64h-32v32h-32v-32h-32v-64h96zM64 352v32h-32v32h64v-32h32v-32h-64z" />
    <glyph glyph-name="Aacute" unicode="&#xc1;" 
d="M224 0h-64v128h-96v-128h-64v224h32v32h32v32h32v32h32v-32h32v-32h32v-32h32v-224zM160 160v64h-32v32h-32v-32h-32v-64h96zM96 352v32h32v32h64v-32h-32v-32h-64z" />
    <glyph glyph-name="Acircumflex" unicode="&#xc2;" 
d="M224 0h-64v128h-96v-128h-64v224h32v32h32v32h32v32h32v-32h32v-32h32v-32h32v-224zM160 160v64h-32v32h-32v-32h-32v-64h96zM32 352v32h32v32h96v-32h32v-32h-64v32h-32v-32h-64z" />
    <glyph glyph-name="Atilde" unicode="&#xc3;" 
d="M224 0h-64v128h-96v-128h-64v224h32v32h32v32h32v32h32v-32h32v-32h32v-32h32v-224zM160 160v64h-32v32h-32v-32h-32v-64h96zM0 352h64v32h32v-32h96v32h32v32h-64v-32h-32v32h-96v-32h-32v-32z" />
    <glyph glyph-name="Adieresis" unicode="&#xc4;" 
d="M224 0h-64v128h-96v-128h-64v224h32v32h32v32h32v32h32v-32h32v-32h32v-32h32v-224zM160 160v64h-32v32h-32v-32h-32v-64h96zM32 352v32h64v-32h-64zM128 352v32h64v-32h-64z" />
    <glyph glyph-name="Aring" unicode="&#xc5;" 
d="M224 0h-64v128h-96v-128h-64v224h32v32h32v32h32v32h32v-32h32v-32h32v-32h32v-224zM160 160v64h-32v32h-32v-32h-32v-64h96zM32 352h32v-32h96v32h32v32h-32v32h-96v-32h-32v-32zM96 384h32v-32h-32v32z" />
    <glyph glyph-name="AE" unicode="&#xc6;" 
d="M0 0v256h32v32h32v32h160v-32h-32v-96h32v-32h-32v-128h32v-32h-96v160h-64v-160h-64zM64 192h64v96h-32v-32h-32v-64z" />
    <glyph glyph-name="Ccedilla" unicode="&#xc7;" 
d="M0 256h32v32h32v32h128v-32h32v-64h-32v32h-32v32h-64v-32h-32v-192h32v-32h64v32h32v32h32v-64h-32v-32h-128v32h-32v32h-32v192zM96 0v-32h32v-32h-96v-32h128v32h32v32h-32v32h-64z" />
    <glyph glyph-name="Egrave" unicode="&#xc8;" 
d="M0 320v-32h32v-256h-32v-32h224v96h-32v-32h-32v-32h-64v128h32v-32h32v96h-32v-32h-32v96h64v-32h32v-32h32v96h-224zM64 352v32h-32v32h64v-32h32v-32h-64z" />
    <glyph glyph-name="Eacute" unicode="&#xc9;" 
d="M0 320v-32h32v-256h-32v-32h224v96h-32v-32h-32v-32h-64v128h32v-32h32v96h-32v-32h-32v96h64v-32h32v-32h32v96h-224zM96 352v32h32v32h64v-32h-32v-32h-64z" />
    <glyph glyph-name="Ecircumflex" unicode="&#xca;" 
d="M0 320v-32h32v-256h-32v-32h224v96h-32v-32h-32v-32h-64v128h32v-32h32v96h-32v-32h-32v96h64v-32h32v-32h32v96h-224zM32 352v32h32v32h96v-32h32v-32h-64v32h-32v-32h-64z" />
    <glyph glyph-name="Edieresis" unicode="&#xcb;" 
d="M0 320v-32h32v-256h-32v-32h224v96h-32v-32h-32v-32h-64v128h32v-32h32v96h-32v-32h-32v96h64v-32h32v-32h32v96h-224zM32 352v32h64v-32h-64zM128 352v32h64v-32h-64z" />
    <glyph glyph-name="Igrave" unicode="&#xcc;" 
d="M64 320v-32h32v-256h-32v-32h128v32h-32v256h32v32h-128zM96 352v32h-32v32h64v-32h32v-32h-64z" />
    <glyph glyph-name="Iacute" unicode="&#xcd;" 
d="M64 320v-32h32v-256h-32v-32h128v32h-32v256h32v32h-128zM96 352v32h32v32h64v-32h-32v-32h-64z" />
    <glyph glyph-name="Icircumflex" unicode="&#xce;" 
d="M64 320v-32h32v-256h-32v-32h128v32h-32v256h32v32h-128zM32 352v32h32v32h96v-32h32v-32h-64v32h-32v-32h-64z" />
    <glyph glyph-name="Idieresis" unicode="&#xcf;" 
d="M64 320v-32h32v-256h-32v-32h128v32h-32v256h32v32h-128zM32 352v32h64v-32h-64zM160 352v32h64v-32h-64z" />
    <glyph glyph-name="Eth" unicode="&#xd0;" 
d="M0 320v-32h32v-96h-32v-32h32v-128h-32v-32h160v32h32v32h32v192h-32v32h-32v32h-160zM96 288h32v-32h32v-192h-32v-32h-32v128h32v32h-32v96z" />
    <glyph glyph-name="Ntilde" unicode="&#xd1;" 
d="M64 320v-32h32v-32h32v-32h32v96h64v-320h-64v128h-32v32h-32v32h-32v-192h-64v320h64zM0 352h64v32h32v-32h96v32h32v32h-64v-32h-32v32h-96v-32h-32v-32z" />
    <glyph glyph-name="Ograve" unicode="&#xd2;" 
d="M0 288h32v32h160v-32h32v-256h-32v-32h-160v32h-32v256zM64 32h96v256h-96v-256zM64 352v32h-32v32h64v-32h32v-32h-64z" />
    <glyph glyph-name="Oacute" unicode="&#xd3;" 
d="M0 288h32v32h160v-32h32v-256h-32v-32h-160v32h-32v256zM64 32h96v256h-96v-256zM96 352v32h32v32h64v-32h-32v-32h-64z" />
    <glyph glyph-name="Ocircumflex" unicode="&#xd4;" 
d="M0 288h32v32h160v-32h32v-256h-32v-32h-160v32h-32v256zM64 32h96v256h-96v-256zM32 352v32h32v32h96v-32h32v-32h-64v32h-32v-32h-64z" />
    <glyph glyph-name="Otilde" unicode="&#xd5;" 
d="M0 288h32v32h160v-32h32v-256h-32v-32h-160v32h-32v256zM64 32h96v256h-96v-256zM0 352h64v32h32v-32h96v32h32v32h-64v-32h-32v32h-96v-32h-32v-32z" />
    <glyph glyph-name="Odieresis" unicode="&#xd6;" 
d="M0 288h32v32h160v-32h32v-256h-32v-32h-160v32h-32v256zM64 32h96v256h-96v-256zM32 352v32h64v-32h-64zM128 352v32h64v-32h-64z" />
    <glyph glyph-name="multiply" unicode="&#xd7;" 
d="M0 64h64v32h32v32h32v-32h32v-32h64v32h-32v32h-32v64h32v32h32v32h-64v-32h-32v-32h-32v32h-32v32h-64v-32h32v-32h32v-64h-32v-32h-32v-32z" />
    <glyph glyph-name="Oslash" unicode="&#xd8;" 
d="M0 288h32v32h128v32h32v-64h32v-256h-32v-32h-128v-32h-32v64h-32v256zM96 32h64v192h-32v-128h-32v-64zM128 288h-64v-192h32v128h32v64z" />
    <glyph glyph-name="Ugrave" unicode="&#xd9;" 
d="M0 320v-288h32v-32h160v32h32v288h-64v-288h-96v288h-64zM64 352v32h-32v32h64v-32h32v-32h-64z" />
    <glyph glyph-name="Uacute" unicode="&#xda;" 
d="M0 320v-288h32v-32h160v32h32v288h-64v-288h-96v288h-64zM96 352v32h32v32h64v-32h-32v-32h-64z" />
    <glyph glyph-name="Ucircumflex" unicode="&#xdb;" 
d="M0 320v-288h32v-32h160v32h32v288h-64v-288h-96v288h-64zM32 352v32h32v32h96v-32h32v-32h-64v32h-32v-32h-64z" />
    <glyph glyph-name="Udieresis" unicode="&#xdc;" 
d="M0 320v-288h32v-32h160v32h32v288h-64v-288h-96v288h-64zM32 352v32h64v-32h-64zM128 352v32h64v-32h-64z" />
    <glyph glyph-name="Yacute" unicode="&#xdd;" 
d="M32 320v-128h32v-32h32v-128h-32v-32h128v32h-32v128h32v32h32v128h-64v-128h-64v128h-64zM96 352v32h32v32h64v-32h-32v-32h-64z" />
    <glyph glyph-name="Thorn" unicode="&#xde;" 
d="M0 32v-32h128v32h-32v32h96v32h32v128h-32v32h-96v32h32v32h-128v-32h32v-256h-32zM96 224h64v-128h-64v128z" />
    <glyph glyph-name="germandbls" unicode="&#xdf;" 
d="M0 0v288h32v32h128v-32h32v-96h-32v-32h32v-32h32v-96h-32v-32h-64v32h32v96h-32v32h-32v32h32v96h-64v-288h-64z" />
    <glyph glyph-name="agrave" unicode="&#xe0;" 
d="M0 32h32v-32h96v32h32v-32h64v32h-32v160h-32v32h-128v-32h96v-32h-96v-32h-32v-96zM128 128v-96h-64v96h64zM160 256h-64v32h-32v32h-32v32h64v-32h32v-32h32v-32z" />
    <glyph glyph-name="aacute" unicode="&#xe1;" 
d="M0 32h32v-32h96v32h32v-32h64v32h-32v160h-32v32h-128v-32h96v-32h-96v-32h-32v-96zM128 128v-96h-64v96h64zM64 288h32v32h32v32h64v-32h-32v-32h-32v-32h-64v32z" />
    <glyph glyph-name="acircumflex" unicode="&#xe2;" 
d="M0 32h32v-32h96v32h32v-32h64v32h-32v160h-32v32h-128v-32h96v-32h-96v-32h-32v-96zM128 128v-96h-64v96h64zM32 256v32h32v32h32v32h32v-32h32v-32h32v-32h-64v32h-32v-32h-64z" />
    <glyph glyph-name="atilde" unicode="&#xe3;" 
d="M0 32h32v-32h96v32h32v-32h64v32h-32v160h-32v32h-128v-32h96v-32h-96v-32h-32v-96zM128 128v-96h-64v96h64zM0 256h64v32h32v-32h96v32h32v32h-64v-32h-32v32h-96v-32h-32v-32z" />
    <glyph glyph-name="adieresis" unicode="&#xe4;" 
d="M0 32h32v-32h96v32h32v-32h64v32h-32v160h-32v32h-128v-32h96v-32h-96v-32h-32v-96zM128 128v-96h-64v96h64zM0 256v32h64v-32h-64zM128 256v32h64v-32h-64z" />
    <glyph glyph-name="aring" unicode="&#xe5;" 
d="M0 32h32v-32h96v32h32v-32h64v32h-32v160h-32v32h-128v-32h96v-32h-96v-32h-32v-96zM128 128v-96h-64v96h64zM32 288h32v-32h96v32h32v32h-32v32h-96v-32h-32v-32zM96 320h32v-32h-32v32z" />
    <glyph glyph-name="ae" unicode="&#xe6;" 
d="M0 32h32v-32h64v32h32v-32h96v32h-64v64h64v96h-32v32h-64v-32h-64v32h-64v-32h32v-32h32v-32h-32v-32h-32v-64zM160 192v-64h-32v64h32zM64 32v64h32v-64h-32z" />
    <glyph glyph-name="ccedilla" unicode="&#xe7;" 
d="M0 192h32v32h160v-32h32v-32h-64v32h-96v-160h96v32h64v-32h-32v-32h-160v32h-32v160zM96 0v-32h32v-32h-96v-32h128v32h32v32h-32v32h-64z" />
    <glyph glyph-name="egrave" unicode="&#xe8;" 
d="M0 32h32v-32h160v32h32v32h-64v-32h-96v96h160v64h-32v32h-160v-32h-32v-160zM64 192h96v-32h-96v32zM160 256h-64v32h-32v32h-32v32h64v-32h32v-32h32v-32z" />
    <glyph glyph-name="eacute" unicode="&#xe9;" 
d="M0 32h32v-32h160v32h32v32h-64v-32h-96v96h160v64h-32v32h-160v-32h-32v-160zM64 192h96v-32h-96v32zM64 288h32v32h32v32h64v-32h-32v-32h-32v-32h-64v32z" />
    <glyph glyph-name="ecircumflex" unicode="&#xea;" 
d="M0 32h32v-32h160v32h32v32h-64v-32h-96v96h160v64h-32v32h-160v-32h-32v-160zM64 192h96v-32h-96v32zM32 256v32h32v32h32v32h32v-32h32v-32h32v-32h-64v32h-32v-32h-64z" />
    <glyph glyph-name="edieresis" unicode="&#xeb;" 
d="M0 32h32v-32h160v32h32v32h-64v-32h-96v96h160v64h-32v32h-160v-32h-32v-160zM64 192h96v-32h-96v32zM32 256v32h64v-32h-64zM128 256v32h64v-32h-64z" />
    <glyph glyph-name="igrave" unicode="&#xec;" 
d="M64 0v32h32v160h-32v32h96v-192h32v-32h-128zM160 256h-64v32h-32v32h-32v32h64v-32h32v-32h32v-32z" />
    <glyph glyph-name="iacute" unicode="&#xed;" 
d="M64 0v32h32v160h-32v32h96v-192h32v-32h-128zM64 288h32v32h32v32h64v-32h-32v-32h-32v-32h-64v32z" />
    <glyph glyph-name="icircumflex" unicode="&#xee;" 
d="M64 0v32h32v160h-32v32h96v-192h32v-32h-128zM32 256v32h32v32h32v32h32v-32h32v-32h32v-32h-64v32h-32v-32h-64z" />
    <glyph glyph-name="idieresis" unicode="&#xef;" 
d="M64 0v32h32v160h-32v32h96v-192h32v-32h-128zM32 256v32h64v-32h-64zM160 256v32h64v-32h-64z" />
    <glyph glyph-name="eth" unicode="&#xf0;" 
d="M0 32h32v-32h128v32h32v192h-32v32h-32v32h32v32h-32v-32h-32v32h-64v-32h32v-32h-32v-32h32v32h32v-32h32v-32h-96v-32h-32v-128zM64 160h64v-128h-64v128z" />
    <glyph glyph-name="ntilde" unicode="&#xf1;" 
d="M32 0v192h-32v32h64v-32h32v32h96v-32h32v-192h-64v192h-64v-192h-64zM0 256h64v32h32v-32h96v32h32v32h-64v-32h-32v32h-96v-32h-32v-32z" />
    <glyph glyph-name="ograve" unicode="&#xf2;" 
d="M0 32h32v-32h160v32h32v160h-32v32h-160v-32h-32v-160zM160 192v-160h-96v160h96zM160 256h-64v32h-32v32h-32v32h64v-32h32v-32h32v-32z" />
    <glyph glyph-name="oacute" unicode="&#xf3;" 
d="M0 32h32v-32h160v32h32v160h-32v32h-160v-32h-32v-160zM160 192v-160h-96v160h96zM64 288h32v32h32v32h64v-32h-32v-32h-32v-32h-64v32z" />
    <glyph glyph-name="ocircumflex" unicode="&#xf4;" 
d="M0 32h32v-32h160v32h32v160h-32v32h-160v-32h-32v-160zM160 192v-160h-96v160h96zM32 256v32h32v32h32v32h32v-32h32v-32h32v-32h-64v32h-32v-32h-64z" />
    <glyph glyph-name="otilde" unicode="&#xf5;" 
d="M0 32h32v-32h160v32h32v160h-32v32h-160v-32h-32v-160zM160 192v-160h-96v160h96zM0 256h64v32h32v-32h96v32h32v32h-64v-32h-32v32h-96v-32h-32v-32z" />
    <glyph glyph-name="odieresis" unicode="&#xf6;" 
d="M0 32h32v-32h160v32h32v160h-32v32h-160v-32h-32v-160zM160 192v-160h-96v160h96zM32 256v32h64v-32h-64zM128 256v32h64v-32h-64z" />
    <glyph glyph-name="divide" unicode="&#xf7;" 
d="M32 192v-32h192v32h-192zM96 224h64v32h-64v-32zM96 96h64v32h-64v-32z" />
    <glyph glyph-name="oslash" unicode="&#xf8;" 
d="M0 32h32v-64h32v32h128v32h32v160h-32v64h-32v-32h-128v-32h-32v-160zM128 192v-32h-32v-96h-32v128h64zM96 32v32h32v96h32v-128h-64z" />
    <glyph glyph-name="ugrave" unicode="&#xf9;" 
d="M0 224v-192h32v-32h96v32h32v-32h64v32h-32v192h-64v-192h-64v192h-64zM160 256h-64v32h-32v32h-32v32h64v-32h32v-32h32v-32z" />
    <glyph glyph-name="uacute" unicode="&#xfa;" 
d="M0 224v-192h32v-32h96v32h32v-32h64v32h-32v192h-64v-192h-64v192h-64zM64 288h32v32h32v32h64v-32h-32v-32h-32v-32h-64v32z" />
    <glyph glyph-name="ucircumflex" unicode="&#xfb;" 
d="M0 224v-192h32v-32h96v32h32v-32h64v32h-32v192h-64v-192h-64v192h-64zM32 256v32h32v32h32v32h32v-32h32v-32h32v-32h-64v32h-32v-32h-64z" />
    <glyph glyph-name="udieresis" unicode="&#xfc;" 
d="M0 224v-192h32v-32h96v32h32v-32h64v32h-32v192h-64v-192h-64v192h-64zM0 256v32h64v-32h-64zM128 256v32h64v-32h-64z" />
    <glyph glyph-name="yacute" unicode="&#xfd;" 
d="M0 224v-192h32v-32h128v-32h-32v-32h-128v-32h160v32h32v32h32v256h-64v-192h-96v192h-64zM64 288h32v32h32v32h64v-32h-32v-32h-32v-32h-64v32z" />
    <glyph glyph-name="thorn" unicode="&#xfe;" 
d="M0 320v-32h32v-352h-32v-32h128v32h-32v64h96v32h32v160h-32v32h-96v96h-96zM160 192v-160h-64v160h64z" />
    <glyph glyph-name="ydieresis" unicode="&#xff;" 
d="M0 224v-192h32v-32h128v-32h-32v-32h-128v-32h160v32h32v32h32v256h-64v-192h-96v192h-64zM32 256v32h64v-32h-64zM128 256v32h64v-32h-64z" />
    <glyph glyph-name="Amacron" unicode="&#x100;" 
d="M224 0h-64v128h-96v-128h-64v224h32v32h32v32h32v32h32v-32h32v-32h32v-32h32v-224zM160 160v64h-32v32h-32v-32h-32v-64h96zM0 352v32h224v-32h-224z" />
    <glyph glyph-name="amacron" unicode="&#x101;" 
d="M0 32h32v-32h96v32h32v-32h64v32h-32v160h-32v32h-128v-32h96v-32h-96v-32h-32v-96zM128 128v-96h-64v96h64zM0 256v32h224v-32h-224z" />
    <glyph glyph-name="Abreve" unicode="&#x102;" 
d="M224 0h-64v128h-96v-128h-64v224h32v32h32v32h32v32h32v-32h32v-32h32v-32h32v-224zM160 160v64h-32v32h-32v-32h-32v-64h96zM0 416v-32h32v-32h160v32h32v32h-64v-32h-96v32h-64z" />
    <glyph glyph-name="abreve" unicode="&#x103;" 
d="M0 32h32v-32h96v32h32v-32h64v32h-32v160h-32v32h-128v-32h96v-32h-96v-32h-32v-96zM128 128v-96h-64v96h64zM0 320v-32h32v-32h128v32h32v32h-64v-32h-64v32h-64z" />
    <glyph glyph-name="Aogonek" unicode="&#x104;" 
d="M224 0h-64v128h-96v-128h-64v224h32v32h32v32h32v32h32v-32h32v-32h32v-32h32v-224zM160 160v64h-32v32h-32v-32h-32v-64h96zM160 0h-64v-32h-32v-32h32v-32h128v32h-96v32h32v32z" />
    <glyph glyph-name="aogonek" unicode="&#x105;" 
d="M0 32h32v-32h96v32h32v-32h64v32h-32v160h-32v32h-128v-32h96v-32h-96v-32h-32v-96zM128 128v-96h-64v96h64zM160 0h-64v-32h-32v-32h32v-32h128v32h-96v32h32v32z" />
    <glyph glyph-name="Cacute" unicode="&#x106;" 
d="M0 256h32v32h32v32h128v-32h32v-64h-32v32h-32v32h-64v-32h-32v-192h32v-32h64v32h32v32h32v-64h-32v-32h-128v32h-32v32h-32v192zM96 352v32h32v32h64v-32h-32v-32h-64z" />
    <glyph glyph-name="cacute" unicode="&#x107;" 
d="M0 192h32v32h160v-32h32v-32h-64v32h-96v-160h96v32h64v-32h-32v-32h-160v32h-32v160zM64 288h32v32h32v32h64v-32h-32v-32h-32v-32h-64v32z" />
    <glyph glyph-name="Ccircumflex" unicode="&#x108;" 
d="M0 256h32v32h32v32h128v-32h32v-64h-32v32h-32v32h-64v-32h-32v-192h32v-32h64v32h32v32h32v-64h-32v-32h-128v32h-32v32h-32v192zM32 352v32h32v32h96v-32h32v-32h-64v32h-32v-32h-64z" />
    <glyph glyph-name="ccircumflex" unicode="&#x109;" 
d="M0 192h32v32h160v-32h32v-32h-64v32h-96v-160h96v32h64v-32h-32v-32h-160v32h-32v160zM32 256v32h32v32h32v32h32v-32h32v-32h32v-32h-64v32h-32v-32h-64z" />
    <glyph glyph-name="Cdotaccent" unicode="&#x10a;" 
d="M0 256h32v32h32v32h128v-32h32v-64h-32v32h-32v32h-64v-32h-32v-192h32v-32h64v32h32v32h32v-64h-32v-32h-128v32h-32v32h-32v192zM96 416v-64h64v64h-64z" />
    <glyph glyph-name="cdotaccent" unicode="&#x10b;" 
d="M0 192h32v32h160v-32h32v-32h-64v32h-96v-160h96v32h64v-32h-32v-32h-160v32h-32v160zM96 320v-64h64v64h-64z" />
    <glyph glyph-name="Ccaron" unicode="&#x10c;" 
d="M0 256h32v32h32v32h128v-32h32v-64h-32v32h-32v32h-64v-32h-32v-192h32v-32h64v32h32v32h32v-64h-32v-32h-128v32h-32v32h-32v192zM96 416v-32h32v32h64v-32h-32v-32h-96v32h-32v32h64z" />
    <glyph glyph-name="ccaron" unicode="&#x10d;" 
d="M0 192h32v32h160v-32h32v-32h-64v32h-96v-160h96v32h64v-32h-32v-32h-160v32h-32v160zM96 352v-32h32v32h64v-32h-32v-32h-32v-32h-32v32h-32v32h-32v32h64z" />
    <glyph glyph-name="Dcaron" unicode="&#x10e;" 
d="M0 320v-32h32v-256h-32v-32h160v32h32v32h32v192h-32v32h-32v32h-160zM96 288h32v-32h32v-192h-32v-32h-32v256zM96 416v-32h32v32h64v-32h-32v-32h-96v32h-32v32h64z" />
    <glyph glyph-name="dcaron" unicode="&#x10f;" 
d="M96 288v-64h-64v-32h-32v-160h32v-32h64v32h32v-32h64v32h-32v288h-96v-32h32zM96 192v-160h-32v160h32zM224 256v-32h-32v32h32v32h-32v32h64v-64h-32z" />
    <glyph glyph-name="Dcroat" unicode="&#x110;" 
d="M0 320v-32h32v-96h-32v-32h32v-128h-32v-32h160v32h32v32h32v192h-32v32h-32v32h-160zM96 288h32v-32h32v-192h-32v-32h-32v128h32v32h-32v96z" />
    <glyph glyph-name="dcroat" unicode="&#x111;" 
d="M128 320v-32h-96v-32h96v-32h-64v-32h-32v-32h-32v-128h32v-32h96v32h32v-32h64v32h-32v224h32v32h-32v32h-64zM128 192v-160h-64v128h32v32h32z" />
    <glyph glyph-name="Emacron" unicode="&#x112;" 
d="M0 320v-32h32v-256h-32v-32h224v96h-32v-32h-32v-32h-64v128h32v-32h32v96h-32v-32h-32v96h64v-32h32v-32h32v96h-224zM0 352v32h224v-32h-224z" />
    <glyph glyph-name="emacron" unicode="&#x113;" 
d="M0 32h32v-32h160v32h32v32h-64v-32h-96v96h160v64h-32v32h-160v-32h-32v-160zM64 192h96v-32h-96v32zM0 256v32h224v-32h-224z" />
    <glyph glyph-name="Ebreve" unicode="&#x114;" 
d="M0 320v-32h32v-256h-32v-32h224v96h-32v-32h-32v-32h-64v128h32v-32h32v96h-32v-32h-32v96h64v-32h32v-32h32v96h-224zM0 416v-32h32v-32h160v32h32v32h-64v-32h-96v32h-64z" />
    <glyph glyph-name="ebreve" unicode="&#x115;" 
d="M0 32h32v-32h160v32h32v32h-64v-32h-96v96h160v64h-32v32h-160v-32h-32v-160zM64 192h96v-32h-96v32zM0 320v-32h32v-32h160v32h32v32h-64v-32h-96v32h-64z" />
    <glyph glyph-name="Edotaccent" unicode="&#x116;" 
d="M0 320v-32h32v-256h-32v-32h224v96h-32v-32h-32v-32h-64v128h32v-32h32v96h-32v-32h-32v96h64v-32h32v-32h32v96h-224zM96 416v-64h64v64h-64z" />
    <glyph glyph-name="edotaccent" unicode="&#x117;" 
d="M0 32h32v-32h160v32h32v32h-64v-32h-96v96h160v64h-32v32h-160v-32h-32v-160zM64 192h96v-32h-96v32zM96 320v-64h64v64h-64z" />
    <glyph glyph-name="Eogonek" unicode="&#x118;" 
d="M0 320v-32h32v-256h-32v-32h224v96h-32v-32h-32v-32h-64v128h32v-32h32v96h-32v-32h-32v96h64v-32h32v-32h32v96h-224zM160 0h-64v-32h-32v-32h32v-32h128v32h-96v32h32v32z" />
    <glyph glyph-name="eogonek" unicode="&#x119;" 
d="M0 32h32v-32h160v32h32v32h-64v-32h-96v96h160v64h-32v32h-160v-32h-32v-160zM64 192h96v-32h-96v32zM160 0h-64v-32h-32v-32h32v-32h128v32h-96v32h32v32z" />
    <glyph glyph-name="Ecaron" unicode="&#x11a;" 
d="M0 320v-32h32v-256h-32v-32h224v96h-32v-32h-32v-32h-64v128h32v-32h32v96h-32v-32h-32v96h64v-32h32v-32h32v96h-224zM96 416v-32h32v32h64v-32h-32v-32h-96v32h-32v32h64z" />
    <glyph glyph-name="ecaron" unicode="&#x11b;" 
d="M0 32h32v-32h160v32h32v32h-64v-32h-96v96h160v64h-32v32h-160v-32h-32v-160zM64 192h96v-32h-96v32zM96 352v-32h32v32h64v-32h-32v-32h-32v-32h-32v32h-32v32h-32v32h64z" />
    <glyph glyph-name="Gcircumflex" unicode="&#x11c;" 
d="M0 256h32v32h32v32h128v-32h32v-64h-32v32h-32v32h-64v-32h-32v-192h32v-32h96v-32h32v160h-128v-32h64v-128h-96v32h-32v32h-32v192zM32 352v32h32v32h96v-32h32v-32h-64v32h-32v-32h-64z" />
    <glyph glyph-name="gcircumflex" unicode="&#x11d;" 
d="M0 192h32v32h96v-32h32v32h64v-32h-32v-256h-32v-32h-128v32h-32v32h64v-32h64v64h-96v32h-32v160zM64 32h64v160h-64v-160zM32 256v32h32v32h32v32h32v-32h32v-32h32v-32h-64v32h-32v-32h-64z" />
    <glyph glyph-name="Gbreve" unicode="&#x11e;" 
d="M0 256h32v32h32v32h128v-32h32v-64h-32v32h-32v32h-64v-32h-32v-192h32v-32h96v-32h32v160h-128v-32h64v-128h-96v32h-32v32h-32v192zM32 416v-32h32v-32h128v32h32v32h-64v-32h-64v32h-64z" />
    <glyph glyph-name="gbreve" unicode="&#x11f;" 
d="M0 192h32v32h96v-32h32v32h64v-32h-32v-256h-32v-32h-128v32h-32v32h64v-32h64v64h-96v32h-32v160zM64 32h64v160h-64v-160zM0 320v-32h32v-32h160v32h32v32h-64v-32h-96v32h-64z" />
    <glyph glyph-name="Gdotaccent" unicode="&#x120;" 
d="M0 256h32v32h32v32h128v-32h32v-64h-32v32h-32v32h-64v-32h-32v-192h32v-32h96v-32h32v160h-128v-32h64v-128h-96v32h-32v32h-32v192zM96 416v-64h64v64h-64z" />
    <glyph glyph-name="gdotaccent" unicode="&#x121;" 
d="M0 192h32v32h96v-32h32v32h64v-32h-32v-256h-32v-32h-128v32h-32v32h64v-32h64v64h-96v32h-32v160zM64 32h64v160h-64v-160zM96 320v-64h64v64h-64z" />
    <glyph glyph-name="uni0122" unicode="&#x122;" 
d="M0 256h32v32h32v32h128v-32h32v-64h-32v32h-32v32h-64v-32h-32v-192h32v-32h96v-32h32v160h-128v-32h64v-128h-96v32h-32v32h-32v192zM128 -64v-32h-32v32h32v32h-32v32h64v-64h-32z" />
    <glyph glyph-name="uni0123" unicode="&#x123;" 
d="M0 192h32v32h96v-32h32v32h64v-32h-32v-256h-32v-32h-128v32h-32v32h64v-32h64v64h-96v32h-32v160zM64 32h64v160h-64v-160zM32 320v32h32v-32h-32v-32h32v-32h-64v64h32z" />
    <glyph glyph-name="Hcircumflex" unicode="&#x124;" 
d="M0 320h64v-128h96v128h64v-320h-64v160h-96v-160h-64v320zM32 352v32h32v32h96v-32h32v-32h-64v32h-32v-32h-64z" />
    <glyph glyph-name="hcircumflex" unicode="&#x125;" 
d="M0 320v-32h32v-256h-32v-32h96v160h32v32h32v-192h64v192h-32v32h-64v-32h-32v128h-96zM32 352v32h32v32h96v-32h32v-32h-64v32h-32v-32h-64z" />
    <glyph glyph-name="Hbar" unicode="&#x126;" 
d="M32 320h64v-32h64v32h64v-32h32v-32h-32v-256h-64v160h-64v-160h-64v256h-32v32h32v32zM96 192h64v64h-64v-64z" />
    <glyph glyph-name="hbar" unicode="&#x127;" 
d="M0 288v-32h32v-224h-32v-32h96v160h32v32h32v-192h64v192h-32v32h-64v-32h-32v64h96v32h-96v32h-64v-32h-32z" />
    <glyph glyph-name="Itilde" unicode="&#x128;" 
d="M64 320v-32h32v-256h-32v-32h128v32h-32v256h32v32h-128zM0 352h64v32h32v-32h96v32h32v32h-64v-32h-32v32h-96v-32h-32v-32z" />
    <glyph glyph-name="itilde" unicode="&#x129;" 
d="M64 0v32h32v160h-32v32h96v-192h32v-32h-128zM0 256h64v32h32v-32h96v32h32v32h-64v-32h-32v32h-96v-32h-32v-32z" />
    <glyph glyph-name="Imacron" unicode="&#x12a;" 
d="M64 320v-32h32v-256h-32v-32h128v32h-32v256h32v32h-128zM32 352v32h192v-32h-192z" />
    <glyph glyph-name="imacron" unicode="&#x12b;" 
d="M64 0v32h32v160h-32v32h96v-192h32v-32h-128zM0 256v32h224v-32h-224z" />
    <glyph glyph-name="Ibreve" unicode="&#x12c;" 
d="M64 320v-32h32v-256h-32v-32h128v32h-32v256h32v32h-128zM32 416v-32h32v-32h128v32h32v32h-64v-32h-64v32h-64z" />
    <glyph glyph-name="ibreve" unicode="&#x12d;" 
d="M64 0v32h32v160h-32v32h96v-192h32v-32h-128zM0 320v-32h32v-32h160v32h32v32h-64v-32h-96v32h-64z" />
    <glyph glyph-name="Iogonek" unicode="&#x12e;" 
d="M64 320v-32h32v-256h-32v-32h128v32h-32v256h32v32h-128zM160 0h-64v-32h-32v-32h32v-32h128v32h-96v32h32v32z" />
    <glyph glyph-name="iogonek" unicode="&#x12f;" 
d="M64 0v32h32v160h-32v32h96v-192h32v-32h-128zM96 256h64v64h-64v-64zM160 0h-64v-32h-32v-32h32v-32h128v32h-96v32h32v32z" />
    <glyph glyph-name="Idotaccent" unicode="&#x130;" 
d="M64 320v-32h32v-256h-32v-32h128v32h-32v256h32v32h-128zM96 416v-64h64v64h-64z" />
    <glyph glyph-name="dotlessi" unicode="&#x131;" 
d="M64 0v32h32v160h-32v32h96v-192h32v-32h-128z" />
    <glyph glyph-name="IJ" unicode="&#x132;" 
d="M64 320v-320h-64v320h64zM224 320v-288h-32v-32h-88v32h-40v64h64v-64h32v288h64z" />
    <glyph glyph-name="ij" unicode="&#x133;" 
d="M0 0v32h32v160h-32v32h96v-192h32v-32h-128zM32 256h64v64h-64v-64zM96 -32h64v224h-32v32h96v-256h-32v-32h-96v32zM160 256h64v64h-64v-64z" />
    <glyph glyph-name="Jcircumflex" unicode="&#x134;" 
d="M96 320v-32h32v-256h-64v96h-64v-96h32v-32h128v32h32v256h32v32h-128zM64 352v32h32v32h96v-32h32v-32h-64v32h-32v-32h-64z" />
    <glyph glyph-name="jcircumflex" unicode="&#x135;" 
d="M96 0v-64h64v256h-32v32h96v-288h-32v-32h-128v32h-32v64h64zM96 256v32h32v32h32v32h32v-32h32v-32h32v-32h-64v32h-32v-32h-64z" />
    <glyph glyph-name="uni0136" unicode="&#x136;" 
d="M0 320v-32h32v-256h-32v-32h96v128h32v-32h32v-96h64v96h-32v32h-32v64h32v32h32v96h-64v-96h-32v-32h-32v128h-96zM128 -64v-32h-32v32h32v32h-32v32h64v-64h-32z" />
    <glyph glyph-name="uni0137" unicode="&#x137;" 
d="M0 320v-32h32v-256h-32v-32h96v96h32v-32h32v-64h64v64h-32v32h-32v64h32v32h32v32h-64v-32h-32v-32h-32v160h-96zM128 -64v-32h-32v32h32v32h-32v32h64v-64h-32z" />
    <glyph glyph-name="kgreenlandic" unicode="&#x138;" 
d="M0 224v-224h64v96h64v-32h32v-64h64v64h-32v32h-32v64h32v32h32v32h-64v-32h-32v-32h-64v64h-64z" />
    <glyph glyph-name="Lacute" unicode="&#x139;" 
d="M0 320v-32h32v-256h-32v-32h224v96h-32v-32h-32v-32h-64v256h32v32h-128zM96 352v32h32v32h64v-32h-32v-32h-64z" />
    <glyph glyph-name="lacute" unicode="&#x13a;" 
d="M64 0v32h32v256h-32v32h96v-288h32v-32h-128zM96 352v32h32v32h64v-32h-32v-32h-64z" />
    <glyph glyph-name="uni013B" unicode="&#x13b;" 
d="M0 320v-32h32v-256h-32v-32h224v96h-32v-32h-32v-32h-64v256h32v32h-128zM128 -64v-32h-32v32h32v32h-32v32h64v-64h-32z" />
    <glyph glyph-name="uni013C" unicode="&#x13c;" 
d="M64 0v32h32v256h-32v32h96v-288h32v-32h-128zM128 -64v-32h-32v32h32v32h-32v32h64v-64h-32z" />
    <glyph glyph-name="Lcaron" unicode="&#x13d;" 
d="M0 320v-32h32v-256h-32v-32h224v96h-32v-32h-32v-32h-64v256h32v32h-128zM224 256v-32h-32v32h32v32h-32v32h64v-64h-32z" />
    <glyph glyph-name="lcaron" unicode="&#x13e;" 
d="M32 0v32h32v256h-32v32h96v-288h32v-32h-128zM224 256v-32h-32v32h32v32h-32v32h64v-64h-32z" />
    <glyph glyph-name="Ldot" unicode="&#x13f;" 
d="M0 320v-32h32v-256h-32v-32h224v96h-32v-32h-32v-32h-64v256h32v32h-128zM160 224h64v-64h-64v64z" />
    <glyph glyph-name="ldot" unicode="&#x140;" 
d="M32 0v32h32v256h-32v32h96v-288h32v-32h-128zM160 192h64v-64h-64v64z" />
    <glyph glyph-name="Lslash" unicode="&#x141;" 
d="M0 320v-32h32v-128h-32v-64h32v-64h-32v-32h224v96h-32v-32h-32v-32h-64v128h32v32h32v32h32v64h-32v-32h-32v-32h-32v64h32v32h-128z" />
    <glyph glyph-name="lslash" unicode="&#x142;" 
d="M64 0v32h32v64h-32v-32h-32v64h32v32h32v128h-32v32h96v-64h32v32h32v-64h-32v-32h-32v-160h32v-32h-128z" />
    <glyph glyph-name="Nacute" unicode="&#x143;" 
d="M64 320v-32h32v-32h32v-32h32v96h64v-320h-64v128h-32v32h-32v32h-32v-192h-64v320h64zM96 352v32h32v32h64v-32h-32v-32h-64z" />
    <glyph glyph-name="nacute" unicode="&#x144;" 
d="M32 0v192h-32v32h64v-32h32v32h96v-32h32v-192h-64v192h-64v-192h-64zM64 288h32v32h32v32h64v-32h-32v-32h-32v-32h-64v32z" />
    <glyph glyph-name="uni0145" unicode="&#x145;" 
d="M64 320v-32h32v-32h32v-32h32v96h64v-320h-64v128h-32v32h-32v32h-32v-192h-64v320h64zM128 -64v-32h-32v32h32v32h-32v32h64v-64h-32z" />
    <glyph glyph-name="uni0146" unicode="&#x146;" 
d="M32 0v192h-32v32h64v-32h32v32h96v-32h32v-192h-64v192h-64v-192h-64zM128 -64v-32h-32v32h32v32h-32v32h64v-64h-32z" />
    <glyph glyph-name="Ncaron" unicode="&#x147;" 
d="M64 320v-32h32v-32h32v-32h32v96h64v-320h-64v128h-32v32h-32v32h-32v-192h-64v320h64zM96 416v-32h32v32h64v-32h-32v-32h-96v32h-32v32h64z" />
    <glyph glyph-name="ncaron" unicode="&#x148;" 
d="M32 0v192h-32v32h64v-32h32v32h96v-32h32v-192h-64v192h-64v-192h-64zM96 352v-32h32v32h64v-32h-32v-32h-32v-32h-32v32h-32v32h-32v32h64z" />
    <glyph glyph-name="napostrophe" unicode="&#x149;" 
d="M64 0v192h-32v32h64v-32h32v32h96v-32h32v-192h-64v192h-64v-192h-64zM32 352v-64h-32v-32h64v32h32v64h-64z" />
    <glyph glyph-name="Eng" unicode="&#x14a;" 
d="M64 320v-32h32v-32h32v-32h32v96h64v-320h-64v128h-32v32h-32v32h-32v-192h-64v320h64zM160 0v-32h32v-32h-96v-32h128v32h32v32h-32v32h-64z" />
    <glyph glyph-name="eng" unicode="&#x14b;" 
d="M32 0v192h-32v32h64v-32h32v32h96v-32h32v-192h-64v192h-64v-192h-64zM160 0v-32h32v-32h-96v-32h128v32h32v32h-32v32h-64z" />
    <glyph glyph-name="Omacron" unicode="&#x14c;" 
d="M0 288h32v32h160v-32h32v-256h-32v-32h-160v32h-32v256zM64 32h96v256h-96v-256zM0 352v32h224v-32h-224z" />
    <glyph glyph-name="omacron" unicode="&#x14d;" 
d="M0 32h32v-32h160v32h32v160h-32v32h-160v-32h-32v-160zM160 192v-160h-96v160h96zM0 256v32h224v-32h-224z" />
    <glyph glyph-name="Obreve" unicode="&#x14e;" 
d="M0 288h32v32h160v-32h32v-256h-32v-32h-160v32h-32v256zM64 32h96v256h-96v-256zM0 416v-32h32v-32h160v32h32v32h-64v-32h-96v32h-64z" />
    <glyph glyph-name="obreve" unicode="&#x14f;" 
d="M0 32h32v-32h160v32h32v160h-32v32h-160v-32h-32v-160zM160 192v-160h-96v160h96zM0 320v-32h32v-32h160v32h32v32h-64v-32h-96v32h-64z" />
    <glyph glyph-name="Ohungarumlaut" unicode="&#x150;" 
d="M0 288h32v32h160v-32h32v-256h-32v-32h-160v32h-32v256zM64 32h96v256h-96v-256zM32 352v32h32v32h64v-32h-32v-32h-64zM128 352v32h32v32h64v-32h-32v-32h-64z" />
    <glyph glyph-name="ohungarumlaut" unicode="&#x151;" 
d="M0 32h32v-32h160v32h32v160h-32v32h-160v-32h-32v-160zM160 192v-160h-96v160h96zM32 256v32h32v32h32v32h64v-32h-32v-32h-32v-32h-64zM128 256v32h32v32h32v32h64v-32h-32v-32h-32v-32h-64z" />
    <glyph glyph-name="OE" unicode="&#x152;" 
d="M0 288h32v32h64v-32h32v32h96v-32h-64v-96h64v-32h-64v-128h64v-32h-96v32h-32v-32h-64v32h-32v256zM96 288h-32v-32v-192v-32h32v256z" />
    <glyph glyph-name="oe" unicode="&#x153;" 
d="M0 32h32v-32h64v32h32v-32h96v32h-64v64h64v96h-32v32h-64v-32h-32v32h-64v-32h-32v-160zM128 192h32v-64h-32v64zM32 192h32v-160h-32v160z" />
    <glyph glyph-name="Racute" unicode="&#x154;" 
d="M0 320v-32h32v-256h-32v-32h96v160h32v-32h32v-128h64v128h-32v64h32v96h-32v32h-192zM96 288h64v-96h-64v96zM96 352v32h32v32h64v-32h-32v-32h-64z" />
    <glyph glyph-name="racute" unicode="&#x155;" 
d="M0 224v-32h32v-160h-32v-32h128v32h-32v128h32v32h32v-64h64v64h-32v32h-96v-32h-32v32h-64zM64 288h32v32h32v32h64v-32h-32v-32h-32v-32h-64v32z" />
    <glyph glyph-name="uni0156" unicode="&#x156;" 
d="M0 320v-32h32v-256h-32v-32h96v160h32v-32h32v-128h64v128h-32v64h32v96h-32v32h-192zM96 288h64v-96h-64v96zM128 -64v-32h-32v32h32v32h-32v32h64v-64h-32z" />
    <glyph glyph-name="uni0157" unicode="&#x157;" 
d="M0 224v-32h32v-160h-32v-32h128v32h-32v128h32v32h32v-64h64v64h-32v32h-96v-32h-32v32h-64zM128 -64v-32h-32v32h32v32h-32v32h64v-64h-32z" />
    <glyph glyph-name="Rcaron" unicode="&#x158;" 
d="M0 320v-32h32v-256h-32v-32h96v160h32v-32h32v-128h64v128h-32v64h32v96h-32v32h-192zM96 288h64v-96h-64v96zM96 416v-32h32v32h64v-32h-32v-32h-96v32h-32v32h64z" />
    <glyph glyph-name="rcaron" unicode="&#x159;" 
d="M0 224v-32h32v-160h-32v-32h128v32h-32v128h32v32h32v-64h64v64h-32v32h-96v-32h-32v32h-64zM96 352v-32h32v32h64v-32h-32v-32h-32v-32h-32v32h-32v32h-32v32h64z" />
    <glyph glyph-name="Sacute" unicode="&#x15a;" 
d="M0 96v-64h32v-32h160v32h32v96h-32v32h-32v32h-64v32h-32v64h96v-64h64v64h-32v32h-160v-32h-32v-64h32v-32h32v-32h64v-32h32v-96h-96v64h-64zM96 352v32h32v32h64v-32h-32v-32h-64z" />
    <glyph glyph-name="sacute" unicode="&#x15b;" 
d="M0 64v-32h32v-32h160v32h32v32h-32v32h-32v32h-64v32h-32v32h96v-32h64v32h-32v32h-160v-32h-32v-32h32v-32h32v-32h64v-32h32v-32h-96v32h-64zM64 288h32v32h32v32h64v-32h-32v-32h-32v-32h-64v32z" />
    <glyph glyph-name="Scircumflex" unicode="&#x15c;" 
d="M0 96v-64h32v-32h160v32h32v96h-32v32h-32v32h-64v32h-32v64h96v-64h64v64h-32v32h-160v-32h-32v-64h32v-32h32v-32h64v-32h32v-96h-96v64h-64zM32 352v32h32v32h96v-32h32v-32h-64v32h-32v-32h-64z" />
    <glyph glyph-name="scircumflex" unicode="&#x15d;" 
d="M0 64v-32h32v-32h160v32h32v32h-32v32h-32v32h-64v32h-32v32h96v-32h64v32h-32v32h-160v-32h-32v-32h32v-32h32v-32h64v-32h32v-32h-96v32h-64zM32 256v32h32v32h32v32h32v-32h32v-32h32v-32h-64v32h-32v-32h-64z" />
    <glyph glyph-name="Scedilla" unicode="&#x15e;" 
d="M0 96v-64h32v-32h160v32h32v96h-32v32h-32v32h-64v32h-32v64h96v-64h64v64h-32v32h-160v-32h-32v-64h32v-32h32v-32h64v-32h32v-96h-96v64h-64zM96 0v-32h32v-32h-96v-32h128v32h32v32h-32v32h-64z" />
    <glyph glyph-name="scedilla" unicode="&#x15f;" 
d="M0 64v-32h32v-32h160v32h32v32h-32v32h-32v32h-64v32h-32v32h96v-32h64v32h-32v32h-160v-32h-32v-32h32v-32h32v-32h64v-32h32v-32h-96v32h-64zM96 0v-32h32v-32h-96v-32h128v32h32v32h-32v32h-64z" />
    <glyph glyph-name="Scaron" unicode="&#x160;" 
d="M0 96v-64h32v-32h160v32h32v96h-32v32h-32v32h-64v32h-32v64h96v-64h64v64h-32v32h-160v-32h-32v-64h32v-32h32v-32h64v-32h32v-96h-96v64h-64zM96 416v-32h32v32h64v-32h-32v-32h-96v32h-32v32h64z" />
    <glyph glyph-name="scaron" unicode="&#x161;" 
d="M0 64v-32h32v-32h160v32h32v32h-32v32h-32v32h-64v32h-32v32h96v-32h64v32h-32v32h-160v-32h-32v-32h32v-32h32v-32h64v-32h32v-32h-96v32h-64zM96 352v-32h32v32h64v-32h-32v-32h-32v-32h-32v32h-32v32h-32v32h64z" />
    <glyph glyph-name="uni0162" unicode="&#x162;" 
d="M32 320v-96h32v32h32v-224h-32v-32h128v32h-32v224h32v-32h32v96h-192zM96 0v-32h32v-32h-96v-32h128v32h32v32h-32v32h-64z" />
    <glyph glyph-name="uni0163" unicode="&#x163;" 
d="M64 224v64h32v32h32v-96h64v-32h-64v-160h32v32h64v-32h-32v-32h-96v32h-32v160h-64v32h64zM96 0v-32h32v-32h-96v-32h128v32h32v32h-32v32h-64z" />
    <glyph glyph-name="Tcaron" unicode="&#x164;" 
d="M32 320v-96h32v32h32v-224h-32v-32h128v32h-32v224h32v-32h32v96h-192zM96 416v-32h32v32h64v-32h-32v-32h-96v32h-32v32h64z" />
    <glyph glyph-name="tcaron" unicode="&#x165;" 
d="M64 224v64h32v32h32v-96h64v-32h-64v-160h32v32h64v-32h-32v-32h-96v32h-32v160h-64v32h64zM192 288v-32h-32v32h32v32h-32v32h64v-64h-32z" />
    <glyph glyph-name="Tbar" unicode="&#x166;" 
d="M32 320v-96h32v32h32v-96h-64v-32h64v-96h-32v-32h128v32h-32v96h64v32h-64v96h32v-32h32v96h-192z" />
    <glyph glyph-name="tbar" unicode="&#x167;" 
d="M64 224v64h32v32h32v-96h64v-32h-64v-32h64v-32h-64v-96h32v32h64v-32h-32v-32h-96v32h-32v96h-64v32h64v32h-64v32h64z" />
    <glyph glyph-name="Utilde" unicode="&#x168;" 
d="M0 320v-288h32v-32h160v32h32v288h-64v-288h-96v288h-64zM0 352h64v32h32v-32h96v32h32v32h-64v-32h-32v32h-96v-32h-32v-32z" />
    <glyph glyph-name="utilde" unicode="&#x169;" 
d="M0 224v-192h32v-32h96v32h32v-32h64v32h-32v192h-64v-192h-64v192h-64zM0 256h64v32h32v-32h96v32h32v32h-64v-32h-32v32h-96v-32h-32v-32z" />
    <glyph glyph-name="Umacron" unicode="&#x16a;" 
d="M0 320v-288h32v-32h160v32h32v288h-64v-288h-96v288h-64zM0 352v32h224v-32h-224z" />
    <glyph glyph-name="umacron" unicode="&#x16b;" 
d="M0 224v-192h32v-32h96v32h32v-32h64v32h-32v192h-64v-192h-64v192h-64zM0 256v32h192v-32h-192z" />
    <glyph glyph-name="Ubreve" unicode="&#x16c;" 
d="M0 320v-288h32v-32h160v32h32v288h-64v-288h-96v288h-64zM0 416v-32h32v-32h160v32h32v32h-64v-32h-96v32h-64z" />
    <glyph glyph-name="ubreve" unicode="&#x16d;" 
d="M0 224v-192h32v-32h96v32h32v-32h64v32h-32v192h-64v-192h-64v192h-64zM0 320v-32h32v-32h128v32h32v32h-64v-32h-64v32h-64z" />
    <glyph glyph-name="Uring" unicode="&#x16e;" 
d="M0 320v-288h32v-32h160v32h32v288h-64v-288h-96v288h-64zM32 352h32v-32h96v32h32v32h-32v32h-96v-32h-32v-32zM96 384h32v-32h-32v32z" />
    <glyph glyph-name="uring" unicode="&#x16f;" 
d="M0 224v-192h32v-32h96v32h32v-32h64v32h-32v192h-64v-192h-64v192h-64zM32 288h32v-32h96v32h32v32h-32v32h-96v-32h-32v-32zM96 320h32v-32h-32v32z" />
    <glyph glyph-name="Uhungarumlaut" unicode="&#x170;" 
d="M0 320v-288h32v-32h160v32h32v288h-64v-288h-96v288h-64zM32 352v32h32v32h64v-32h-32v-32h-64zM128 352v32h32v32h64v-32h-32v-32h-64z" />
    <glyph glyph-name="uhungarumlaut" unicode="&#x171;" 
d="M0 224v-192h32v-32h96v32h32v-32h64v32h-32v192h-64v-192h-64v192h-64zM32 256v32h32v32h32v32h64v-32h-32v-32h-32v-32h-64zM128 256v32h32v32h32v32h64v-32h-32v-32h-32v-32h-64z" />
    <glyph glyph-name="Uogonek" unicode="&#x172;" 
d="M0 320v-288h32v-32h160v32h32v288h-64v-288h-96v288h-64zM160 0h-64v-32h-32v-32h32v-32h128v32h-96v32h32v32z" />
    <glyph glyph-name="uogonek" unicode="&#x173;" 
d="M0 224v-192h32v-32h96v32h32v-32h64v32h-32v192h-64v-192h-64v192h-64zM160 0h-64v-32h-32v-32h32v-32h128v32h-96v32h32v32z" />
    <glyph glyph-name="Wcircumflex" unicode="&#x174;" 
d="M0 320v-288h32v-32h64v64h32v-64h64v32h32v288h-64v-224h-32v64h-32v-64h-32v224h-64zM32 352v32h32v32h96v-32h32v-32h-64v32h-32v-32h-64z" />
    <glyph glyph-name="wcircumflex" unicode="&#x175;" 
d="M0 224v-192h32v-32h64v32h32v-32h64v32h32v192h-64v-160h-32v96h-32v-96h-32v160h-64zM32 256v32h32v32h32v32h32v-32h32v-32h32v-32h-64v32h-32v-32h-64z" />
    <glyph glyph-name="Ycircumflex" unicode="&#x176;" 
d="M32 320v-128h32v-32h32v-128h-32v-32h128v32h-32v128h32v32h32v128h-64v-128h-64v128h-64zM32 352v32h32v32h96v-32h32v-32h-64v32h-32v-32h-64z" />
    <glyph glyph-name="ycircumflex" unicode="&#x177;" 
d="M0 224v-192h32v-32h128v-32h-32v-32h-128v-32h160v32h32v32h32v256h-64v-192h-96v192h-64zM32 256v32h32v32h32v32h32v-32h32v-32h32v-32h-64v32h-32v-32h-64z" />
    <glyph glyph-name="Ydieresis" unicode="&#x178;" 
d="M32 320v-128h32v-32h32v-128h-32v-32h128v32h-32v128h32v32h32v128h-64v-128h-64v128h-64zM32 352v32h64v-32h-64zM160 352v32h64v-32h-64z" />
    <glyph glyph-name="Zacute" unicode="&#x179;" 
d="M0 224v96h224v-96h-32v-32h-32v-32h-32v-32h-32v-32h-32v-64h96v32h32v32h32v-96h-224v96h32v32h32v32h32v32h32v32h32v64h-96v-32h-32v-32h-32zM96 352v32h32v32h64v-32h-32v-32h-64z" />
    <glyph glyph-name="zacute" unicode="&#x17a;" 
d="M0 160v64h224v-32h-32v-32h-32v-32h-32v-32h-32v-32h-32v-32h96v32h64v-64h-224v64h32v32h32v32h32v32h32v32h-64v-32h-64zM64 288h32v32h32v32h64v-32h-32v-32h-32v-32h-64v32z" />
    <glyph glyph-name="Zdotaccent" unicode="&#x17b;" 
d="M0 224v96h224v-96h-32v-32h-32v-32h-32v-32h-32v-32h-32v-64h96v32h32v32h32v-96h-224v96h32v32h32v32h32v32h32v32h32v64h-96v-32h-32v-32h-32zM96 416v-64h64v64h-64z" />
    <glyph glyph-name="zdotaccent" unicode="&#x17c;" 
d="M0 160v64h224v-32h-32v-32h-32v-32h-32v-32h-32v-32h-32v-32h96v32h64v-64h-224v64h32v32h32v32h32v32h32v32h-64v-32h-64zM96 320v-64h64v64h-64z" />
    <glyph glyph-name="Zcaron" unicode="&#x17d;" 
d="M0 224v96h224v-96h-32v-32h-32v-32h-32v-32h-32v-32h-32v-64h96v32h32v32h32v-96h-224v96h32v32h32v32h32v32h32v32h32v64h-96v-32h-32v-32h-32zM96 416v-32h32v32h64v-32h-32v-32h-96v32h-32v32h64z" />
    <glyph glyph-name="zcaron" unicode="&#x17e;" 
d="M0 160v64h224v-32h-32v-32h-32v-32h-32v-32h-32v-32h-32v-32h96v32h64v-64h-224v64h32v32h32v32h32v32h32v32h-64v-32h-64zM96 352v-32h32v32h64v-32h-32v-32h-32v-32h-32v32h-32v32h-32v32h64z" />
    <glyph glyph-name="longs" unicode="&#x17f;" 
d="M32 0v288h32v32h96v-32h-64v-288h-64z" />
    <glyph glyph-name="uni0180" unicode="&#x180;" 
d="M32 320v-32h-32v-32h32v-256h160v32h32v96h-32v32h-32v32h-64v64h64v32h-64v32h-64zM128 160v-32h32v-96h-64v128h32z" />
    <glyph glyph-name="uni0181" unicode="&#x181;" 
d="M0 288h32v32h160v-32h32v-96h-32v-32h32v-128h-32v-32h-160v32h32v256h-32v-96h-32v96zM160 160h-32v-128h32v128zM160 288h-32v-96h32v96z" />
    <glyph glyph-name="uni0182" unicode="&#x182;" 
d="M0 32v-32h192v32h32v128h-32v32h-96v96h96v-32h32v64h-224v-32h32v-256h-32zM99 164h65v-131h-65v131z" />
    <glyph glyph-name="uni0183" unicode="&#x183;" 
d="M32 320v-320h160v32h32v96h-32v32h-32v32h-64v96h128v32h-192zM128 160v-32h32v-96h-64v128h32z" />
    <glyph glyph-name="uni0184" unicode="&#x184;" 
d="M32 32v-32h192v32h32v128h-32v32h-96v128h-64v-32h-32v-32h-32v-32h32v-32h32v-160h-32zM131 164h65v-131h-65v131z" />
    <glyph glyph-name="uni0185" unicode="&#x185;" 
d="M32 320v-32h-32v-64h32v-224h160v32h32v96h-32v32h-32v32h-64v128h-64zM128 160v-32h32v-96h-64v128h32z" />
    <glyph glyph-name="uni0186" unicode="&#x186;" 
d="M0 288h32v32h160v-32h32v-256h-32v-32h-160v32h-32v64h64v-64h96v256h-96v-64h-64v64z" />
    <glyph glyph-name="uni0187" unicode="&#x187;" 
d="M0 256h32v32h32v32h128v32h64v-32h-32v-32h-128v-32h-32v-192h32v-32h64v32h32v32h32v-64h-32v-32h-128v32h-32v32h-32v192z" />
    <glyph glyph-name="uni0188" unicode="&#x188;" 
d="M0 192h32v32h128v32h64v-32h-32v-32h-128v-160h96v32h64v-32h-32v-32h-160v32h-32v160z" />
    <glyph glyph-name="uni0189" unicode="&#x189;" 
d="M0 320v-32h32v-96h-32v-32h32v-128h-32v-32h160v32h32v32h32v192h-32v32h-32v32h-160zM96 288h32v-32h32v-192h-32v-32h-32v128h32v32h-32v96z" />
    <glyph glyph-name="uni018A" unicode="&#x18a;" 
d="M0 288h32v32h160v-32h32v-256h-32v-32h-160v32h32v256h-32v-96h-32v96zM160 288h-32v-256h32v256z" />
    <glyph glyph-name="uni018B" unicode="&#x18b;" 
d="M224 32h-32v256h32v32h-224v-64h32v32h96v-96h-96v-32h-32v-128h32v-32h192v32zM125 164v-131h-65v131h65z" />
    <glyph glyph-name="uni018C" unicode="&#x18c;" 
d="M128 288v-64h-64v-32h-32v-32h-32v-128h32v-32h96v32h32v-32h64v32h-32v256h32v32h-224v-32h128zM128 192v-160h-64v128h32v32h32z" />
    <glyph glyph-name="uni018D" unicode="&#x18d;" 
d="M192 32v32h32v128h-32v32h-160v-32h-32v-128h32v-32h32v-32h32v-32h32v-32h-64v32h-64v-32h32v-32h128v32h32v32h-32v32h-32v32h64zM160 64h-96v128h96v-128z" />
    <glyph glyph-name="uni018E" unicode="&#x18e;" 
d="M224 0v32h-32v256h32v32h-224v-96h32v32h32v32h64v-96h-32v32h-32v-96h32v32h32v-128h-64v32h-32v32h-32v-96h224z" />
    <glyph glyph-name="uni018F" unicode="&#x18f;" 
d="M224 288h-32v32h-160v-32h-32v-32h64v32h96v-96h-160v-160h32v-32h160v32h32v256zM160 32h-96v128h96v-128z" />
    <glyph glyph-name="uni0190" unicode="&#x190;" 
d="M0 288h32v32h160v-32h32v-32h-64v32h-96v-96h96v-32h-64v-32h-32v-96h96v32h64v-32h-32v-32h-160v32h-32v96h32v64h-32v96z" />
    <glyph glyph-name="uni0191" unicode="&#x191;" 
d="M32 320v-32h32v-320h-64v-32h96v32h32v192h32v-32h32v96h-32v-32h-32v96h64v-32h32v-32h32v96h-224z" />
    <glyph glyph-name="florin" unicode="&#x192;" 
d="M0 0v-32h32v-32h96v32h32v192h64v32h-64v128h32v-32h64v32h-32v32h-96v-32h-32v-128h-64v-32h64v-192h-32v32h-64z" />
    <glyph glyph-name="uni0193" unicode="&#x193;" 
d="M0 256h32v32h32v32h128v32h64v-32h-32v-32h-128v-32h-32v-192h32v-32h96v-32h32v160h-128v-32h64v-128h-96v32h-32v32h-32v192z" />
    <glyph glyph-name="uni0194" unicode="&#x194;" 
d="M64 -96v32h-32v64h32v64h-32v64h-32v192h64v-192h32v-64h32v64h32v192h64v-192h-32v-64h-32v-64h32v-64h-32v-32h-96zM102 0v-64h26v64h-26z" />
    <glyph glyph-name="uni0195" unicode="&#x195;" 
d="M0 320v-320h64v160h32v32h32v-192h32v-32h64v32h32v192h-32v-192h-32v192h-32v32h-64v-32h-32v128h-64z" />
    <glyph glyph-name="uni0196" unicode="&#x196;" 
d="M64 320h64v-288h64v-32h-96v32h-32v288z" />
    <glyph glyph-name="uni0197" unicode="&#x197;" 
d="M96 320v-32h32v-96h-64v-32h64v-128h-32v-32h128v32h-32v128h64v32h-64v96h32v32h-128z" />
    <glyph glyph-name="uni0198" unicode="&#x198;" 
d="M64 384v-32h-32v-320h-32v-32h96v128h32v-32h32v-96h64v96h-32v32h-32v64h32v32h32v96h-64v-96h-32v-32h-32v160h64v32h-96z" />
    <glyph glyph-name="uni0199" unicode="&#x199;" 
d="M64 320v-32h-32v-256h-32v-32h96v96h32v-32h32v-64h64v64h-32v32h-32v64h32v32h32v32h-64v-32h-32v-32h-32v128h64v32h-96z" />
    <glyph glyph-name="uni019A" unicode="&#x19a;" 
d="M96 160h-64v32h64v96h-32v32h96v-128h64v-32h-64v-128h32v-32h-128v32h32v128z" />
    <glyph glyph-name="uni019B" unicode="&#x19b;" 
d="M0 0v64h32v64h32v64h32v32h-64v32h32v32h-64v32h96v-32h32v32h64v-32h-32v-32h-32v-32h32v-96h32v-64h32v-64h-64v64h-32v64h-32v-64h-32v-64h-64z" />
    <glyph glyph-name="uni019C" unicode="&#x19c;" 
d="M224 320v-320h-96v32h-32v-32h-64v32h-32v288h64v-256h32v160h32v-160h32v256h64z" />
    <glyph glyph-name="uni019D" unicode="&#x19d;" 
d="M96 320v-32h32v-32h32v-32h32v96h64v-320h-64v128h-32v32h-32v32h-32v-256h-32v-32h-64v32h32v384h64z" />
    <glyph glyph-name="uni019E" unicode="&#x19e;" 
d="M32 32v160h-32v32h64v-32h32v32h96v-32h32v-256h-64v256h-64v-160h-64z" />
    <glyph glyph-name="uni019F" unicode="&#x19f;" 
d="M0 288h32v32h160v-32h32v-256h-32v-32h-160v32h-32v256zM64 192h96v96h-96v-96zM64 32h96v128h-96v-128z" />
    <glyph glyph-name="Ohorn" unicode="&#x1a0;" 
d="M0 288h32v32h160v-32h32v-256h-32v-32h-160v32h-32v256zM64 32h96v256h-96v-256zM224 352v-32h-32v32h32v32h-32v32h64v-64h-32z" />
    <glyph glyph-name="ohorn" unicode="&#x1a1;" 
d="M0 32h32v-32h160v32h32v160h-32v32h-160v-32h-32v-160zM160 192v-160h-96v160h96zM224 288v-32h-32v32h32v32h-32v32h64v-64h-32z" />
    <glyph glyph-name="uni01A2" unicode="&#x1a2;" 
d="M0 288h32v32h96v-32h64v32h64v-320h-64v256h-32v-224h-32v-32h-96v32h-32v256zM64 32h32v256h-32v-256z" />
    <glyph glyph-name="uni01A3" unicode="&#x1a3;" 
d="M0 192h32v32h96v-32h64v32h64v-224h-64v160h-32v-128h-32v-32h-96v32h-32v160zM64 32h32v160h-32v-160z" />
    <glyph glyph-name="uni01A4" unicode="&#x1a4;" 
d="M0 288h32v32h160v-32h32v-96h-32v-32h-64v-128h32v-32h-128v32h32v256h-32v-96h-32v96zM160 288h-32v-96h32v96z" />
    <glyph glyph-name="uni01A5" unicode="&#x1a5;" 
d="M64 256h-32v-320h-32v-32h128v32h-32v64h96v32h32v160h-32v32h-96v-32h-32v64h96v32h-96v-32zM160 192v-160h-64v160h64z" />
    <glyph glyph-name="uni01A6" unicode="&#x1a6;" 
d="M0 384v-32h32v-320h-32v-32h96v160h32v-32h32v-192h64v192h-32v64h32v96h-32v32h-96v32h32v32h-128zM96 288h64v-96h-64v96z" />
    <glyph glyph-name="uni01A7" unicode="&#x1a7;" 
d="M224 96h-64v-64h-96v96h32v32h64v32h32v32h32v64h-32v32h-160v-32h-32v-64h64v64h96v-64h-32v-32h-64v-32h-32v-32h-32v-96h32v-32h160v32h32v64z" />
    <glyph glyph-name="uni01A8" unicode="&#x1a8;" 
d="M224 64h-64v-32h-96v32h32v32h64v32h32v32h32v32h-32v32h-160v-32h-32v-32h64v32h96v-32h-32v-32h-64v-32h-32v-32h-32v-32h32v-32h160v32h32v32z" />
    <glyph glyph-name="uni01A9" unicode="&#x1a9;" 
d="M0 320v-64h32v-32h32v-32h32v-64h-32v-32h-32v-32h-32v-64h224v96h-32v-32h-32v-32h-96v32h32v32h32v32h32v64h-32v32h-32v32h-32v32h96v-32h32v-32h32v96h-224z" />
    <glyph glyph-name="uni01AA" unicode="&#x1aa;" 
d="M160 320v-32h32v-352h64v-32h-96v32h-32v288h-64v32h-32v32h32v32h96zM96 288v-32h32v32h-32z" />
    <glyph glyph-name="uni01AB" unicode="&#x1ab;" 
d="M64 224v64h32v32h32v-96h64v-32h-64v-160h96v-96h-32v-32h-64v32h32v64h-64v32h-32v160h-64v32h64z" />
    <glyph glyph-name="uni01AC" unicode="&#x1ac;" 
d="M0 288v-96h32v64h64v-224h-32v-32h128v32h-32v224h32v-32h32v96h-192v-32h-32z" />
    <glyph glyph-name="uni01AD" unicode="&#x1ad;" 
d="M64 224v64h32v32h96v-32h-64v-64h64v-32h-64v-160h32v32h64v-32h-32v-32h-96v32h-32v160h-64v32h64z" />
    <glyph glyph-name="uni01AE" unicode="&#x1ae;" 
d="M32 320v-96h32v32h32v-288h32v-32h96v32h-64v288h32v-32h32v96h-192z" />
    <glyph glyph-name="Uhorn" unicode="&#x1af;" 
d="M0 320v-288h32v-32h160v32h32v288h-64v-288h-96v288h-64zM224 352v-32h-32v32h32v32h-32v32h64v-64h-32z" />
    <glyph glyph-name="uhorn" unicode="&#x1b0;" 
d="M0 224v-192h32v-32h96v32h32v-32h64v32h-32v192h-64v-192h-64v192h-64zM224 288v-32h-32v32h32v32h-32v32h64v-64h-32z" />
    <glyph glyph-name="uni01B1" unicode="&#x1b1;" 
d="M0 320h64v-32h32v-96h-32v-160h96v160h-32v96h32v32h64v-32h-32v-96h32v-160h-32v-32h-160v32h-32v160h32v96h-32v32z" />
    <glyph glyph-name="uni01B2" unicode="&#x1b2;" 
d="M0 320v-224h32v-32h32v-32h32v-32h32v32h32v32h32v32h32v192h-32v32h-96v-32h64v-192h-32v-32h-32v32h-32v224h-64z" />
    <glyph glyph-name="uni01B3" unicode="&#x1b3;" 
d="M0 320v-128h32v-32h32v-128h-32v-32h128v32h-32v128h32v32h32v128h64v32h-96v-32h-32v-128h-64v128h-64z" />
    <glyph glyph-name="uni01B4" unicode="&#x1b4;" 
d="M0 224h64v-192h32v160h32v32h96v-32h32v-32h-64v32h-32v-224h-32v-32h-32v-32h-96v32h64v32h32v32h-64v32h-32v192z" />
    <glyph glyph-name="uni01B5" unicode="&#x1b5;" 
d="M0 224v96h224v-96h-32v-32h32v-32h-96v-32h-32v-32h-32v-64h96v32h32v32h32v-96h-224v96h32v32h32v32h-64v32h128v32h32v64h-96v-32h-32v-32h-32z" />
    <glyph glyph-name="uni01B6" unicode="&#x1b6;" 
d="M0 160v64h224v-32h-32v-32h-32v-32h64v-32h-128v-32h-32v-32h96v32h64v-64h-224v64h32v32h-32v32h96v32h32v32h-64v-32h-64z" />
    <glyph glyph-name="uni01B7" unicode="&#x1b7;" 
d="M0 320h224v-64h-32v-32h-32v-32h32v-32h32v-128h-32v-32h-160v32h-32v32h64v-32h96v128h-32v32h-32v32h32v32h32v32h-160v32z" />
    <glyph glyph-name="uni01B8" unicode="&#x1b8;" 
d="M224 320v-32h-160v-32h32v-32h32v-32h-32v-32h-32v-128h96v32h64v-32h-32v-32h-160v32h-32v128h32v32h32v32h-32v32h-32v64h224z" />
    <glyph glyph-name="uni01B9" unicode="&#x1b9;" 
d="M192 256v-32h-128v-32h32v-32h32v-32h-32v-32h-32v-128h64v32h64v-32h-32v-32h-128v32h-32v128h32v32h32v32h-32v32h-32v64h192z" />
    <glyph glyph-name="uni01BA" unicode="&#x1ba;" 
d="M0 224h224v-64h-32v-32h-32v-32h32v-32h32v-64h-32v-32h-96v-32h96v-32h-128v32h-32v32h32v32h96v64h-32v32h-32v32h32v32h32v32h-160v32z" />
    <glyph glyph-name="uni01BB" unicode="&#x1bb;" 
d="M160 64h64v-64h-224v96h32v32h32v32h-64v32h128v32h32v64h-96v-32h-64v32h32v32h160v-32h32v-64h-32v-32h32v-32h-96v-32h-32v-32h-32v-64h96v32z" />
    <glyph glyph-name="uni01BC" unicode="&#x1bc;" 
d="M0 32h32v-32h160v32h32v128h-32v32h-96v96h128v32h-224v-32h32v-128h128v-128h-96v32h-64v-32z" />
    <glyph glyph-name="uni01BD" unicode="&#x1bd;" 
d="M0 32h32v-32h128v32h32v96h-32v32h-64v32h96v32h-192v-32h32v-64h96v-96h-64v32h-64v-32z" />
    <glyph glyph-name="uni01BE" unicode="&#x1be;" 
d="M64 64v-32h96v96h-64v32h-32v64h-64v32h64v64h64v-64h64v-32h-64v-64h64v-32h32v-96h-32v-32h-160v32h-32v32h64z" />
    <glyph glyph-name="uni01BF" unicode="&#x1bf;" 
d="M0 224v-32h32v-256h-32v-32h128v32h-32v64h32v32h64v32h32v128h-32v32h-96v-32h-32v32h-64zM160 192v-128h-32v-32h-32v160h64z" />
    <glyph glyph-name="uni01C0" unicode="&#x1c0;" 
d="M96 384v-384h64v384h-64z" />
    <glyph glyph-name="uni01C1" unicode="&#x1c1;" 
d="M32 384v-384h64v384h-64zM128 384v-384h64v384h-64z" />
    <glyph glyph-name="uni01C2" unicode="&#x1c2;" 
d="M96 384v-96h-64v-32h64v-96h-64v-32h64v-128h64v128h64v32h-64v96h64v32h-64v96h-64z" />
    <glyph glyph-name="uni01C3" unicode="&#x1c3;" 
d="M96 0v64h64v-64h-64zM96 96v96h-32v96h32v32h64v-32h32v-96h-32v-96h-64z" />
    <glyph glyph-name="uni01C4" unicode="&#x1c4;" 
d="M0 320h96v-32h32v-256h-32v-32h-96v320zM64 288v-256h32v256h-32zM160 320h96v-96h-32v-128h-32v-64h64v-32h-96v96h32v128h32v64h-64v32zM192 352v32h-32v32h32v-32h32v32h32v-32h-32v-32h-32z" />
    <glyph glyph-name="uni01C5" unicode="&#x1c5;" 
d="M0 320h96v-32h32v-256h-32v-32h-96v320zM64 288v-256h32v256h-32zM160 192h96v-64h-32v-64h-32v-32h64v-32h-96v64h32v64h32v32h-64v32zM192 224v32h-32v32h32v-32h32v32h32v-32h-32v-32h-32z" />
    <glyph glyph-name="uni01C6" unicode="&#x1c6;" 
d="M160 192h96v-64h-32v-64h-32v-32h64v-32h-96v64h32v64h32v32h-64v32zM192 224v32h-32v32h32v-32h32v32h32v-32h-32v-32h-32zM96 288v-64h-64v-32h-32v-160h32v-32h96v320h-64v-32h32zM96 192v-160h-32v160h32z" />
    <glyph glyph-name="uni01C7" unicode="&#x1c7;" 
d="M0 320v-320h128v32h-64v288h-64zM192 320v-288h-32v64h-32v-64h32v-32h64v32h32v288h-64z" />
    <glyph glyph-name="uni01C8" unicode="&#x1c8;" 
d="M160 -64v256h-32v32h96v-288h-32v-32h-96v32h64zM160 256h64v64h-64v-64zM0 320v-320h128v32h-64v288h-64z" />
    <glyph glyph-name="uni01C9" unicode="&#x1c9;" 
d="M0 0v32h32v256h-32v32h96v-288h32v-32h-128zM160 -64v256h-32v32h96v-288h-32v-32h-96v32h64zM160 256h64v64h-64v-64z" />
    <glyph glyph-name="uni01CA" unicode="&#x1ca;" 
d="M192 320v-288h-32v64h-32v-64h32v-32h64v32h32v288h-64zM32 320v-64h32v-32h32v96h32v-320h-32v160h-32v32h-32v-192h-32v320h32z" />
    <glyph glyph-name="uni01CB" unicode="&#x1cb;" 
d="M64 320v-64h32v-32h32v96h32v-320h-32v160h-32v32h-32v-192h-64v320h64zM192 -64v256h-32v32h96v-288h-32v-32h-96v32h64zM192 256h64v64h-64v-64z" />
    <glyph glyph-name="uni01CC" unicode="&#x1cc;" 
d="M32 0v192h-32v32h64v-32h32v32h64v-32v-192h-32v192h-32v-192h-64zM192 -64v256h-32v32h96v-288h-32v-32h-96v32h64zM192 256h64v64h-64v-64z" />
    <glyph glyph-name="uni01CD" unicode="&#x1cd;" 
d="M224 0h-64v128h-96v-128h-64v224h32v32h32v32h32v32h32v-32h32v-32h32v-32h32v-224zM160 160v64h-32v32h-32v-32h-32v-64h96zM96 416v-32h32v32h64v-32h-32v-32h-96v32h-32v32h64z" />
    <glyph glyph-name="uni01CE" unicode="&#x1ce;" 
d="M0 32h32v-32h96v32h32v-32h64v32h-32v160h-32v32h-128v-32h96v-32h-96v-32h-32v-96zM128 128v-96h-64v96h64zM96 352v-32h32v32h64v-32h-32v-32h-32v-32h-32v32h-32v32h-32v32h64z" />
    <glyph glyph-name="uni01CF" unicode="&#x1cf;" 
d="M64 320v-32h32v-256h-32v-32h128v32h-32v256h32v32h-128zM96 416v-32h32v32h64v-32h-32v-32h-96v32h-32v32h64z" />
    <glyph glyph-name="uni01D0" unicode="&#x1d0;" 
d="M64 0v32h32v160h-32v32h96v-192h32v-32h-128zM96 352v-32h32v32h64v-32h-32v-32h-32v-32h-32v32h-32v32h-32v32h64z" />
    <glyph glyph-name="uni01D1" unicode="&#x1d1;" 
d="M0 288h32v32h160v-32h32v-256h-32v-32h-160v32h-32v256zM64 32h96v256h-96v-256zM96 416v-32h32v32h64v-32h-32v-32h-96v32h-32v32h64z" />
    <glyph glyph-name="uni01D2" unicode="&#x1d2;" 
d="M0 32h32v-32h160v32h32v160h-32v32h-160v-32h-32v-160zM160 192v-160h-96v160h96zM96 352v-32h32v32h64v-32h-32v-32h-32v-32h-32v32h-32v32h-32v32h64z" />
    <glyph glyph-name="uni01D3" unicode="&#x1d3;" 
d="M0 320v-288h32v-32h160v32h32v288h-64v-288h-96v288h-64zM96 416v-32h32v32h64v-32h-32v-32h-96v32h-32v32h64z" />
    <glyph glyph-name="uni01D4" unicode="&#x1d4;" 
d="M0 224v-192h32v-32h96v32h32v-32h64v32h-32v192h-64v-192h-64v192h-64zM96 352v-32h32v32h64v-32h-32v-32h-32v-32h-32v32h-32v32h-32v32h64z" />
    <glyph glyph-name="uni01D5" unicode="&#x1d5;" 
d="M0 320v-288h32v-32h160v32h32v288h-64v-288h-96v288h-64zM32 352v32h64v-32h-64zM128 352v32h64v-32h-64zM0 416v32h224v-32h-224z" />
    <glyph glyph-name="uni01D6" unicode="&#x1d6;" 
d="M0 224v-192h32v-32h96v32h32v-32h64v32h-32v192h-64v-192h-64v192h-64zM0 256v32h64v-32h-64zM128 256v32h64v-32h-64zM0 320v32h192v-32h-192z" />
    <glyph glyph-name="uni01D7" unicode="&#x1d7;" 
d="M0 320v-288h32v-32h160v32h32v288h-64v-288h-96v288h-64zM32 352v32h64v-32h-64zM128 352v32h64v-32h-64zM64 416v32h32v32h64v-32h-32v-32h-64z" />
    <glyph glyph-name="uni01D8" unicode="&#x1d8;" 
d="M0 224v-192h32v-32h96v32h32v-32h64v32h-32v192h-64v-192h-64v192h-64zM0 256v32h64v-32h-64zM128 256v32h64v-32h-64zM64 352h32v32h32v32h64v-32h-32v-32h-32v-32h-64v32z" />
    <glyph glyph-name="uni01D9" unicode="&#x1d9;" 
d="M0 320v-288h32v-32h160v32h32v288h-64v-288h-96v288h-64zM32 352v32h64v-32h-64zM128 352v32h64v-32h-64zM96 448v-32h32v32h64v-32h-32v-32h-96v32h-32v32h64z" />
    <glyph glyph-name="uni01DA" unicode="&#x1da;" 
d="M0 224v-192h32v-32h96v32h32v-32h64v32h-32v192h-64v-192h-64v192h-64zM0 256v32h64v-32h-64zM128 256v32h64v-32h-64zM96 384v-32h32v32h64v-32h-32v-32h-32v-32h-32v32h-32v32h-32v32h64z" />
    <glyph glyph-name="uni01DB" unicode="&#x1db;" 
d="M0 320v-288h32v-32h160v32h32v288h-64v-288h-96v288h-64zM32 352v32h64v-32h-64zM128 352v32h64v-32h-64zM64 384v32h-32v32h64v-32h32v-32h-64z" />
    <glyph glyph-name="uni01DC" unicode="&#x1dc;" 
d="M0 224v-192h32v-32h96v32h32v-32h64v32h-32v192h-64v-192h-64v192h-64zM0 256v32h64v-32h-64zM128 256v32h64v-32h-64zM128 320h-64v32h-32v32h-32v32h64v-32h32v-32h32v-32z" />
    <glyph glyph-name="uni01DD" unicode="&#x1dd;" 
d="M224 192h-32v32h-160v-32h-32v-32h64v32h96v-96h-160v-64h32v-32h160v32h32v160zM160 32h-96v32h96v-32z" />
    <glyph glyph-name="uni01DE" unicode="&#x1de;" 
d="M224 0h-64v128h-96v-128h-64v224h32v32h32v32h32v32h32v-32h32v-32h32v-32h32v-224zM160 160v64h-32v32h-32v-32h-32v-64h96zM32 352v32h64v-32h-64zM128 352v32h64v-32h-64zM0 416v32h224v-32h-224z" />
    <glyph glyph-name="uni01DF" unicode="&#x1df;" 
d="M0 32h32v-32h96v32h32v-32h64v32h-32v160h-32v32h-128v-32h96v-32h-96v-32h-32v-96zM128 128v-96h-64v96h64zM0 256v32h64v-32h-64zM128 256v32h64v-32h-64zM0 320v32h224v-32h-224z" />
    <glyph glyph-name="uni01E0" unicode="&#x1e0;" 
d="M224 0h-64v128h-96v-128h-64v224h32v32h32v32h32v32h32v-32h32v-32h32v-32h32v-224zM160 160v64h-32v32h-32v-32h-32v-64h96zM96 416v-64h64v64h-64zM0 448v32h224v-32h-224z" />
    <glyph glyph-name="uni01E1" unicode="&#x1e1;" 
d="M0 32h32v-32h96v32h32v-32h64v32h-32v160h-32v32h-128v-32h96v-32h-96v-32h-32v-96zM128 128v-96h-64v96h64zM96 320v-64h64v64h-64zM0 352v32h224v-32h-224z" />
    <glyph glyph-name="uni01E2" unicode="&#x1e2;" 
d="M0 0v256h32v32h32v32h160v-32h-32v-96h32v-32h-32v-128h32v-32h-96v160h-64v-160h-64zM64 192h64v96h-32v-32h-32v-64zM0 352v32h224v-32h-224z" />
    <glyph glyph-name="uni01E3" unicode="&#x1e3;" 
d="M0 32h32v-32h64v32h32v-32h96v32h-64v64h64v96h-32v32h-64v-32h-64v32h-64v-32h32v-32h32v-32h-32v-32h-32v-64zM160 192v-64h-32v64h32zM64 32v64h32v-64h-32zM0 256v32h224v-32h-224z" />
    <glyph glyph-name="uni01E4" unicode="&#x1e4;" 
d="M0 256h32v32h32v32h128v-32h32v-64h-32v32h-32v32h-64v-32h-32v-192h32v-32h96v-32h32v64h32v32h-32v64h-128v-32h64v-32h-32v-32h32v-64h-96v32h-32v32h-32v192z" />
    <glyph glyph-name="uni01E5" unicode="&#x1e5;" 
d="M0 192h32v32h96v-32h32v32h64v-32h-32v-160h32v-32h-32v-64h-32v-32h-128v32h-32v32h64v-32h64v64h-96v32h96v32h-96v32h-32v96zM64 96h64v96h-64v-96z" />
    <glyph glyph-name="Gcaron" unicode="&#x1e6;" 
d="M0 256h32v32h32v32h128v-32h32v-64h-32v32h-32v32h-64v-32h-32v-192h32v-32h96v-32h32v160h-128v-32h64v-128h-96v32h-32v32h-32v192zM96 416v-32h32v32h64v-32h-32v-32h-96v32h-32v32h64z" />
    <glyph glyph-name="gcaron" unicode="&#x1e7;" 
d="M0 192h32v32h96v-32h32v32h64v-32h-32v-256h-32v-32h-128v32h-32v32h64v-32h64v64h-96v32h-32v160zM64 32h64v160h-64v-160zM96 352v-32h32v32h64v-32h-32v-32h-32v-32h-32v32h-32v32h-32v32h64z" />
    <glyph glyph-name="uni01E8" unicode="&#x1e8;" 
d="M0 320v-32h32v-256h-32v-32h96v128h32v-32h32v-96h64v96h-32v32h-32v64h32v32h32v96h-64v-96h-32v-32h-32v128h-96zM96 416v-32h32v32h64v-32h-32v-32h-96v32h-32v32h64z" />
    <glyph glyph-name="uni01E9" unicode="&#x1e9;" 
d="M0 320v-32h32v-256h-32v-32h96v96h32v-32h32v-64h64v64h-32v32h-32v64h32v32h32v32h-64v-32h-32v-32h-32v160h-96zM96 416v-32h32v32h64v-32h-32v-32h-96v32h-32v32h64z" />
    <glyph glyph-name="uni01EA" unicode="&#x1ea;" 
d="M0 288h32v32h160v-32h32v-256h-32v-32h-160v32h-32v256zM64 32h96v256h-96v-256zM160 0h-64v-32h-32v-32h32v-32h128v32h-96v32h32v32z" />
    <glyph glyph-name="uni01EB" unicode="&#x1eb;" 
d="M0 32h32v-32h160v32h32v160h-32v32h-160v-32h-32v-160zM160 192v-160h-96v160h96zM160 0h-64v-32h-32v-32h32v-32h128v32h-96v32h32v32z" />
    <glyph glyph-name="uni01EC" unicode="&#x1ec;" 
d="M0 288h32v32h160v-32h32v-256h-32v-32h-160v32h-32v256zM64 32h96v256h-96v-256zM160 0h-64v-32h-32v-32h32v-32h128v32h-96v32h32v32zM0 352v32h224v-32h-224z" />
    <glyph glyph-name="uni01ED" unicode="&#x1ed;" 
d="M0 32h32v-32h160v32h32v160h-32v32h-160v-32h-32v-160zM160 192v-160h-96v160h96zM160 0h-64v-32h-32v-32h32v-32h128v32h-96v32h32v32zM0 256v32h224v-32h-224z" />
    <glyph glyph-name="uni01EE" unicode="&#x1ee;" 
d="M0 320h224v-64h-32v-32h-32v-32h32v-32h32v-128h-32v-32h-160v32h-32v32h64v-32h96v128h-32v32h-32v32h32v32h32v32h-160v32zM96 416v-32h32v32h64v-32h-32v-32h-96v32h-32v32h64z" />
    <glyph glyph-name="uni01EF" unicode="&#x1ef;" 
d="M0 224h192v-64h-32v-32h-32v-32h32v-32h32v-128h-32v-32h-128v32h-32v32h64v-32h64v128h-32v32h-32v32h32v32h32v32h-128v32zM96 352v-32h32v32h64v-32h-32v-32h-32v-32h-32v32h-32v32h-32v32h64z" />
    <glyph glyph-name="uni01F0" unicode="&#x1f0;" 
d="M96 0v-64h64v256h-32v32h96v-288h-32v-32h-128v32h-32v64h64zM160 352v-32h32v32h64v-32h-32v-32h-32v-32h-32v32h-32v32h-32v32h64z" />
    <glyph glyph-name="uni01F1" unicode="&#x1f1;" 
d="M0 320h96v-32h32v-256h-32v-32h-96v320zM64 288v-256h32v256h-32zM160 320h96v-96h-32v-128h-32v-64h64v-32h-96v96h32v128h32v64h-64v32z" />
    <glyph glyph-name="uni01F2" unicode="&#x1f2;" 
d="M0 320h96v-32h32v-256h-32v-32h-96v320zM64 288v-256h32v256h-32zM160 192h96v-64h-32v-64h-32v-32h64v-32h-96v64h32v64h32v32h-64v32z" />
    <glyph glyph-name="uni01F3" unicode="&#x1f3;" 
d="M160 192h96v-64h-32v-64h-32v-32h64v-32h-96v64h32v64h32v32h-64v32zM96 288v-64h-64v-32h-32v-160h32v-32h96v320h-64v-32h32zM96 192v-160h-32v160h32z" />
    <glyph glyph-name="uni01F4" unicode="&#x1f4;" 
d="M0 256h32v32h32v32h128v-32h32v-64h-32v32h-32v32h-64v-32h-32v-192h32v-32h96v-32h32v160h-128v-32h64v-128h-96v32h-32v32h-32v192zM96 352v32h32v32h64v-32h-32v-32h-64z" />
    <glyph glyph-name="uni01F5" unicode="&#x1f5;" 
d="M0 192h32v32h96v-32h32v32h64v-32h-32v-256h-32v-32h-128v32h-32v32h64v-32h64v64h-96v32h-32v160zM64 32h64v160h-64v-160zM64 288h32v32h32v32h64v-32h-32v-32h-32v-32h-64v32z" />
    <glyph glyph-name="uni01F6" unicode="&#x1f6;" 
d="M0 320h64v-128h32v128h64v-288h32v192h32v-224h-32v-32h-64v32h-32v160h-32v-160h-64v320z" />
    <glyph glyph-name="uni01F7" unicode="&#x1f7;" 
d="M0 320v-32h32v-256h-32v-32h128v32h-32v96h32v32h64v32h32v96h-32v32h-192zM96 288h64v-96h-32v-32h-32v128z" />
    <glyph glyph-name="uni01F8" unicode="&#x1f8;" 
d="M64 320v-32h32v-32h32v-32h32v96h64v-320h-64v128h-32v32h-32v32h-32v-192h-64v320h64zM64 352v32h-32v32h64v-32h32v-32h-64z" />
    <glyph glyph-name="uni01F9" unicode="&#x1f9;" 
d="M32 0v192h-32v32h64v-32h32v32h96v-32h32v-192h-64v192h-64v-192h-64zM160 256h-64v32h-32v32h-32v32h64v-32h32v-32h32v-32z" />
    <glyph glyph-name="Aringacute" unicode="&#x1fa;" 
d="M224 0h-64v128h-96v-128h-64v224h32v32h32v32h32v32h32v-32h32v-32h32v-32h32v-224zM160 160v64h-32v32h-32v-32h-32v-64h96zM32 352h32v-32h96v32h32v32h-32v32h-96v-32h-32v-32zM96 384h32v-32h-32v32zM96 416v32h32v32h64v-32h-32v-32h-64z" />
    <glyph glyph-name="aringacute" unicode="&#x1fb;" 
d="M0 32h32v-32h96v32h32v-32h64v32h-32v160h-32v32h-128v-32h96v-32h-96v-32h-32v-96zM128 128v-96h-64v96h64zM32 288h32v-32h96v32h32v32h-32v32h-96v-32h-32v-32zM96 320h32v-32h-32v32zM96 384h32v32h32v32h64v-32h-32v-32h-32v-32h-64v32z" />
    <glyph glyph-name="AEacute" unicode="&#x1fc;" 
d="M0 0v256h32v32h32v32h160v-32h-32v-96h32v-32h-32v-128h32v-32h-96v160h-64v-160h-64zM64 192h64v96h-32v-32h-32v-64zM96 352v32h32v32h64v-32h-32v-32h-64z" />
    <glyph glyph-name="aeacute" unicode="&#x1fd;" 
d="M0 32h32v-32h64v32h32v-32h96v32h-64v64h64v96h-32v32h-64v-32h-64v32h-64v-32h32v-32h32v-32h-32v-32h-32v-64zM160 192v-64h-32v64h32zM64 32v64h32v-64h-32zM64 288h32v32h32v32h64v-32h-32v-32h-32v-32h-64v32z" />
    <glyph glyph-name="Oslashacute" unicode="&#x1fe;" 
d="M0 288h32v32h128v32h32v-64h32v-256h-32v-32h-128v-32h-32v64h-32v256zM96 32h64v192h-32v-128h-32v-64zM128 288h-64v-192h32v128h32v64zM96 352v32h32v32h64v-32h-32v-32h-64z" />
    <glyph glyph-name="oslashacute" unicode="&#x1ff;" 
d="M0 32h32v-64h32v32h128v32h32v160h-32v64h-32v-32h-128v-32h-32v-160zM128 192v-32h-32v-96h-32v128h64zM96 32v32h32v96h32v-128h-64zM64 288h32v32h32v32h64v-32h-32v-32h-32v-32h-64v32z" />
    <glyph glyph-name="uni0200" unicode="&#x200;" 
d="M224 0h-64v128h-96v-128h-64v224h32v32h32v32h32v32h32v-32h32v-32h32v-32h32v-224zM160 160v64h-32v32h-32v-32h-32v-64h96zM128 352v32h-32v32h64v-32h32v-32h-64zM32 352v32h-32v32h64v-32h32v-32h-64z" />
    <glyph glyph-name="uni0201" unicode="&#x201;" 
d="M0 32h32v-32h96v32h32v-32h64v32h-32v160h-32v32h-128v-32h96v-32h-96v-32h-32v-96zM128 128v-96h-64v96h64zM224 256h-64v32h-32v32h-32v32h64v-32h32v-32h32v-32zM128 256h-64v32h-32v32h-32v32h64v-32h32v-32h32v-32z" />
    <glyph glyph-name="uni0202" unicode="&#x202;" 
d="M224 0h-64v128h-96v-128h-64v224h32v32h32v32h32v32h32v-32h32v-32h32v-32h32v-224zM160 160v64h-32v32h-32v-32h-32v-64h96zM224 352v32h-32v32h-160v-32h-32v-32h64v32h96v-32h64z" />
    <glyph glyph-name="uni0203" unicode="&#x203;" 
d="M0 32h32v-32h96v32h32v-32h64v32h-32v160h-32v32h-128v-32h96v-32h-96v-32h-32v-96zM128 128v-96h-64v96h64zM192 256v32h-32v32h-128v-32h-32v-32h64v32h64v-32h64z" />
    <glyph glyph-name="uni0204" unicode="&#x204;" 
d="M0 320v-32h32v-256h-32v-32h224v96h-32v-32h-32v-32h-64v128h32v-32h32v96h-32v-32h-32v96h64v-32h32v-32h32v96h-224zM128 352v32h-32v32h64v-32h32v-32h-64zM32 352v32h-32v32h64v-32h32v-32h-64z" />
    <glyph glyph-name="uni0205" unicode="&#x205;" 
d="M0 32h32v-32h160v32h32v32h-64v-32h-96v96h160v64h-32v32h-160v-32h-32v-160zM64 192h96v-32h-96v32zM224 256h-64v32h-32v32h-32v32h64v-32h32v-32h32v-32zM128 256h-64v32h-32v32h-32v32h64v-32h32v-32h32v-32z" />
    <glyph glyph-name="uni0206" unicode="&#x206;" 
d="M0 320v-32h32v-256h-32v-32h224v96h-32v-32h-32v-32h-64v128h32v-32h32v96h-32v-32h-32v96h64v-32h32v-32h32v96h-224zM224 352v32h-32v32h-160v-32h-32v-32h64v32h96v-32h64z" />
    <glyph glyph-name="uni0207" unicode="&#x207;" 
d="M0 32h32v-32h160v32h32v32h-64v-32h-96v96h160v64h-32v32h-160v-32h-32v-160zM64 192h96v-32h-96v32zM224 256v32h-32v32h-160v-32h-32v-32h64v32h96v-32h64z" />
    <glyph glyph-name="uni0208" unicode="&#x208;" 
d="M64 320v-32h32v-256h-32v-32h128v32h-32v256h32v32h-128zM128 352v32h-32v32h64v-32h32v-32h-64zM32 352v32h-32v32h64v-32h32v-32h-64z" />
    <glyph glyph-name="uni0209" unicode="&#x209;" 
d="M64 0v32h32v160h-32v32h96v-192h32v-32h-128zM224 256h-64v32h-32v32h-32v32h64v-32h32v-32h32v-32zM128 256h-64v32h-32v32h-32v32h64v-32h32v-32h32v-32z" />
    <glyph glyph-name="uni020A" unicode="&#x20a;" 
d="M64 320v-32h32v-256h-32v-32h128v32h-32v256h32v32h-128zM224 352v32h-32v32h-128v-32h-32v-32h64v32h64v-32h64z" />
    <glyph glyph-name="uni020B" unicode="&#x20b;" 
d="M64 0v32h32v160h-32v32h96v-192h32v-32h-128zM224 256v32h-32v32h-160v-32h-32v-32h64v32h96v-32h64z" />
    <glyph glyph-name="uni020C" unicode="&#x20c;" 
d="M0 288h32v32h160v-32h32v-256h-32v-32h-160v32h-32v256zM64 32h96v256h-96v-256zM128 352v32h-32v32h64v-32h32v-32h-64zM32 352v32h-32v32h64v-32h32v-32h-64z" />
    <glyph glyph-name="uni020D" unicode="&#x20d;" 
d="M0 32h32v-32h160v32h32v160h-32v32h-160v-32h-32v-160zM160 192v-160h-96v160h96zM224 256h-64v32h-32v32h-32v32h64v-32h32v-32h32v-32zM128 256h-64v32h-32v32h-32v32h64v-32h32v-32h32v-32z" />
    <glyph glyph-name="uni020E" unicode="&#x20e;" 
d="M0 288h32v32h160v-32h32v-256h-32v-32h-160v32h-32v256zM64 32h96v256h-96v-256zM224 352v32h-32v32h-160v-32h-32v-32h64v32h96v-32h64z" />
    <glyph glyph-name="uni020F" unicode="&#x20f;" 
d="M0 32h32v-32h160v32h32v160h-32v32h-160v-32h-32v-160zM160 192v-160h-96v160h96zM224 256v32h-32v32h-160v-32h-32v-32h64v32h96v-32h64z" />
    <glyph glyph-name="uni0210" unicode="&#x210;" 
d="M0 320v-32h32v-256h-32v-32h96v160h32v-32h32v-128h64v128h-32v64h32v96h-32v32h-192zM96 288h64v-96h-64v96zM128 352v32h-32v32h64v-32h32v-32h-64zM32 352v32h-32v32h64v-32h32v-32h-64z" />
    <glyph glyph-name="uni0211" unicode="&#x211;" 
d="M0 224v-32h32v-160h-32v-32h128v32h-32v128h32v32h32v-64h64v64h-32v32h-96v-32h-32v32h-64zM224 256h-64v32h-32v32h-32v32h64v-32h32v-32h32v-32zM128 256h-64v32h-32v32h-32v32h64v-32h32v-32h32v-32z" />
    <glyph glyph-name="uni0212" unicode="&#x212;" 
d="M0 320v-32h32v-256h-32v-32h96v160h32v-32h32v-128h64v128h-32v64h32v96h-32v32h-192zM96 288h64v-96h-64v96zM224 352v32h-32v32h-160v-32h-32v-32h64v32h96v-32h64z" />
    <glyph glyph-name="uni0213" unicode="&#x213;" 
d="M0 224v-32h32v-160h-32v-32h128v32h-32v128h32v32h32v-64h64v64h-32v32h-96v-32h-32v32h-64zM192 256v32h-32v32h-128v-32h-32v-32h64v32h64v-32h64z" />
    <glyph glyph-name="uni0214" unicode="&#x214;" 
d="M0 320v-288h32v-32h160v32h32v288h-64v-288h-96v288h-64zM128 352v32h-32v32h64v-32h32v-32h-64zM32 352v32h-32v32h64v-32h32v-32h-64z" />
    <glyph glyph-name="uni0215" unicode="&#x215;" 
d="M0 224v-192h32v-32h96v32h32v-32h64v32h-32v192h-64v-192h-64v192h-64zM224 256h-64v32h-32v32h-32v32h64v-32h32v-32h32v-32zM128 256h-64v32h-32v32h-32v32h64v-32h32v-32h32v-32z" />
    <glyph glyph-name="uni0216" unicode="&#x216;" 
d="M0 320v-288h32v-32h160v32h32v288h-64v-288h-96v288h-64zM224 352v32h-32v32h-160v-32h-32v-32h64v32h96v-32h64z" />
    <glyph glyph-name="uni0217" unicode="&#x217;" 
d="M0 224v-192h32v-32h96v32h32v-32h64v32h-32v192h-64v-192h-64v192h-64zM192 256v32h-32v32h-128v-32h-32v-32h64v32h64v-32h64z" />
    <glyph glyph-name="uni0218" unicode="&#x218;" 
d="M0 96v-64h32v-32h160v32h32v96h-32v32h-32v32h-64v32h-32v64h96v-64h64v64h-32v32h-160v-32h-32v-64h32v-32h32v-32h64v-32h32v-96h-96v64h-64zM128 -64v-32h-32v32h32v32h-32v32h64v-64h-32z" />
    <glyph glyph-name="uni0219" unicode="&#x219;" 
d="M0 64v-32h32v-32h160v32h32v32h-32v32h-32v32h-64v32h-32v32h96v-32h64v32h-32v32h-160v-32h-32v-32h32v-32h32v-32h64v-32h32v-32h-96v32h-64zM128 -64v-32h-32v32h32v32h-32v32h64v-64h-32z" />
    <glyph glyph-name="uni021A" unicode="&#x21a;" 
d="M32 320v-96h32v32h32v-224h-32v-32h128v32h-32v224h32v-32h32v96h-192zM128 -64v-32h-32v32h32v32h-32v32h64v-64h-32z" />
    <glyph glyph-name="uni021B" unicode="&#x21b;" 
d="M64 224v64h32v32h32v-96h64v-32h-64v-160h32v32h64v-32h-32v-32h-96v32h-32v160h-64v32h64zM128 -64v-32h-32v32h32v32h-32v32h64v-64h-32z" />
    <glyph glyph-name="uni021C" unicode="&#x21c;" 
d="M0 320h32v-32h32v32h128v-32h32v-64h-32v-32h32v-128h-32v-32h-64v-32h-64v-32h-64v32h32v32h64v32h64v128h-32v-32h-32v-32h-64v32h32v32h32v32h64v64h-64v-32h-32v-32h-32v-32h-32v128z" />
    <glyph glyph-name="uni021D" unicode="&#x21d;" 
d="M0 160v32h32v32h160v-32h32v-32h-32v-32h32v-64h-32v-32h-64v-32h-64v-32h-64v32h32v32h64v32h64v64h-32v-32h-64v32h32v32h64v32h-96v-32h-64z" />
    <glyph glyph-name="uni021E" unicode="&#x21e;" 
d="M0 320h64v-128h96v128h64v-320h-64v160h-96v-160h-64v320zM96 416v-32h32v32h64v-32h-32v-32h-96v32h-32v32h64z" />
    <glyph glyph-name="uni021F" unicode="&#x21f;" 
d="M0 320v-32h32v-256h-32v-32h96v160h32v32h32v-192h64v192h-32v32h-64v-32h-32v128h-96zM96 416v-32h32v32h64v-32h-32v-32h-96v32h-32v32h64z" />
    <glyph glyph-name="uni0220" unicode="&#x220;" 
d="M96 320v-32h32v-32h32v-32h32v96h64v-384h-64v192h-32v32h-32v32h-32v-192h-64v320h64z" />
    <glyph glyph-name="uni0221" unicode="&#x221;" 
d="M128 288v-64h-64v-32h-32v-32h-32v-128h32v-32h96v32h32v-128h64v32h32v64h-32v32h-32v288h-96v-32h32zM128 192v-160h-64v128h32v32h32zM192 -64v64h32v-64h-32z" />
    <glyph glyph-name="uni0222" unicode="&#x222;" 
d="M0 32v96h32v32h-32v128h32v32h32v-160h96v160h32v-32h32v-128h-32v-32h32v-96h-32v-32h-160v32h-32zM64 128v-96h96v96h-96z" />
    <glyph glyph-name="uni0223" unicode="&#x223;" 
d="M0 32v64h32v32h-32v64h32v32h32v-96h96v96h32v-32h32v-64h-32v-32h32v-64h-32v-32h-160v32h-32zM64 96v-64h96v64h-96z" />
    <glyph glyph-name="uni0224" unicode="&#x224;" 
d="M0 224v96h224v-96h-32v-32h-32v-32h-32v-32h-32v-32h-32v-64h160v-96h-32v-32h-96v32h64v64h-160v96h32v32h32v32h32v32h32v32h32v64h-96v-32h-32v-32h-32z" />
    <glyph glyph-name="uni0225" unicode="&#x225;" 
d="M0 160v64h224v-32h-32v-32h-32v-32h-32v-32h-32v-32h-32v-32h160v-96h-32v-32h-96v32h64v64h-160v64h32v32h32v32h32v32h32v32h-64v-32h-64z" />
    <glyph glyph-name="uni0226" unicode="&#x226;" 
d="M224 0h-64v128h-96v-128h-64v224h32v32h32v32h32v32h32v-32h32v-32h32v-32h32v-224zM160 160v64h-32v32h-32v-32h-32v-64h96zM96 416v-64h64v64h-64z" />
    <glyph glyph-name="uni0227" unicode="&#x227;" 
d="M0 32h32v-32h96v32h32v-32h64v32h-32v160h-32v32h-128v-32h96v-32h-96v-32h-32v-96zM128 128v-96h-64v96h64zM96 320v-64h64v64h-64z" />
    <glyph glyph-name="uni0228" unicode="&#x228;" 
d="M0 320v-32h32v-256h-32v-32h224v96h-32v-32h-32v-32h-64v128h32v-32h32v96h-32v-32h-32v96h64v-32h32v-32h32v96h-224zM96 0v-32h32v-32h-96v-32h128v32h32v32h-32v32h-64z" />
    <glyph glyph-name="uni0229" unicode="&#x229;" 
d="M0 32h32v-32h160v32h32v32h-64v-32h-96v96h160v64h-32v32h-160v-32h-32v-160zM64 192h96v-32h-96v32zM96 0v-32h32v-32h-96v-32h128v32h32v32h-32v32h-64z" />
    <glyph glyph-name="uni022A" unicode="&#x22a;" 
d="M0 288h32v32h160v-32h32v-256h-32v-32h-160v32h-32v256zM64 32h96v256h-96v-256zM32 352v32h64v-32h-64zM128 352v32h64v-32h-64zM0 416v32h224v-32h-224z" />
    <glyph glyph-name="uni022B" unicode="&#x22b;" 
d="M0 32h32v-32h160v32h32v160h-32v32h-160v-32h-32v-160zM160 192v-160h-96v160h96zM32 256v32h64v-32h-64zM128 256v32h64v-32h-64zM0 320v32h224v-32h-224z" />
    <glyph glyph-name="uni022C" unicode="&#x22c;" 
d="M0 288h32v32h160v-32h32v-256h-32v-32h-160v32h-32v256zM64 32h96v256h-96v-256zM0 352h64v32h32v-32h96v32h32v32h-64v-32h-32v32h-96v-32h-32v-32zM0 416v32h224v-32h-224z" />
    <glyph glyph-name="uni022D" unicode="&#x22d;" 
d="M0 32h32v-32h160v32h32v160h-32v32h-160v-32h-32v-160zM160 192v-160h-96v160h96zM0 256h64v32h32v-32h96v32h32v32h-64v-32h-32v32h-96v-32h-32v-32zM0 320v32h224v-32h-224z" />
    <glyph glyph-name="uni022E" unicode="&#x22e;" 
d="M0 288h32v32h160v-32h32v-256h-32v-32h-160v32h-32v256zM64 32h96v256h-96v-256zM96 416v-64h64v64h-64z" />
    <glyph glyph-name="uni022F" unicode="&#x22f;" 
d="M0 32h32v-32h160v32h32v160h-32v32h-160v-32h-32v-160zM160 192v-160h-96v160h96zM96 320v-64h64v64h-64z" />
    <glyph glyph-name="uni0230" unicode="&#x230;" 
d="M0 288h32v32h160v-32h32v-256h-32v-32h-160v32h-32v256zM64 32h96v256h-96v-256zM96 416v-64h64v64h-64zM0 448v32h224v-32h-224z" />
    <glyph glyph-name="uni0231" unicode="&#x231;" 
d="M0 32h32v-32h160v32h32v160h-32v32h-160v-32h-32v-160zM160 192v-160h-96v160h96zM96 320v-64h64v64h-64zM0 352v32h224v-32h-224z" />
    <glyph glyph-name="uni0232" unicode="&#x232;" 
d="M32 320v-128h32v-32h32v-128h-32v-32h128v32h-32v128h32v32h32v128h-64v-128h-64v128h-64zM32 352v32h192v-32h-192z" />
    <glyph glyph-name="uni0233" unicode="&#x233;" 
d="M0 224v-192h32v-32h128v-32h-32v-32h-128v-32h160v32h32v32h32v256h-64v-192h-96v192h-64zM0 256v32h224v-32h-224z" />
    <glyph glyph-name="uni0234" unicode="&#x234;" 
d="M64 0v32h32v256h-32v32h96v-288h64v-32h32v-64h-32v-32h-64v96h-96zM192 -64h32v64h-32v-64z" />
    <glyph glyph-name="uni0235" unicode="&#x235;" 
d="M32 0v192h-32v32h64v-32h32v32h64v-32h32v-160h32v-32h32v-64h-32v-32h-64v96h-32v192h-32v-192h-64zM192 -64h32v64h-32v-64z" />
    <glyph glyph-name="uni0236" unicode="&#x236;" 
d="M160 -32h-32v-32h32v32zM128 0h64v-32h32v-32h-32v-32h-96v32h-32v256h-64v32h64v64h32v32h32v-96h64v-32h-64v-192z" />
    <glyph glyph-name="uni0237" unicode="&#x237;" 
d="M96 0v-64h64v256h-32v32h96v-288h-32v-32h-128v32h-32v64h64z" />
    <glyph glyph-name="uni0238" unicode="&#x238;" 
d="M0 224h32v32h64v32h-32v32h96v-32h-32v-32h64v-32h32v-128h-32v-32h-64v32h-32v-32h-64v32h-32v128zM64 96h32v128h-32v-128zM128 96h32v128h-32v-128z" />
    <glyph glyph-name="uni0239" unicode="&#x239;" 
d="M224 32h-32v-32h-64v-32h32v-32h-96v32h32v32h-64v32h-32v128h32v32h64v-32h32v32h64v-32h32v-128zM160 160h-32v-128h32v128zM96 160h-32v-128h32v128z" />
    <glyph glyph-name="uni023A" unicode="&#x23a;" 
d="M224 0h-64v128h-96v-128h-64v224h32v32h32v32h32v32h32v-32h32v-32h32v-32h32v-224zM160 160v64h-32v32h-32v-32h-32v-64h96zM32 0v64h32v64h32v96h32v64h32v64h32v32h32v-32h-32v-64h-32v-64h-32v-96h-32v-64h-32v-64h-32v-32h-32v32h32z" />
    <glyph glyph-name="uni023B" unicode="&#x23b;" 
d="M0 256h32v32h32v32h128v-32h32v-64h-32v32h-32v32h-64v-32h-32v-192h32v-32h64v32h32v32h32v-64h-32v-32h-128v32h-32v32h-32v192zM32 0v64h32v64h32v96h32v64h32v64h32v32h32v-32h-32v-64h-32v-64h-32v-96h-32v-64h-32v-64h-32v-32h-32v32h32z" />
    <glyph glyph-name="uni023C" unicode="&#x23c;" 
d="M0 192h32v32h128v32h32v32h32v-32h-32v-64h32v-32h-96v-96h-32v-32h64v32h64v-32h-32v-32h-128v-32h-32v-32h-32v32h32v64h-32v160zM96 64v96h32v32h-64v-128h32z" />
    <glyph glyph-name="uni023D" unicode="&#x23d;" 
d="M32 320v-32h32v-96h-64v-32h64v-128h-32v-32h192v96h-32v-32h-32v-32h-32v128h64v32h-64v96h32v32h-128z" />
    <glyph glyph-name="uni023E" unicode="&#x23e;" 
d="M32 320v-96h32v32h32v-128h-32v-64h-32v-64h-32v-32h32v32h32v64h32v-32h-32v-32h128v32h-32v224h32v-32h32v96h-32v32h32v32h-32v-32h-32v-32h-128z" />
    <glyph glyph-name="uni023F" unicode="&#x23f;" 
d="M0 64v-32h32v-32h160v32h32v32h-32v32h-32v32h-64v32h-32v32h96v-32h64v32h-32v32h-160v-32h-32v-32h32v-32h32v-32h64v-32h32v-32h-96v32h-64zM64 -32v32h64v-32h32v-32h64v-32h-64v32h-32v32h-64z" />
    <glyph glyph-name="uni0240" unicode="&#x240;" 
d="M0 160v64h224v-32h-32v-32h-32v-32h-32v-32h-32v-32h-32v-32h64v-32h32v-32h64v-32h-64v32h-32v32h-128v64h32v32h32v32h32v32h32v32h-64v-32h-64z" />
    <glyph glyph-name="uni0241" unicode="&#x241;" 
d="M64 256h-64v32h32v32h160v-32h32v-96h-32v-32h-64v-160h-64v160h32v32h64v96h-96v-32z" />
    <glyph glyph-name="uni0242" unicode="&#x242;" 
d="M64 160h-64v32h32v32h160v-32h32v-64h-32v-32h-64v-96h-64v96h32v32h64v64h-96v-32z" />
    <glyph glyph-name="uni0243" unicode="&#x243;" 
d="M0 320v-32h32v-192h-32v-32h32v-32h-32v-32h192v32h32v128h-32v32h32v96h-32v32h-192zM160 288v-96h-64v96h64zM160 160v-128h-64v32h32v32h-32v64h64z" />
    <glyph glyph-name="uni0244" unicode="&#x244;" 
d="M32 320h64v-128h32v128h64v-128h32v-32h-32v-128h-32v-32h-96v32h-32v128h-32v32h32v128zM96 160v-128h32v128h-32z" />
    <glyph glyph-name="uni0245" unicode="&#x245;" 
d="M224 0v128h-32v64h-32v64h-32v64h-32v-64h-32v-64h-32v-64h-32v-128h64v128h32v64h32v-64h32v-128h64z" />
    <glyph glyph-name="uni0246" unicode="&#x246;" 
d="M0 320h160v32h32v32h32v-32h-32v-32h32v-96h-32v32h-32v-128h-32v-64h-32v-32h64v32h32v32h32v-96h-160v-32h-32v-32h-32v32h32v32h-32v32h32v256h-32v32zM96 160v-32h32v32h-32zM96 288v-96h32v96h-32z" />
    <glyph glyph-name="uni0247" unicode="&#x247;" 
d="M0 32h32v-64h32v32h128v32h32v32h-64v-32h-64v32h32v64h96v64h-32v64h-32v-32h-128v-32h-32v-160zM64 192h64v-32h-64v32zM64 64v64h32v-64h-32z" />
    <glyph glyph-name="uni0248" unicode="&#x248;" 
d="M96 320v-32h32v-64h-64v-32h64v-160h-64v96h-64v-96h32v-32h128v32h32v160h64v32h-64v64h32v32h-128z" />
    <glyph glyph-name="uni0249" unicode="&#x249;" 
d="M96 0v-64h64v256h-32v32h96v-288h-32v-32h-128v32h-32v64h64zM160 256h64v64h-64v-64zM96 160h192v-32h-192v32z" />
    <glyph glyph-name="uni024A" unicode="&#x24a;" 
d="M160 320v-32h-32v32h-96v-32h-32v-256h32v-32h96v-64h32v-32h96v32h-64v352h32v32h-64zM128 288v-256h-64v256h64z" />
    <glyph glyph-name="uni024B" unicode="&#x24b;" 
d="M160 224v-32h-32v32h-96v-32h-32v-160h32v-32h96v-64h32v-32h96v32h-64v256h32v32h-64zM128 192v-160h-64v160h64z" />
    <glyph glyph-name="uni024C" unicode="&#x24c;" 
d="M0 320v-32h32v-128h-32v-32h32v-96h-32v-32h96v128h32v-32h32v-96h64v96h-32v32h32v32h-32v32h32v96h-32v32h-192zM96 288h64v-96h-64v96z" />
    <glyph glyph-name="uni024D" unicode="&#x24d;" 
d="M32 224v-32h32v-96h-64v-32h64v-32h-32v-32h128v32h-32v32h64v32h-64v64h32v32h32v-64h64v64h-32v32h-96v-32h-32v32h-64z" />
    <glyph glyph-name="uni024E" unicode="&#x24e;" 
d="M32 192h32v-32h32v-128h-32v-32h128v32h-32v128h32v32h32v64h32v32h-32v32h-64v-32h-64v32h-64v-32h-32v-32h32v-64zM160 256v-64h-64v64h64z" />
    <glyph glyph-name="uni024F" unicode="&#x24f;" 
d="M32 32h32v-32h96v-32h-32v-32h-96v-32h128v32h32v32h32v160h32v32h-32v64h-64v-64h-64v64h-64v-64h-32v-32h32v-96zM160 128v-96h-64v96h64z" />
    <glyph glyph-name="uni0250" unicode="&#x250;" 
d="M224 192h-32v32h-96v-32h-32v32h-64v-32h32v-160h32v-32h128v32h-96v32h96v32h32v96zM96 96v96h64v-96h-64z" />
    <glyph glyph-name="uni0251" unicode="&#x251;" 
d="M0 32h32v-32h96v32h32v-32h64v32h-32v192h-32v-32h-32v32h-96v-32h-32v-160zM128 192v-160h-64v160h64z" />
    <glyph glyph-name="uni0252" unicode="&#x252;" 
d="M224 192h-32v32h-96v-32h-32v32h-64v-32h32v-192h32v32h32v-32h96v32h32v160zM96 32v160h64v-160h-64z" />
    <glyph glyph-name="uni0253" unicode="&#x253;" 
d="M160 320h-96v-32h-32v-288h160v32h32v128h-32v32h-32v32h-64v64h64v32zM128 192v-32h32v-128h-64v160h32z" />
    <glyph glyph-name="uni0254" unicode="&#x254;" 
d="M224 192v-160h-32v-32h-160v32h-32v32h64v-32h96v160h-96v-32h-64v32h32v32h160v-32h32z" />
    <glyph glyph-name="uni0255" unicode="&#x255;" 
d="M32 192h32v32h160v-32h32v-32h-64v32h-96v-160h64v32h32v32h64v-64h-32v-32h-96v-32h-32v-32h-64v32h-32v32h32v-32h64v32h-32v32h-32v160zM192 64v-32h32v32h-32z" />
    <glyph glyph-name="uni0256" unicode="&#x256;" 
d="M128 288v-64h-64v-32h-32v-32h-32v-128h32v-32h96v32h32v-96h32v-32h64v32h-64v384h-96v-32h32zM128 192v-160h-64v128h32v32h32z" />
    <glyph glyph-name="uni0257" unicode="&#x257;" 
d="M128 320v-96h-64v-32h-32v-32h-32v-128h32v-32h96v32h32v-32h64v32h-32v288h64v31l-96 1v-32h-32zM128 192v-160h-64v128h32v32h32z" />
    <glyph glyph-name="uni0258" unicode="&#x258;" 
d="M224 32v160h-32v32h-160v-32h-32v-64h160v-96h-96v32h-64v-32h32v-32h160v32h32zM160 192v-32h-96v32h96z" />
    <glyph glyph-name="uni0259" unicode="&#x259;" 
d="M224 192h-32v32h-160v-32h-32v-32h64v32h96v-64h-160v-96h32v-32h160v32h32v160zM160 32h-96v64h96v-64z" />
    <glyph glyph-name="uni025A" unicode="&#x25a;" 
d="M160 192h-32v32h-96v-32h-32v-32h64v32h32v-64h-96v-96h32v-32h96v32h32v64h32v-32h64v32h-32v32h-64v64zM96 32h-32v64h32v-64z" />
    <glyph glyph-name="uni025B" unicode="&#x25b;" 
d="M224 160h-64v32h-96v-64h96v-32h-96v-64h96v32h64v-32h-32v-32h-160v32h-32v64h32v32h-32v64h32v32h160v-32h32v-32z" />
    <glyph glyph-name="uni025C" unicode="&#x25c;" 
d="M0 160v32h32v32h160v-32h32v-64h-32v-32h32v-64h-32v-32h-160v32h-32v32h64v-32h96v64h-96v32h96v64h-96v-32h-64z" />
    <glyph glyph-name="uni025D" unicode="&#x25d;" 
d="M0 160v32h32v32h96v-32h96v-32h32v-32h-64v32h-32v-32h-32v-32h32v-64h-32v-32h-96v32h-32v32h64v-32h32v64h-32v32h32v64h-32v-32h-64z" />
    <glyph glyph-name="uni025E" unicode="&#x25e;" 
d="M0 64v128h32v32h160v-32h32v-64h-32v-32h32v-64h-32v-32h-160v32h-32v32h64v-32h96v64h-64v32h64v64h-96v-128h-64z" />
    <glyph glyph-name="uni025F" unicode="&#x25f;" 
d="M128 32h-64v32h64v128h-32v32h96v-160h63v-32h-63v-96h-32v-32h-128v32h-32v64h64v-64h64v96z" />
    <glyph glyph-name="uni0260" unicode="&#x260;" 
d="M0 192h32v32h96v-32h32v96h32v32h64v-32h-64v-352h-32v-32h-128v32h-32v32h64v-32h64v64h-96v32h-32v160zM64 32h64v160h-64v-160z" />
    <glyph glyph-name="uni0261" unicode="&#x261;" 
d="M0 192h32v32h96v-32h32v32h64v-32h-32v-256h-32v-32h-128v32h-32v32h64v-32h64v64h-96v32h-32v160zM64 32h64v160h-64v-160z" />
    <glyph glyph-name="uni0262" unicode="&#x262;" 
d="M0 192h32v32h160v-32h32v-32h-64v32h-96v-160h128v-32h32v128h-128v-32h64v-96h-128v32h-32v160z" />
    <glyph glyph-name="uni0263" unicode="&#x263;" 
d="M64 -96v32h-32v32h32v64h-32v32h-32v160h64v-160h32v-32h32v32h32v160h64v-160h-32v-32h-32v-64h32v-32h-32v-32h-96zM96 -32v-32h32v32h-32z" />
    <glyph glyph-name="uni0264" unicode="&#x264;" 
d="M64 128v128h-32v-64h-32v64h32v32h32v-32h32v-32h32v32h32v32h32v-32h32v-64h-32v64h-32v-128h32v-96h-32v-32h-96v32h-32v96h32zM96 128v-96h32v96h-32z" />
    <glyph glyph-name="uni0265" unicode="&#x265;" 
d="M224 0v32h-32v256h32v32h-96v-160h-32v-32h-32v192h-64v-192h32v-32h64v32h32v-128h96z" />
    <glyph glyph-name="uni0266" unicode="&#x266;" 
d="M64 352v-32h-32v-288h-32v-32h96v160h32v32h32v-192h64v192h-32v32h-64v-32h-32v128h64v32h-96z" />
    <glyph glyph-name="uni0267" unicode="&#x267;" 
d="M64 352v-32h-32v-288h-32v-32h96v160h32v32h32v-256h-64v-32h96v32h32v256h-32v32h-64v-32h-32v128h64v32h-96z" />
    <glyph glyph-name="uni0268" unicode="&#x268;" 
d="M64 0v32h32v96h-64v32h64v32h-32v32h96v-64h64v-32h-64v-96h32v-32h-128zM96 256h64v64h-64v-64z" />
    <glyph glyph-name="uni0269" unicode="&#x269;" 
d="M128 0v32h-32v160h-32v32h96v-192h64v-32h-96z" />
    <glyph glyph-name="uni026A" unicode="&#x26a;" 
d="M64 224v-32h32v-160h-32v-32h128v32h-32v160h32v32h-128z" />
    <glyph glyph-name="uni026B" unicode="&#x26b;" 
d="M64 0v32h32v128h-32v-32h-64v32h32v32h64v96h-32v32h96v-160h32v32h64v-32h-32v-32h-64v-96h32v-32h-128z" />
    <glyph glyph-name="uni026C" unicode="&#x26c;" 
d="M64 0v32h32v96h-64v32h-32v32h32v32h64v64h-32v32h96v-160h64v-32h-64v-96h32v-32h-128zM64 192v-32h32v32h-32z" />
    <glyph glyph-name="uni026D" unicode="&#x26d;" 
d="M128 -96v32h-32v352h-32v32h96v-384h64v-32h-96z" />
    <glyph glyph-name="uni026E" unicode="&#x26e;" 
d="M128 32v-32h-128v32h32v256h-32v32h96v-160h160v-64h-32v-32h-32v-32h32v-32h32v-64h-32v-32h-160v32h-32v32h64v-32h96v64h-32v32h-32zM128 32v32h32v32h32v32h-96v-96h32z" />
    <glyph glyph-name="uni026F" unicode="&#x26f;" 
d="M224 224v-224h-96v32h-32v-32h-64v32h-32v192h64v-160h32v128h32v-128h32v160h64z" />
    <glyph glyph-name="uni0270" unicode="&#x270;" 
d="M224 224v-320h-64v96h-32v32h-32v-32h-64v32h-32v192h64v-160h32v128h32v-128h32v160h64z" />
    <glyph glyph-name="uni0271" unicode="&#x271;" 
d="M0 0v224h96v-32h32v32h64v-32h32v-256h-32v-32h-64v32h32v224h-32v-128h-32v128h-32v-160h-64z" />
    <glyph glyph-name="uni0272" unicode="&#x272;" 
d="M32 -64v256h-32v32h64v-32h32v32h96v-32h32v-192h-64v192h-64v-256h-32v-32h-64v32h32z" />
    <glyph glyph-name="uni0273" unicode="&#x273;" 
d="M32 0v192h-32v32h64v-32h32v32h96v-32h32v-256h32v-32h-64v32h-32v256h-64v-192h-64z" />
    <glyph glyph-name="uni0274" unicode="&#x274;" 
d="M64 224v-32h32v-32h32v-32h32v96h64v-224h-64v32h-32v32h-32v32h-32v-96h-64v224h64z" />
    <glyph glyph-name="uni0275" unicode="&#x275;" 
d="M0 32h32v-32h160v32h32v160h-32v32h-160v-32h-32v-160zM160 192v-64h-96v64h96zM160 96v-64h-96v64h96z" />
    <glyph glyph-name="uni0276" unicode="&#x276;" 
d="M0 192h32v32h64v-32h32v32h96v-32h-64v-64h64v-32h-64v-64h64v-32h-96v32h-32v-32h-64v32h-32v160zM96 192h-32v-160h32v160z" />
    <glyph glyph-name="uni0277" unicode="&#x277;" 
d="M32 224v-32h-32v-160h32v-32h64v32h32v-32h64v32h32v160h-32v32h-32v-160h-32v96h-32v-96h-32v128h96v32h-128z" />
    <glyph glyph-name="uni0278" unicode="&#x278;" 
d="M64 64v32h-32v96h32v32h32v32h-64v32h192v-32h-64v-32h32v-32h32v-96h-32v-32h-32v-32h64v-32h-192v32h64v32h-32zM96 96h64v96h-64v-96z" />
    <glyph glyph-name="uni0279" unicode="&#x279;" 
d="M224 0v32h-32v160h32v32h-128v-32h32v-128h-32v-32h-32v64h-64v-64h32v-32h96v32h32v-32h64z" />
    <glyph glyph-name="uni027A" unicode="&#x27a;" 
d="M224 0v32h-32v256h32v32h-128v-32h32v-224h-32v-32h-32v64h-64v-64h32v-32h96v32h32v-32h64z" />
    <glyph glyph-name="uni027B" unicode="&#x27b;" 
d="M192 -96h64v32h-64v352h32v32h-128v-32h32v-224h-32v-32h-32v64h-64v-64h32v-32h96v32h32v-96h32v-32z" />
    <glyph glyph-name="uni027C" unicode="&#x27c;" 
d="M0 224v-32h32v-256h-32v-32h128v32h-32v224h32v32h32v-64h64v64h-32v32h-96v-32h-32v32h-64z" />
    <glyph glyph-name="uni027D" unicode="&#x27d;" 
d="M0 224v-32h32v-256h32v-32h96v32h-64v224h32v32h32v-64h64v64h-32v32h-96v-32h-32v32h-64z" />
    <glyph glyph-name="uni027E" unicode="&#x27e;" 
d="M32 192v-160h-32v-32h128v32h-32v160h64v-64h64v64h-32v32h-128v-32h-32z" />
    <glyph glyph-name="uni027F" unicode="&#x27f;" 
d="M192 192h-32v32h-128v-32h-32v-64h64v64h64v-160h-32v-32h128v32h-32v160z" />
    <glyph glyph-name="uni0280" unicode="&#x280;" 
d="M0 224v-32h32v-160h-32v-32h96v96h32v-32h32v-64h64v64h-32v64h32v64h-32v32h-192zM96 192h64v-64h-64v64z" />
    <glyph glyph-name="uni0281" unicode="&#x281;" 
d="M0 0h192v32h32v64h-32v64h32v64h-64v-64h-32v-32h-32v96h-96v-32h32v-160h-32v-32zM96 32v64h64v-64h-64z" />
    <glyph glyph-name="uni0282" unicode="&#x282;" 
d="M0 -64h32v-32h96v32h-64v64h128v32h32v32h-32v32h-32v32h-64v32h-32v32h96v-32h64v32h-32v32h-160v-32h-32v-32h32v-32h32v-32h64v-32h32v-32h-160v-96z" />
    <glyph glyph-name="uni0283" unicode="&#x283;" 
d="M0 -64h32v-32h96v32h32v416h32v-32h65v32h-33v32h-96v-32h-32v-416h-32v32h-64v-32z" />
    <glyph glyph-name="uni0284" unicode="&#x284;" 
d="M0 -64h32v-32h96v32h32v64h64v32h-64v320h32v-32h65v32h-33v32h-96v-32h-32v-320h-64v-32h64v-64h-32v32h-64v-32z" />
    <glyph glyph-name="uni0285" unicode="&#x285;" 
d="M257 -66v32h-65v-32h-32v258h-32v32h-97v-32h-32v-32h64v32h33v-258h32v-33h96v33h33z" />
    <glyph glyph-name="uni0286" unicode="&#x286;" 
d="M0 -64h32v-32h96v32h32v32h32v-32h32v32h-32v32h-32v352h32v-32h65v32h-33v32h-96v-32h-32v-352h-65l1 -32h-32v-32zM64 -64v32h32v-32h-32z" />
    <glyph glyph-name="uni0287" unicode="&#x287;" 
d="M160 96v-96h-32v32h-32v64h-64v32h64v160h-32v-32h-64v32h32v32h96v-32h32v-160h64v-32h-64z" />
    <glyph glyph-name="uni0288" unicode="&#x288;" 
d="M64 224v64h32v32h32v-96h64v-32h-64v-256h32v32h64v-32h-32v-32h-96v32h-32v256h-64v32h64z" />
    <glyph glyph-name="uni0289" unicode="&#x289;" 
d="M32 32h32v-32h64v32h32v-32h64v32h-32v96h32v32h-32v64h-64v-64h-32v64h-64v-64h-32v-32h32v-96zM128 128v-96h-32v96h32z" />
    <glyph glyph-name="uni028A" unicode="&#x28a;" 
d="M0 224h64v-32h32v-64h-32v-96h96v96h-32v64h32v32h64v-32h-32v-64h32v-96h-32v-32h-160v32h-32v96h32v64h-32v32z" />
    <glyph glyph-name="uni028B" unicode="&#x28b;" 
d="M32 224v-160h32v-32h32v-32h64v32h32v32h32v128h-32v32h-64v-32h32v-128h-64v160h-64z" />
    <glyph glyph-name="uni028C" unicode="&#x28c;" 
d="M224 0v160h-32v32h-32v32h-64v-32h-32v-32h-32v-160h64v160h64v-160h64z" />
    <glyph glyph-name="uni028D" unicode="&#x28d;" 
d="M224 0v192h-32v32h-64v-32h-32v32h-64v-32h-32v-192h64v160h32v-96h32v96h32v-160h64z" />
    <glyph glyph-name="uni028E" unicode="&#x28e;" 
d="M224 -96v192h-32v32h-128v32h32v32h128v32h-160v-32h-32v-32h-32v-256h64v192h96v-192h64z" />
    <glyph glyph-name="uni028F" unicode="&#x28f;" 
d="M32 224v-96h32v-32h32v-64h-32v-32h128v32h-32v64h32v32h32v96h-64v-96h-64v96h-64z" />
    <glyph glyph-name="uni0290" unicode="&#x290;" 
d="M0 160v64h224v-32h-32v-32h-32v-32h-32v-32h-32v-32h-32v-32h160v-96h32v-32h-64v32h-32v64h-160v64h32v32h32v32h32v32h32v32h-64v-32h-64z" />
    <glyph glyph-name="uni0291" unicode="&#x291;" 
d="M0 160v64h224v-32h-32v-32h-32v-32h-32v-32h-32v-32h-32v-32h64v32h32v32h32v-32h32v-32h-32v-32h-96v-32h-32v-32h-32v32h32v32h-64v64h32v32h32v32h32v32h32v32h-64v-32h-64zM160 64v-32h32v32h-32z" />
    <glyph glyph-name="uni0292" unicode="&#x292;" 
d="M0 224h192v-64h-32v-32h-32v-32h32v-32h32v-128h-32v-32h-128v32h-32v32h64v-32h64v128h-32v32h-32v32h32v32h32v32h-128v32z" />
    <glyph glyph-name="uni0293" unicode="&#x293;" 
d="M0 224h192v-64h-32v-32h-32v-32h32v-32h32v-128h-32v-32h-128v32h-32v32h32v32h64v-32h32v96h-32v32h-32v32h32v32h32v32h-128v32zM32 -32v-32h64v32h-64z" />
    <glyph glyph-name="uni0294" unicode="&#x294;" 
d="M64 256h-64v32h32v32h160v-32h32v-96h-32v-32h-64v-160h-64v160h32v32h64v96h-96v-32z" />
    <glyph glyph-name="uni0295" unicode="&#x295;" 
d="M160 256v32h-96v-96h64v-32h32v-160h-64v160h-64v32h-32v96h32v32h160v-32h32v-32h-64z" />
    <glyph glyph-name="uni0296" unicode="&#x296;" 
d="M64 64v-32h96v96h-64v32h-32v160h64v-160h64v-32h32v-96h-32v-32h-160v32h-32v32h64z" />
    <glyph glyph-name="uni0297" unicode="&#x297;" 
d="M0 256h32v32h32v32h128v-32h32v-64h-32v32h-32v32h-64v-32h-32v-288h32v-32h64v32h64v-32h-32v-32h-128v32h-32v32h-32v288z" />
    <glyph glyph-name="uni0298" unicode="&#x298;" 
d="M0 288h32v32h160v-32h32v-256h-32v-32h-160v32h-32v256zM64 32h96v256h-96v-256zM96 192h32v-64h-32v64z" />
    <glyph glyph-name="uni0299" unicode="&#x299;" 
d="M0 224v-32h32v-160h-32v-32h192v32h32v64h-32v32h32v64h-32v32h-192zM160 192v-64h-64v64h64zM160 96v-64h-64v64h64z" />
    <glyph glyph-name="uni029A" unicode="&#x29a;" 
d="M224 64h-64v128h-96v-64h64v-32h-64v-64h96v32h64v-32h-32v-32h-160v32h-32v64h32v32h-32v64h32v32h160v-32h32v-128z" />
    <glyph glyph-name="uni029B" unicode="&#x29b;" 
d="M0 192h32v32h128v64h32v32h64v-32h-32v-64h-32v-32h-128v-160h128v-32h32v128h-128v-32h64v-96h-128v32h-32v160z" />
    <glyph glyph-name="uni029C" unicode="&#x29c;" 
d="M0 224h64v-96h96v96h64v-224h-64v96h-96v-96h-64v224z" />
    <glyph glyph-name="uni029D" unicode="&#x29d;" 
d="M32 -32v32h64v136v56h-32v32h96v-224h32v-32h32v-32h-32v32h-32v-32h-32v-32h-96v32h-32v32h32zM96 256h64v64h-64v-64zM64 -32v-32h32v32h-32z" />
    <glyph glyph-name="uni029E" unicode="&#x29e;" 
d="M224 0v32h-32v256h32v32h-96v-64h-32v32h-32v32h-64v-32h32v-32h32v-64h-32v-32h-32v-64h64v64h32v32h32v-192h96z" />
    <glyph glyph-name="uni029F" unicode="&#x29f;" 
d="M0 224v-32h32v-160h-32v-32h224v96h-32v-32h-32v-32h-64v160h32v32h-128z" />
    <glyph glyph-name="uni02A0" unicode="&#x2a0;" 
d="M128 320v-96h-64v-32h-32v-32h-32v-128h32v-32h96v-96h64v416h64v31l-96 1v-32h-32zM128 192v-160h-64v128h32v32h32z" />
    <glyph glyph-name="uni02A1" unicode="&#x2a1;" 
d="M64 64h-32v32h32v64h32v32h64v96h-96v-32h-64v32h32v32h160v-32h32v-96h-32v-32h-64v-64h32v-32h-32v-64h-64v64z" />
    <glyph glyph-name="uni02A2" unicode="&#x2a2;" 
d="M160 64v-64h-64v64h-32v32h32v64h-64v32h-32v96h32v32h160v-32h32v-32h-64v32h-96v-96h64v-32h32v-64h32v-32h-32z" />
    <glyph glyph-name="uni02A3" unicode="&#x2a3;" 
d="M64 288v-64h-32v-32h-32v-160h32v-32h32v32h32v-32h32v32h-32v288h-64v-32h32zM64 192v-160h-32v160h32zM128 96h32v32h32v32h32v32h-64v-32h-32v64h128v-96h-32v-32h-32v-32h-32v-32h64v32h32v-64h-128v96z" />
    <glyph glyph-name="uni02A4" unicode="&#x2a4;" 
d="M64 288v-64h-32v-32h-32v-160h32v-32h32v32h32v-32h32v32h-32v288h-64v-32h32zM64 192v-160h-32v160h32zM128 64h32v32h32v32h-96v32h160v-64h-32v-32h-32v-32h32v-32h32v-64h-32v-32h-160v32h-32v32h64v-32h96v64h-32v32h-32v32z" />
    <glyph glyph-name="uni02A5" unicode="&#x2a5;" 
d="M64 288v-64h-32v-32h-32v-160h32v-32h32v32h32v-32h32v32h-32v288h-64v-32h32zM64 192v-160h-32v160h32zM129 96h32v32h32v32h32v32h-64v-32h-32v64h128v-96h-32v-32h32v-96h-96v-32h-32v-32h-32v32h32v128zM224 64h-32v-32h32v32z" />
    <glyph glyph-name="uni02A6" unicode="&#x2a6;" 
d="M0 288h32v32h32v-96h64v-32h-64v-160h32v-32h-64v32h-32v256zM0 288h32v32h32v-96h64v-32h-64v-160h32v-32h-64v32h-32v256zM96 64v-32h32v-32h96v32h32v64h-32v32h-64v32h-32v32h96v-32h32v32h-32v32h-96v-32h-32v-64h32v-32h64v-32h32v-32h-96v32h-32z" />
    <glyph glyph-name="uni02A7" unicode="&#x2a7;" 
d="M192 32h32v-32h-160v32h-32v160h-32v32h32v64h32v32h32v-96h32v64h32v32h96v-64h-32v32h-32v-64h32v-32h-32v-160zM96 32h32v160h-32v-160z" />
    <glyph glyph-name="uni02A8" unicode="&#x2a8;" 
d="M0 288h32v32h32v-96h64v-32h-64v-160h32v-32h-64v32h-32v256zM96 193h32v32l96 -1v-32h32v-32h-64v32l-32 1v-160v-1v32h32v32h64v-64h-32v-31h-32v-32h-32v-32h-64v32h64v32h-32v32h-32v160zM192 64v-32h32v32h-32z" />
    <glyph glyph-name="uni02A9" unicode="&#x2a9;" 
d="M64 0h-64v288h32v32h96v-32h32v-64h-32v32h-32v32h-32v-96h64v-32h32v-160h-64v160h-32v-160zM160 160v32h64v-32h32v-224h-32v-32h-96v32h64v224h-32z" />
    <glyph glyph-name="uni02AA" unicode="&#x2aa;" 
d="M0 0v32h32v256h-32v32h96v-288h32v-32h-128zM96 64v-32h32v-32h96v32h32v64h-32v32h-64v32h-32v32h96v-32h32v32h-32v32h-96v-32h-32v-64h32v-32h64v-32h32v-32h-96v32h-32z" />
    <glyph glyph-name="uni02AB" unicode="&#x2ab;" 
d="M128 32v64h32v32h32v32h32v32h-64v-32h-32v64h128v-96h-32v-32h-32v-32h-32v-32h64v32h32v-64h-256v32h32v256h-32v32h96v-288h32z" />
    <glyph glyph-name="uni02AC" unicode="&#x2ac;" 
d="M0 160v-128h32v-32h64v32h32v-32h64v32h32v128h-64v-96h-32v32h-32v-32h-32v96h-64zM0 352v-128h32v-32h64v32h32v-32h64v32h32v128h-64v-96h-32v32h-32v-32h-32v96h-64z" />
    <glyph glyph-name="uni02AD" unicode="&#x2ad;" 
d="M0 32v64h32v64h160v-64h32v-64h-32v64h-160v-64h-32zM0 192v64h32v64h160v-64h32v-64h-32v64h-160v-64h-32z" />
    <glyph glyph-name="uni02AE" unicode="&#x2ae;" 
d="M256 0v320h-64v-160h-32v-32h-32v160h-32v32h-64v-32h-32v-32h32v32h32v-160h32v-32h64v32h32v-128h64z" />
    <glyph glyph-name="uni02AF" unicode="&#x2af;" 
d="M224 -64v384h-64v-192h-32v160h-32v32h-64v-32h-32v-32h32v32h32v-160h32v-32h64v-160h32v-32h64v32h-32z" />
    <glyph glyph-name="uni02B0" unicode="&#x2b0;" 
d="M32 352v-192h64v64h32v32h32v-96h64v96h-32v32h-64v-32h-32v96h-64z" />
    <glyph glyph-name="uni02B1" unicode="&#x2b1;" 
d="M64 384v-32h-32v-192h64v64h32v32h32v-96h64v96h-32v32h-64v-32h-32v96h64v32h-96z" />
    <glyph glyph-name="uni02B2" unicode="&#x2b2;" 
d="M128 192v-32h32v128h-32v32h96v-160h-32v-32h-96v32h-32v32h64zM160 352h64v64h-64v-64z" />
    <glyph glyph-name="uni02B3" unicode="&#x2b3;" 
d="M32 320v-160h64v96h32v32h32v-64h32v64h-32v32h-64v-32h-32v32h-32z" />
    <glyph glyph-name="uni02B4" unicode="&#x2b4;" 
d="M256 128v32h-32v160h-64v-128h-32v-32h-32v64h-32v-64h32v-32h64v32h32v-32h64z" />
    <glyph glyph-name="uni02B5" unicode="&#x2b5;" 
d="M192 96v-32h32v32h-32v224h-64v-128h-32v-32h-32v64h-32v-64h32v-32h64v32h32v-64h32z" />
    <glyph glyph-name="uni02B6" unicode="&#x2b6;" 
d="M32 160h128v32h32v32h-32v64h32v64h-32v-64h-32v-32h-32v96h-64v-192zM96 192v32h64v-32h-64z" />
    <glyph glyph-name="uni02B7" unicode="&#x2b7;" 
d="M0 320v-128h32v-32h64v32h32v-32h64v32h32v128h-64v-96h-32v32h-32v-32h-32v96h-64z" />
    <glyph glyph-name="uni02B8" unicode="&#x2b8;" 
d="M32 320v-64h32v-32h96v-32h-96v-32h128v32h32v128h-64v-64h-64v64h-64z" />
    <glyph glyph-name="uni02B9" unicode="&#x2b9;" 
d="M96 352h32v32h32v32h64v-32h-32v-32h-32v-32h-64v32z" />
    <glyph glyph-name="uni02BA" unicode="&#x2ba;" 
d="M0 320v32h32v32h32v32h64v-32h-32v-32h-32v-32h-64zM96 320v32h32v32h32v32h64v-32h-32v-32h-32v-32h-64z" />
    <glyph glyph-name="uni02BB" unicode="&#x2bb;" 
d="M128 224v64h-32v32h32v32h-32v-32h-32v-96h64z" />
    <glyph glyph-name="uni02BC" unicode="&#x2bc;" 
d="M64 416v-64h32v-32h-32v-32h32v32h32v96h-64z" />
    <glyph glyph-name="uni02BD" unicode="&#x2bd;" 
d="M160 320h-64v-96h32v-32h32v32h-32v32h32v64z" />
    <glyph glyph-name="uni02BE" unicode="&#x2be;" 
d="M224 352v32h-32v32h-64v-32h32v-32h-32v-32h64v32h32z" />
    <glyph glyph-name="uni02BF" unicode="&#x2bf;" 
d="M96 352h32v-32h64v32h-32v32h32v32h-64v-32h-32v-32z" />
    <glyph glyph-name="uni02C0" unicode="&#x2c0;" 
d="M64 352h-64v32h32v32h128v-32h32v-64h-32v-32h-32v-64h-64v64h32v32h32v64h-64v-32z" />
    <glyph glyph-name="uni02C1" unicode="&#x2c1;" 
d="M128 352v32h-64v-64h32v-32h32v-64h-64v64h-32v32h-32v64h32v32h128v-32h32v-32h-64z" />
    <glyph glyph-name="uni02C2" unicode="&#x2c2;" 
d="M32 128h32v32h32v32h32v32h32v32h64v-32h-32v-32h-32v-32h-32v-32h-32v-32h32v-32h32v-32h32v-32h32v-32h-64v32h-32v32h-32v32h-32v32h-32v32z" />
    <glyph glyph-name="uni02C3" unicode="&#x2c3;" 
d="M224 96h-32v-32h-32v-32h-32v-32h-32v-32h-64v32h32v32h32v32h32v32h32v32h-32v32h-32v32h-32v32h-32v32h64v-32h32v-32h32v-32h32v-32h32v-32z" />
    <glyph glyph-name="uni02C4" unicode="&#x2c4;" 
d="M160 320v-32h32v-32h32v-32h32v-32h32v-64h-32v32h-32v32h-32v32h-32v32h-32v-32h-32v-32h-32v-32h-32v-32h-32v64h32v32h32v32h32v32h32v32h32z" />
    <glyph glyph-name="uni02C5" unicode="&#x2c5;" 
d="M128 0v32h-32v32h-32v32h-32v32h-32v64h32v-32h32v-32h32v-32h32v-32h32v32h32v32h32v32h32v32h32v-64h-32v-32h-32v-32h-32v-32h-32v-32h-32z" />
    <glyph glyph-name="circumflex" unicode="&#x2c6;" 
d="M32 352v32h32v32h32v32h32v-32h32v-32h32v-32h-64v32h-32v-32h-64z" />
    <glyph glyph-name="caron" unicode="&#x2c7;" 
d="M96 352v-32h32v32h64v-32h-32v-32h-32v-32h-32v32h-32v32h-32v32h64z" />
    <glyph glyph-name="uni02C8" unicode="&#x2c8;" 
d="M192 416v-96h-32v96h32z" />
    <glyph glyph-name="uni02C9" unicode="&#x2c9;" 
d="M0 352v32h224v-32h-224z" />
    <glyph glyph-name="uni02CA" unicode="&#x2ca;" 
d="M96 384h32v32h32v32h64v-32h-32v-32h-32v-32h-64v32z" />
    <glyph glyph-name="uni02CB" unicode="&#x2cb;" 
d="M160 352h-64v32h-32v32h-32v32h64v-32h32v-32h32v-32z" />
    <glyph glyph-name="uni02CC" unicode="&#x2cc;" 
d="M192 0v-96h-32v96h32z" />
    <glyph glyph-name="uni02CD" unicode="&#x2cd;" 
d="M0 -64v32h224v-32h-224z" />
    <glyph glyph-name="uni02CE" unicode="&#x2ce;" 
d="M160 -96h-64v32h-32v32h-32v32h64v-32h32v-32h32v-32z" />
    <glyph glyph-name="uni02CF" unicode="&#x2cf;" 
d="M96 -64h32v32h32v32h64v-32h-32v-32h-32v-32h-64v32z" />
    <glyph glyph-name="uni02D0" unicode="&#x2d0;" 
d="M96 0v32h32v32h32v-32h32v-32h-96zM192 320v-32h-32v-32h-32v32h-32v32h96z" />
    <glyph glyph-name="uni02D1" unicode="&#x2d1;" 
d="M192 224v-32h-32v-32h-32v32h-32v32h96z" />
    <glyph glyph-name="uni02D2" unicode="&#x2d2;" 
d="M192 128v32h-32v32h-64v-32h32v-32h-32v-32h64v32h32z" />
    <glyph glyph-name="uni02D3" unicode="&#x2d3;" 
d="M96 128h32v-32h64v32h-32v32h32v32h-64v-32h-32v-32z" />
    <glyph glyph-name="uni02D4" unicode="&#x2d4;" 
d="M96 96v32h32v64h32v-64h32v-32h-96z" />
    <glyph glyph-name="uni02D5" unicode="&#x2d5;" 
d="M192 192v-32h-32v-64h-32v64h-32v32h96z" />
    <glyph glyph-name="uni02D6" unicode="&#x2d6;" 
d="M192 160v-32h-32v-32h-32v32h-32v32h32v32h32v-32h32z" />
    <glyph glyph-name="uni02D7" unicode="&#x2d7;" 
d="M192 160v-32h-96v32h96z" />
    <glyph glyph-name="breve" unicode="&#x2d8;" 
d="M0 320v-32h32v-32h128v32h32v32h-64v-32h-64v32h-64z" />
    <glyph glyph-name="dotaccent" unicode="&#x2d9;" 
d="M96 320v-64h64v64h-64z" />
    <glyph glyph-name="ring" unicode="&#x2da;" 
d="M32 288h32v-32h96v32h32v32h-32v32h-96v-32h-32v-32zM96 320h32v-32h-32v32z" />
    <glyph glyph-name="ogonek" unicode="&#x2db;" 
d="M160 0h-64v-32h-32v-32h32v-32h128v32h-96v32h32v32z" />
    <glyph glyph-name="tilde" unicode="&#x2dc;" 
d="M0 256h64v32h32v-32h96v32h32v32h-64v-32h-32v32h-96v-32h-32v-32z" />
    <glyph glyph-name="hungarumlaut" unicode="&#x2dd;" 
d="M32 256v32h32v32h32v32h64v-32h-32v-32h-32v-32h-64zM128 256v32h32v32h32v32h64v-32h-32v-32h-32v-32h-64z" />
    <glyph glyph-name="uni02DE" unicode="&#x2de;" 
d="M128 224h-64v-32h32v-32h32v-32h96v32h-64v32h-32v32z" />
    <glyph glyph-name="uni02DF" unicode="&#x2df;" 
d="M64 384h32v-32h-32v-32h32v32h32v-32h32v32h-32v32h32v32h-32v-32h-32v32h-32v-32z" />
    <glyph glyph-name="uni02E0" unicode="&#x2e0;" 
d="M64 160v32h-32v32h32v64h-32v32h-32v64h64v-64h32v-32h32v32h32v64h64v-64h-32v-32h-32v-64h32v-32h-32v-32h-96zM96 224v-32h32v32h-32z" />
    <glyph glyph-name="uni02E1" unicode="&#x2e1;" 
d="M64 160v32h32v160h-32v32h96v-192h32v-32h-128z" />
    <glyph glyph-name="uni02E2" unicode="&#x2e2;" 
d="M32 192v-32h128v32h32v32h-32v32h-64v32h96v32h-128v-32h-32v-32h32v-32h64v-32h-96z" />
    <glyph glyph-name="uni02E3" unicode="&#x2e3;" 
d="M32 320v-32h32v-32h32v-32h-32v-32h-32v-32h64v32h64v-32h64v32h-32v32h-32v32h32v32h32v32h-64v-32h-64v32h-64z" />
    <glyph glyph-name="uni02E4" unicode="&#x2e4;" 
d="M128 352v32h-64v-64h32v-32h32v-64h-64v64h-32v32h-32v64h32v32h128v-32h32v-32h-64z" />
    <glyph glyph-name="uni02E5" unicode="&#x2e5;" 
d="M128 320v-320h64v352h-160v-32h96z" />
    <glyph glyph-name="uni02E6" unicode="&#x2e6;" 
d="M128 256v-256h64v352h-64v-64h-96v-32h96z" />
    <glyph glyph-name="uni02E7" unicode="&#x2e7;" 
d="M128 160v-160h64v352h-64v-160h-96v-32h96z" />
    <glyph glyph-name="uni02E8" unicode="&#x2e8;" 
d="M128 64v-64h64v352h-64v-256h-96v-32h96z" />
    <glyph glyph-name="uni02E9" unicode="&#x2e9;" 
d="M128 32h-96v-32h160v352h-64v-320z" />
    <glyph glyph-name="uni02EA" unicode="&#x2ea;" 
d="M96 32v192h-64v-224h160v32h-96z" />
    <glyph glyph-name="uni02EB" unicode="&#x2eb;" 
d="M96 96h96v32h-96v96h-64v-224h64v96z" />
    <glyph glyph-name="uni02EC" unicode="&#x2ec;" 
d="M96 -96v-32h32v32h64v-32h-32v-32h-32v-32h-32v32h-32v32h-32v32h64z" />
    <glyph glyph-name="uni02ED" unicode="&#x2ed;" 
d="M32 448v32h224v-32h-224zM32 384v32h224v-32h-224z" />
    <glyph glyph-name="uni02EE" unicode="&#x2ee;" 
d="M128 416v-64h32v-32h-32v-32h32v32h32v96h-64zM32 416v-64h32v-32h-32v-32h32v32h32v96h-64z" />
    <glyph glyph-name="uni02EF" unicode="&#x2ef;" 
d="M160 -96v32h32v64h-32v-32h-32v32h-32v-64h32v-32h32z" />
    <glyph glyph-name="uni02F0" unicode="&#x2f0;" 
d="M128 0v-32h-32v-64h32v32h32v-32h32v64h-32v32h-32z" />
    <glyph glyph-name="uni02F1" unicode="&#x2f1;" 
d="M96 -64h32v-32h64v32h-32v32h32v32h-64v-32h-32v-32z" />
    <glyph glyph-name="uni02F2" unicode="&#x2f2;" 
d="M192 -64v32h-32v32h-64v-32h32v-32h-32v-32h64v32h32z" />
    <glyph glyph-name="uni02F3" unicode="&#x2f3;" 
d="M32 -64h32v-32h96v32h32v32h-32v32h-96v-32h-32v-32zM96 -32h32v-32h-32v32z" />
    <glyph glyph-name="uni02F4" unicode="&#x2f4;" 
d="M96 96v32h-32v32h64v-32h32v-32h-64z" />
    <glyph glyph-name="uni02F5" unicode="&#x2f5;" 
d="M224 96h-64v32h-32v32h64v-32h32v-32zM128 96h-64v32h-32v32h64v-32h32v-32z" />
    <glyph glyph-name="uni02F6" unicode="&#x2f6;" 
d="M32 96v32h32v32h64v-32h-32v-32h-64zM128 96v32h32v32h64v-32h-32v-32h-64z" />
    <glyph glyph-name="uni02F7" unicode="&#x2f7;" 
d="M0 -192h64v32h32v-32h96v32h32v32h-64v-32h-32v32h-96v-32h-32v-32z" />
    <glyph glyph-name="uni02F8" unicode="&#x2f8;" 
d="M96 320v-64h64v64h-64zM96 160v-64h64v64h-64z" />
    <glyph glyph-name="uni02F9" unicode="&#x2f9;" 
d="M0 416h96v-32h-64v-64h-32v96z" />
    <glyph glyph-name="uni02FA" unicode="&#x2fa;" 
d="M256 416v-96h-32v64h-64v32h96z" />
    <glyph glyph-name="uni02FB" unicode="&#x2fb;" 
d="M0 0v96h32v-64h64v-32h-96z" />
    <glyph glyph-name="uni02FC" unicode="&#x2fc;" 
d="M256 0h-96v32h64v64h32v-96z" />
    <glyph glyph-name="uni02FD" unicode="&#x2fd;" 
d="M256 0v-96h-256v96h32v-64h192v64h32z" />
    <glyph glyph-name="uni02FE" unicode="&#x2fe;" 
d="M0 -96v96h32v-64h224v-32h-256z" />
    <glyph glyph-name="uni02FF" unicode="&#x2ff;" 
d="M128 -96v32h-32v-32h32zM224 -32v32h-128v32h-32v-32h-32v-32h32v-32h32v32h128zM128 32v32h-32v-32h32z" />
    <glyph glyph-name="gravecomb" unicode="&#x300;" 
d="M160 256h-64v32h-32v32h-32v32h64v-32h32v-32h32v-32z" />
    <glyph glyph-name="acutecomb" unicode="&#x301;" 
d="M64 288h32v32h32v32h64v-32h-32v-32h-32v-32h-64v32z" />
    <glyph glyph-name="uni0302" unicode="&#x302;" 
d="M32 256v32h32v32h32v32h32v-32h32v-32h32v-32h-64v32h-32v-32h-64z" />
    <glyph glyph-name="tildecomb" unicode="&#x303;" 
d="M0 256h64v32h32v-32h96v32h32v32h-64v-32h-32v32h-96v-32h-32v-32z" />
    <glyph glyph-name="uni0304" unicode="&#x304;" 
d="M0 256v32h224v-32h-224z" />
    <glyph glyph-name="uni0305" unicode="&#x305;" 
d="M256 384h-256v32h256v-32z" />
    <glyph glyph-name="uni0306" unicode="&#x306;" 
d="M0 320v-32h32v-32h128v32h32v32h-64v-32h-64v32h-64z" />
    <glyph glyph-name="uni0307" unicode="&#x307;" 
d="M96 320v-64h64v64h-64z" />
    <glyph glyph-name="uni0308" unicode="&#x308;" 
d="M0 256v32h64v-32h-64zM128 256v32h64v-32h-64z" />
    <glyph glyph-name="hookabovecomb" unicode="&#x309;" 
d="M160 256h-64v64h-32v-32h-32v32h32v32h64v-32h32v-64z" />
    <glyph glyph-name="uni030A" unicode="&#x30a;" 
d="M32 288h32v-32h96v32h32v32h-32v32h-96v-32h-32v-32zM96 320h32v-32h-32v32z" />
    <glyph glyph-name="uni030B" unicode="&#x30b;" 
d="M32 256v32h32v32h32v32h64v-32h-32v-32h-32v-32h-64zM128 256v32h32v32h32v32h64v-32h-32v-32h-32v-32h-64z" />
    <glyph glyph-name="uni030C" unicode="&#x30c;" 
d="M96 352v-32h32v32h64v-32h-32v-32h-32v-32h-32v32h-32v32h-32v32h64z" />
    <glyph glyph-name="uni030D" unicode="&#x30d;" 
d="M192 448v-128h-32v128h32z" />
    <glyph glyph-name="uni030E" unicode="&#x30e;" 
d="M192 448v-128h-32v128h32zM256 448v-128h-32v128h32z" />
    <glyph glyph-name="uni030F" unicode="&#x30f;" 
d="M224 256h-64v32h-32v32h-32v32h64v-32h32v-32h32v-32zM128 256h-64v32h-32v32h-32v32h64v-32h32v-32h32v-32z" />
    <glyph glyph-name="uni0310" unicode="&#x310;" 
d="M0 384v-32h32v-32h160v32h32v32h-64v-32h-96v32h-64zM96 416h32v-32h-32v32z" />
    <glyph glyph-name="uni0311" unicode="&#x311;" 
d="M192 256v32h-32v32h-128v-32h-32v-32h64v32h64v-32h64z" />
    <glyph glyph-name="uni0312" unicode="&#x312;" 
d="M32 320v32h32v-32h-32v-32h32v-32h-64v64h32z" />
    <glyph glyph-name="uni0313" unicode="&#x313;" 
d="M96 416v-64h32v-32h-32v-32h32v32h32v96h-64z" />
    <glyph glyph-name="uni0314" unicode="&#x314;" 
d="M160 416h-64v-96h32v-32h32v32h-32v32h32v64z" />
    <glyph glyph-name="uni0315" unicode="&#x315;" 
d="M224 256v-32h-32v32h32v32h-32v32h64v-64h-32z" />
    <glyph glyph-name="uni0316" unicode="&#x316;" 
d="M192 -96h-64v32h-32v32h-32v32h64v-32h32v-32h32v-32z" />
    <glyph glyph-name="uni0317" unicode="&#x317;" 
d="M64 -64h32v32h32v32h64v-32h-32v-32h-32v-32h-64v32z" />
    <glyph glyph-name="uni0318" unicode="&#x318;" 
d="M224 -96h-32v32h-96v32h96v32h32v-96z" />
    <glyph glyph-name="uni0319" unicode="&#x319;" 
d="M96 -96v96h32v-32h96v-32h-96v-32h-32z" />
    <glyph glyph-name="uni031A" unicode="&#x31a;" 
d="M96 384v32h160v-128h-32v96h-128z" />
    <glyph glyph-name="uni031B" unicode="&#x31b;" 
d="M224 288v-32h-32v32h32v32h-32v32h64v-64h-32z" />
    <glyph glyph-name="uni031C" unicode="&#x31c;" 
d="M96 -64h32v-32h64v32h-32v32h32v32h-64v-32h-32v-32z" />
    <glyph glyph-name="uni031D" unicode="&#x31d;" 
d="M32 -96v32h64v64h32v-64h64v-32h-160z" />
    <glyph glyph-name="uni031E" unicode="&#x31e;" 
d="M32 0h160v-32h-64v-64h-32v64h-64v32z" />
    <glyph glyph-name="uni031F" unicode="&#x31f;" 
d="M192 -32v-32h-64v-32h-32v32h-64v32h64v32h32v-32h64z" />
    <glyph glyph-name="uni0320" unicode="&#x320;" 
d="M160 -32v-32h-96v32h96z" />
    <glyph glyph-name="uni0321" unicode="&#x321;" 
d="M224 0v-64h-32v-32h-64v32h-32v32h32v-32h32v64h64z" />
    <glyph glyph-name="uni0322" unicode="&#x322;" 
d="M96 0h64v-64h32v32h32v-32h-32v-32h-64v32h-32v64z" />
    <glyph glyph-name="dotbelowcomb" unicode="&#x323;" 
d="M96 -32v-64h64v64h-64z" />
    <glyph glyph-name="uni0324" unicode="&#x324;" 
d="M32 -64v32h64v-32h-64zM128 -64v32h64v-32h-64z" />
    <glyph glyph-name="uni0325" unicode="&#x325;" 
d="M32 -64h32v-32h96v32h32v32h-32v32h-96v-32h-32v-32zM96 -32h32v-32h-32v32z" />
    <glyph glyph-name="uni0326" unicode="&#x326;" 
d="M128 -64v-32h-32v32h32v32h-32v32h64v-64h-32z" />
    <glyph glyph-name="uni0327" unicode="&#x327;" 
d="M96 0v-32h32v-32h-96v-32h128v32h32v32h-32v32h-64z" />
    <glyph glyph-name="uni0328" unicode="&#x328;" 
d="M160 0h-64v-32h-32v-32h32v-32h128v32h-96v32h32v32z" />
    <glyph glyph-name="uni0329" unicode="&#x329;" 
d="M192 0v-96h-32v96h32z" />
    <glyph glyph-name="uni032A" unicode="&#x32a;" 
d="M224 -96h-32v32h-128v-32h-32v64h192v-64z" />
    <glyph glyph-name="uni032B" unicode="&#x32b;" 
d="M32 0v-32h32v-32h32v32h32v-32h32v32h32v32h-32v-32h-32v32h-32v-32h-32v32h-32z" />
    <glyph glyph-name="uni032C" unicode="&#x32c;" 
d="M96 0v-32h32v32h64v-32h-32v-32h-32v-32h-32v32h-32v32h-32v32h64z" />
    <glyph glyph-name="uni032D" unicode="&#x32d;" 
d="M32 -96v32h32v32h96v-32h32v-32h-64v32h-32v-32h-64z" />
    <glyph glyph-name="uni032E" unicode="&#x32e;" 
d="M0 -32v-32h32v-32h160v32h32v32h-64v-32h-96v32h-64z" />
    <glyph glyph-name="uni032F" unicode="&#x32f;" 
d="M192 -96v32h-32v32h-128v-32h-32v-32h64v32h64v-32h64z" />
    <glyph glyph-name="uni0330" unicode="&#x330;" 
d="M0 -96h64v32h32v-32h96v32h32v32h-64v-32h-32v32h-96v-32h-32v-32z" />
    <glyph glyph-name="uni0331" unicode="&#x331;" 
d="M0 -64v32h224v-32h-224z" />
    <glyph glyph-name="uni0332" unicode="&#x332;" 
d="M256 -96h-256v32h256v-32z" />
    <glyph glyph-name="uni0333" unicode="&#x333;" 
d="M256 -32h-256v32h256v-32zM256 -96h-256v32h256v-32z" />
    <glyph glyph-name="uni0334" unicode="&#x334;" 
d="M0 0h64v32h32v-32h96v32h32v32h-64v-32h-32v32h-96v-32h-32v-32z" />
    <glyph glyph-name="uni0335" unicode="&#x335;" 
d="M32 160h192v-32h-192v32z" />
    <glyph glyph-name="uni0336" unicode="&#x336;" 
d="M32 160v-32h160v32h-160z" />
    <glyph glyph-name="uni0337" unicode="&#x337;" 
d="M0 0v64h32v32h32v32h32v32h32v32h32v32h32v32h32v-64h-32v-32h-32v-32h-32v-32h-32v-32h-32v-32h-32v-32h-32z" />
    <glyph glyph-name="uni0338" unicode="&#x338;" 
d="M0 0v64h32v32h32v32h32v32h32v32h32v32h32v32h32v32h32v-64h-32v-32h-32v-32h-32v-32h-32v-32h-32v-32h-32v-32h-32v-32h-32z" />
    <glyph glyph-name="uni0339" unicode="&#x339;" 
d="M224 -64v32h-32v32h-64v-32h32v-32h-32v-32h64v32h32z" />
    <glyph glyph-name="uni033A" unicode="&#x33a;" 
d="M224 -32v-64h-192v64h32v-32h128v32h32z" />
    <glyph glyph-name="uni033B" unicode="&#x33b;" 
d="M64 0h96v-96h-96v96zM96 -64h32v32h-32v-32z" />
    <glyph glyph-name="uni033C" unicode="&#x33c;" 
d="M32 -64h32v32h32v-32h32v32h32v-32h32v32h-32v32h-32v-32h-32v32h-32v-32h-32v-32z" />
    <glyph glyph-name="uni033D" unicode="&#x33d;" 
d="M32 416v-32h32v-32h32v-32h-32v-32h-32v-32h32v32h32v32h32v-32h32v-32h32v32h-32v32h-32v32h32v32h32v32h-32v-32h-32v-32h-32v32h-32v32h-32z" />
    <glyph glyph-name="uni033E" unicode="&#x33e;" 
d="M64 224h64v96h-32v32h32v32h-64v-96h32v-32h-32v-32z" />
    <glyph glyph-name="uni033F" unicode="&#x33f;" 
d="M256 384h-256v32h256v-32zM256 320h-256v32h256v-32z" />
    <glyph glyph-name="uni0340" unicode="&#x340;" 
d="M192 320h-64v32h-32v32h-32v32h64v-32h32v-32h32v-32z" />
    <glyph glyph-name="uni0341" unicode="&#x341;" 
d="M64 352h32v32h32v32h64v-32h-32v-32h-32v-32h-64v32z" />
    <glyph glyph-name="uni0342" unicode="&#x342;" 
d="M0 256h64v32h32v-32h96v32h32v32h-64v-32h-32v32h-96v-32h-32v-32z" />
    <glyph glyph-name="uni0343" unicode="&#x343;" 
d="M96 416v-64h32v-32h-32v-32h32v32h32v96h-64z" />
    <glyph glyph-name="uni0344" unicode="&#x344;" 
d="M160 448v-32h-32v-32h-32v32h32v32h32zM0 352h64v-32h-64v32zM128 352h64v-32h-64v32z" />
    <glyph glyph-name="uni0345" unicode="&#x345;" 
d="M96 0h64v-64h32v32h32v-32h-32v-32h-64v32h-32v64z" />
    <glyph glyph-name="uni0346" unicode="&#x346;" 
d="M224 352h-32v32h-128v-32h-32v64h192v-64z" />
    <glyph glyph-name="uni0347" unicode="&#x347;" 
d="M0 32v-32h224v32h-224zM0 -32v-32h224v32h-224z" />
    <glyph glyph-name="uni0348" unicode="&#x348;" 
d="M192 -64v-128h-32v128h32zM256 -64v-128h-32v128h32z" />
    <glyph glyph-name="uni0349" unicode="&#x349;" 
d="M96 -32v32h160v-128h-32v96h-128z" />
    <glyph glyph-name="uni034A" unicode="&#x34a;" 
d="M0 288h64v32h32v-32h-32v-32h32v32h96v32h32v32h-64v-32h-32v32h32v32h-32v-32h-96v-32h-32v-32z" />
    <glyph glyph-name="uni034B" unicode="&#x34b;" 
d="M0 288h64v32h32v-32h96v32h32v32h-64v-32h-32v32h-96v-32h-32v-32zM96 416h32v-32h-32v32zM96 256h32v-32h-32v32z" />
    <glyph glyph-name="uni034C" unicode="&#x34c;" 
d="M0 256h64v32h32v-32h96v32h32v32h-64v-32h-32v32h-96v-32h-32v-32zM0 352h64v32h32v-32h96v32h32v32h-64v-32h-32v32h-96v-32h-32v-32z" />
    <glyph glyph-name="uni034D" unicode="&#x34d;" 
d="M0 0h32v32h32v32h32v-32h-32v-32h128v32h-32v32h32v-32h32v-32h32v-32h-32v-32h-32v-32h-32v32h32v32h-128v-32h32v-32h-32v32h-32v32h-32v32z" />
    <glyph glyph-name="uni034E" unicode="&#x34e;" 
d="M96 0h32v-32h32v-32h32v-32h-32v32h-32v-96h-32v96h-32v-32h-32v32h32v32h32v32z" />
    <glyph glyph-name="uni034F" unicode="&#x34f;" 
 />
    <glyph glyph-name="uni0350" unicode="&#x350;" 
d="M224 320h-32v-32h-32v-32h-64v32h32v32h32v32h-32v32h-32v32h64v-32h32v-32h32v-32z" />
    <glyph glyph-name="uni0351" unicode="&#x351;" 
d="M64 352h32v-32h64v32h-32v32h32v32h-64v-32h-32v-32z" />
    <glyph glyph-name="uni0352" unicode="&#x352;" 
d="M0 352h64v32h96v-32h64v32h-32v32h-160v-32h-32v-32zM96 320v32h32v-32h-32z" />
    <glyph glyph-name="uni0353" unicode="&#x353;" 
d="M32 0v-32h32v-32h32v-32h-32v-32h-32v-32h32v32h32v32h32v-32h32v-32h32v32h-32v32h-32v32h32v32h32v32h-32v-32h-32v-32h-32v32h-32v32h-32z" />
    <glyph glyph-name="uni0354" unicode="&#x354;" 
d="M32 -64v32h32v32h32v32h64v-32h-32v-32h-32v-32h32v-32h32v-32h-64v32h-32v32h-32z" />
    <glyph glyph-name="uni0355" unicode="&#x355;" 
d="M224 -64h-32v-32h-32v-32h-64v32h32v32h32v32h-32v32h-32v32h64v-32h32v-32h32v-32z" />
    <glyph glyph-name="uni0356" unicode="&#x356;" 
d="M128 -64h-32v-32h-32v-32h-64v32h32v32h32v32h-32v32h-32v32h64v-32h32v-32h32v-32zM160 -32v-32h-32v-32h-32v-32h64v32h32v-32h64v32h-32v32h-32v32h-32z" />
    <glyph glyph-name="uni0357" unicode="&#x357;" 
d="M160 288v32h-32v32h-96v-32h64v-32h-32v-32h64v32h32z" />
    <glyph glyph-name="uni0358" unicode="&#x358;" 
d="M96 320v-64h64v64h-64z" />
    <glyph glyph-name="uni0359" unicode="&#x359;" 
d="M0 -64h64v32h-32v32h64v-32h64v32h64v-32h-32v-32h64v-32h-64v-32h32v-32h-64v32h-64v-32h-64v32h32v32h-64v32z" />
    <glyph glyph-name="uni035A" unicode="&#x35a;" 
d="M0 -32v-31h32v-32h191v32h32v31h-32v32h-191v-32h-32zM64 -32h31v-31h-31v31zM159 -32h32v-31h-32v31z" />
    <glyph glyph-name="uni035B" unicode="&#x35b;" 
d="M64 416h32v32h32v32h32v-32h-32v-32h96v-32h-32v-32h-32v-32h-32v32h32v32h-96v32z" />
    <glyph glyph-name="uni035C" unicode="&#x35c;" 
d="M64 -96v32h-32v32h-32v64h32v-32h32v-32h128v32h32v32h32v-64h-32v-32h-32v-32h-128z" />
    <glyph glyph-name="uni035D" unicode="&#x35d;" 
d="M64 288v32h-32v32h-32v64h32v-32h32v-32h128v32h32v32h32v-64h-32v-32h-32v-32h-128z" />
    <glyph glyph-name="uni035E" unicode="&#x35e;" 
d="M0 384h256v-32h-256v32z" />
    <glyph glyph-name="uni035F" unicode="&#x35f;" 
d="M0 -32h256v-32h-256v32z" />
    <glyph glyph-name="uni0360" unicode="&#x360;" 
d="M0 288h64v32h64v-32h128v32h32v32h-64v-32h-64v32h-128v-32h-32v-32z" />
    <glyph glyph-name="uni0361" unicode="&#x361;" 
d="M192 416v-32h32v-32h32v-64h-32v32h-32v32h-128v-32h-32v-32h-32v64h32v32h32v32h128z" />
    <glyph glyph-name="uni0362" unicode="&#x362;" 
d="M160 -96h32v32h-32v-32zM0 -32h192v-32h32v32h32v32h-32v32h-32v-32h-192v-32zM160 32h32v32h-32v-32z" />
    <glyph glyph-name="uni0363" unicode="&#x363;" 
d="M0 288h32v-32h64v32h32v-32h64v32h-32v96h-32v32h-96v-32h64v-32h-64v-32h-32v-32zM96 320v-32h-32v32h32z" />
    <glyph glyph-name="uni0364" unicode="&#x364;" 
d="M0 288h32v-32h128v32h-96v32h128v64h-32v32h-128v-32h-32v-96zM64 384h64v-32h-64v32z" />
    <glyph glyph-name="uni0365" unicode="&#x365;" 
d="M32 256v32h32v32h-32v32h96v-64h32v-32h-128zM64 384h64v32h-64v-32z" />
    <glyph glyph-name="uni0366" unicode="&#x366;" 
d="M0 288h32v-32h128v32h32v96h-32v32h-128v-32h-32v-96zM128 384v-96h-64v96h64z" />
    <glyph glyph-name="uni0367" unicode="&#x367;" 
d="M0 416v-128h32v-32h64v32h32v-32h64v32h-32v128h-64v-128h-32v128h-64z" />
    <glyph glyph-name="uni0368" unicode="&#x368;" 
d="M0 384h32v32h128v-32h32v-32h-64v32h-64v-96h64v32h64v-32h-32v-32h-128v32h-32v96z" />
    <glyph glyph-name="uni0369" unicode="&#x369;" 
d="M96 416v-32h-64v-32h-32v-64h32v-32h64v32h32v-32h64v32h-32v128h-64zM96 352v-64h-32v64h32z" />
    <glyph glyph-name="uni036A" unicode="&#x36a;" 
d="M0 416v-32h32v-96h-32v-32h96v64h32v-64h64v64h-32v32h-64v64h-96z" />
    <glyph glyph-name="uni036B" unicode="&#x36b;" 
d="M0 256v160h64v-32h32v32h64v-160h-32v96h-32v-64h-32v64h-32v-96h-32z" />
    <glyph glyph-name="uni036C" unicode="&#x36c;" 
d="M0 416v-160h64v96h32v32h32v-64h32v64h-32v32h-64v-32h-32v32h-32z" />
    <glyph glyph-name="uni036D" unicode="&#x36d;" 
d="M32 384v32h64v-32h32v-32h-32v-64h64v-32h-96v32h-32v64h-32v32h32z" />
    <glyph glyph-name="uni036E" unicode="&#x36e;" 
d="M0 416v-96h32v-32h32v-32h32v32h32v32h32v96h-64v-96h-32v96h-64z" />
    <glyph glyph-name="uni036F" unicode="&#x36f;" 
d="M0 416v-32h32v-32h32v-32h-32v-32h-32v-32h64v32h64v-32h64v32h-32v32h-32v32h32v32h32v32h-64v-32h-64v32h-64z" />
    <glyph glyph-name="uni0370" unicode="&#x370;" 
d="M0 320h64v-128h96v32h32v-96h-32v32h-96v-160h-64v320z" />
    <glyph glyph-name="uni0371" unicode="&#x371;" 
d="M64 224h-32v32h64v-32h32v-96h64v32h32v-96h-32v32h-64v-96h-64v224z" />
    <glyph glyph-name="uni0372" unicode="&#x372;" 
d="M32 320v-96h-32v-32h64v64h32v-224h-32v-32h128v32h-32v224h32v-64h64v32h-32v96h-192z" />
    <glyph glyph-name="uni0373" unicode="&#x373;" 
d="M32 320v-64h64v-224h32v-32h64v32h-32v224h32v-32h32v96h-192z" />
    <glyph glyph-name="uni0374" unicode="&#x374;" 
d="M192 320v64h64v-32h-32v-32h-32z" />
    <glyph glyph-name="uni0375" unicode="&#x375;" 
d="M64 0v-64h-64v32h32v32h32z" />
    <glyph glyph-name="uni0376" unicode="&#x376;" 
d="M0 320v-320h64v128h32v32h32v32h32v-192h64v320h-64v-64h-32v-32h-32v-32h-32v128h-64z" />
    <glyph glyph-name="uni0377" unicode="&#x377;" 
d="M0 224v-224h64v64h32v32h32v32h32v-128h32v-32h64v32h-32v224h-64v-32h-32v-32h-32v-32h-32v96h-64z" />
    <glyph glyph-name="uni037A" unicode="&#x37a;" 
d="M96 0h64v-64h64v-32h-96v32h-32v64z" />
    <glyph glyph-name="uni037B" unicode="&#x37b;" 
d="M224 192v-160h-32v-32h-160v32h-32v32h64v-32h96v160h-96v-32h-64v32h32v32h160v-32h32z" />
    <glyph glyph-name="uni037C" unicode="&#x37c;" 
d="M0 192h32v32h160v-32h32v-32h-64v32h-96v-160h160v-32h-192v32h-32v160zM96 128h64v-64h-64v64z" />
    <glyph glyph-name="uni037D" unicode="&#x37d;" 
d="M224 192v-160h-32v-32h-192v32h160v160h-96v-32h-64v32h32v32h160v-32h32zM128 128v-64h-64v64h64z" />
    <glyph glyph-name="uni037E" unicode="&#x37e;" 
d="M96 128v-96h-32v-32h64v32h32v96h-64zM96 256v-64h64v64h-64z" />
    <glyph glyph-name="uni037F" unicode="&#x37f;" 
d="M96 320v-32h32v-256h-64v96h-64v-96h32v-32h128v32h32v256h32v32h-128z" />
    <glyph glyph-name="tonos" unicode="&#x384;" 
d="M96 256v32h32v32h32v-32h-32v-32h-32z" />
    <glyph glyph-name="dieresistonos" unicode="&#x385;" 
d="M160 416v-32h-32v-32h-32v32h32v32h32zM0 320h64v-32h-64v32zM128 320h64v-32h-64v32z" />
    <glyph glyph-name="Alphatonos" unicode="&#x386;" 
d="M224 0h-64v128h-96v-128h-64v224h32v32h32v32h32v32h32v-32h32v-32h32v-32h32v-224zM160 160v64h-32v32h-32v-32h-32v-64h96zM0 320v32h32v32h32v-32h-32v-32h-32z" />
    <glyph glyph-name="anoteleia" unicode="&#x387;" 
d="M96 320h64v-64h-64v64z" />
    <glyph glyph-name="Epsilontonos" unicode="&#x388;" 
d="M32 288v-288h192v32h-128v96h64v32h-64v96h128v32h-192zM0 320v32h32v32h32v-32h-32v-32h-32z" />
    <glyph glyph-name="Etatonos" unicode="&#x389;" 
d="M32 288h64v-128h64v128h64v-288h-64v128h-64v-128h-64v288zM0 320v32h32v32h32v-32h-32v-32h-32z" />
    <glyph glyph-name="Iotatonos" unicode="&#x38a;" 
d="M64 320h64v-288h64v-32h-96v32h-32v288zM0 320v32h32v32h32v-32h-32v-32h-32z" />
    <glyph glyph-name="Omicrontonos" unicode="&#x38c;" 
d="M0 288h32v32h160v-32h32v-256h-32v-32h-160v32h-32v256zM64 32h96v256h-96v-256zM0 320v32h32v32h32v-32h-32v-32h-32z" />
    <glyph glyph-name="Upsilontonos" unicode="&#x38e;" 
d="M32 288v-64h32v-64h32v-128h-32v-32h128v32h-32v128h32v64h32v64h32v32h-64l1 -32h-33v-64h-64v64h-32v32h-63l-1 -32h32zM0 352v32h32v32h32v-32h-32v-32h-32z" />
    <glyph glyph-name="Omegatonos" unicode="&#x38f;" 
d="M0 0v32h64v32h-32v32h-32v160h32v32h32v32h96v-32h32v-32h32v-160h-32v-32h-32v-32h64v-32h-96v96h32v160h-32v32h-32v-32h-32v-160h32v-96h-96zM0 320v32h32v32h32v-32h-32v-32h-32z" />
    <glyph glyph-name="iotadieresistonos" unicode="&#x390;" 
d="M64 224v-192h32v-32h96v32h-64v192h-64zM160 384v-32h-32v-32h-32v32h32v32h32zM0 288h64v-32h-64v32zM128 288h64v-32h-64v32z" />
    <glyph glyph-name="Alpha" unicode="&#x391;" 
d="M224 0h-64v128h-96v-128h-64v224h32v32h32v32h32v32h32v-32h32v-32h32v-32h32v-224zM160 160v64h-32v32h-32v-32h-32v-64h96z" />
    <glyph glyph-name="Beta" unicode="&#x392;" 
d="M0 320v-32h32v-256h-32v-32h192v32h32v128h-32v32h32v96h-32v32h-192zM160 288v-96h-64v96h64zM160 160v-128h-64v128h64z" />
    <glyph glyph-name="Gamma" unicode="&#x393;" 
d="M0 0h128v32h-32v256h96v-32h32v64h-224v-32h32v-256h-32v-32z" />
    <glyph glyph-name="uni0394" unicode="&#x394;" 
d="M0 0v128h32v64h32v64h32v64h32v-64h32v-64h32v-64h32v-128h-224zM64 32h96v96h-32v64h-32v-64h-32v-96z" />
    <glyph glyph-name="Epsilon" unicode="&#x395;" 
d="M0 320v-32h32v-256h-32v-32h224v96h-32v-32h-32v-32h-64v128h32v-32h32v96h-32v-32h-32v96h64v-32h32v-32h32v96h-224z" />
    <glyph glyph-name="Zeta" unicode="&#x396;" 
d="M0 224v96h224v-96h-32v-32h-32v-32h-32v-32h-32v-32h-32v-64h96v32h32v32h32v-96h-224v96h32v32h32v32h32v32h32v32h32v64h-96v-32h-32v-32h-32z" />
    <glyph glyph-name="Eta" unicode="&#x397;" 
d="M0 320h64v-128h96v128h64v-320h-64v160h-96v-160h-64v320z" />
    <glyph glyph-name="Theta" unicode="&#x398;" 
d="M0 288h32v32h160v-32h32v-256h-32v-32h-160v32h-32v256zM64 192h96v96h-96v-96zM64 32h96v128h-96v-128z" />
    <glyph glyph-name="Iota" unicode="&#x399;" 
d="M64 320h64v-288h64v-32h-96v32h-32v288z" />
    <glyph glyph-name="Kappa" unicode="&#x39a;" 
d="M0 320v-32h32v-256h-32v-32h96v128h32v-32h32v-96h64v96h-32v32h-32v64h32v32h32v96h-64v-96h-32v-32h-32v128h-96z" />
    <glyph glyph-name="Lambda" unicode="&#x39b;" 
d="M0 0v128h32v64h32v64h32v64h32v-64h32v-64h32v-64h32v-128h-64v128h-32v64h-32v-64h-32v-128h-64z" />
    <glyph glyph-name="Mu" unicode="&#x39c;" 
d="M0 320v-320h64v192h32v-32h32v32h32v-192h64v320h-64v-32h-32v-32h-32v32h-32v32h-64z" />
    <glyph glyph-name="Nu" unicode="&#x39d;" 
d="M64 320v-32h32v-32h32v-32h32v96h64v-320h-64v128h-32v32h-32v32h-32v-192h-64v320h64z" />
    <glyph glyph-name="Xi" unicode="&#x39e;" 
d="M0 224v96h224v-96h-32v32h-160v-32h-32zM32 96v-32h160v32h32v-96h-224v96h32zM32 192v-64h160v64h-160z" />
    <glyph glyph-name="Omicron" unicode="&#x39f;" 
d="M0 288h32v32h160v-32h32v-256h-32v-32h-160v32h-32v256zM64 32h96v256h-96v-256z" />
    <glyph glyph-name="Pi" unicode="&#x3a0;" 
d="M0 0v320h224v-320h-64v288h-96v-288h-64z" />
    <glyph glyph-name="Rho" unicode="&#x3a1;" 
d="M0 320v-32h32v-256h-32v-32h128v32h-32v128h96v32h32v96h-32v32h-192zM96 288h64v-96h-64v96z" />
    <glyph glyph-name="Sigma" unicode="&#x3a3;" 
d="M0 320v-64h32v-32h32v-32h32v-64h-32v-32h-32v-32h-32v-64h224v96h-32v-32h-32v-32h-96v32h32v32h32v32h32v64h-32v32h-32v32h-32v32h96v-32h32v-32h32v96h-224z" />
    <glyph glyph-name="Tau" unicode="&#x3a4;" 
d="M32 320v-96h32v32h32v-224h-32v-32h128v32h-32v224h32v-32h32v96h-192z" />
    <glyph glyph-name="Upsilon" unicode="&#x3a5;" 
d="M32 288v-64h32v-64h32v-128h-32v-32h128v32h-32v128h32v64h32v64h32v32h-64l1 -32h-33v-64h-64v64h-32v32h-63l-1 -32h32z" />
    <glyph glyph-name="Phi" unicode="&#x3a6;" 
d="M0 224h32v32h64v32h-32v32h96v-32h-32v-32h64v-32h32v-128h-32v-32h-64v-32h32v-32h-96v32h32v32h-64v32h-32v128zM64 96h32v128h-32v-128zM128 96h32v128h-32v-128z" />
    <glyph glyph-name="Chi" unicode="&#x3a7;" 
d="M0 320v-64h32v-64h32v-64h-32v-64h-32v-64h64v64h32v32h32v-32h32v-64h64v64h-32v64h-32v64h32v64h32v64h-64v-64h-32v-32h-32v32h-32v64h-64z" />
    <glyph glyph-name="Psi" unicode="&#x3a8;" 
d="M96 32h-32v-32h96v32h-32v64h64v32h32v192h-64v-192h-32v192h-32v-192h-32v192h-64v-192h32v-32h64v-64z" />
    <glyph glyph-name="uni03A9" unicode="&#x3a9;" 
d="M0 0v32h64v32h-32v32h-32v160h32v32h32v32h96v-32h32v-32h32v-160h-32v-32h-32v-32h64v-32h-96v96h32v160h-32v32h-32v-32h-32v-160h32v-96h-96z" />
    <glyph glyph-name="Iotadieresis" unicode="&#x3aa;" 
d="M64 320v-32h32v-256h-32v-32h128v32h-32v256h32v32h-128zM32 352v32h64v-32h-64zM160 352v32h64v-32h-64z" />
    <glyph glyph-name="Upsilondieresis" unicode="&#x3ab;" 
d="M32 320v-128h32v-32h32v-128h-32v-32h128v32h-32v128h32v32h32v128h-64v-128h-64v128h-64zM32 352v32h64v-32h-64zM160 352v32h64v-32h-64z" />
    <glyph glyph-name="alphatonos" unicode="&#x3ac;" 
d="M0 192h32v32h96v-32h32v32h64v-32h-32v-32h-32v-96h32v-32h32v-32h-64v32h-32v-32h-96v32h-32v160zM64 32h32v160h-32v-160zM96 256v32h32v32h32v-32h-32v-32h-32z" />
    <glyph glyph-name="epsilontonos" unicode="&#x3ad;" 
d="M224 160h-64v32h-96v-64h96v-32h-96v-64h96v32h64v-32h-32v-32h-160v32h-32v64h32v32h-32v64h32v32h160v-32h32v-32zM96 256v32h32v32h32v-32h-32v-32h-32z" />
    <glyph glyph-name="etatonos" unicode="&#x3ae;" 
d="M32 32v160h-32v32h64v-32h32v32h96v-32h32v-256h-64v256h-64v-160h-64zM96 256v32h32v32h32v-32h-32v-32h-32z" />
    <glyph glyph-name="iotatonos" unicode="&#x3af;" 
d="M64 224v-192h32v-32h96v32h-64v192h-64zM96 256v32h32v32h32v-32h-32v-32h-32z" />
    <glyph glyph-name="upsilondieresistonos" unicode="&#x3b0;" 
d="M0 192h32v-160h32v-32h128v32h32v192h-64v-192h-64v192h-96v-32zM192 384v-32h-32v-32h-32v32h32v32h32zM32 288h64v-32h-64v32zM160 288h64v-32h-64v32z" />
    <glyph glyph-name="alpha" unicode="&#x3b1;" 
d="M0 192h32v32h96v-32h32v32h64v-32h-32v-32h-32v-96h32v-32h32v-32h-64v32h-32v-32h-96v32h-32v160zM64 32h32v160h-32v-160z" />
    <glyph glyph-name="beta" unicode="&#x3b2;" 
d="M0 -64h32v32h32v32h128v32h32v96h-32v32h-32v32h32v96h-32v32h-128v-32h-32v-352zM64 288h64v-96h-32v-32h-32v128zM64 128h96v-96h-96v96z" />
    <glyph glyph-name="gamma" unicode="&#x3b3;" 
d="M0 224v-32h32v-32h32v-64h-32v-32h-32v-96h32v-32h160v32h32v96h-32v32h-32v64h32v32h32v32h-64v-32h-32v-32h-32v32h-32v32h-64zM64 64h32v32h32v-32h32v-96h-96v96z" />
    <glyph glyph-name="delta" unicode="&#x3b4;" 
d="M32 192v-32h-32v-128h32v-32h160v32h32v128h-32v32h-32v32h-32v32h-32v32h64v-32h64v32h-32v32h-128v-32h-32v-32h32v-32h32v-32h-64zM64 160h96v-128h-96v128z" />
    <glyph glyph-name="epsilon" unicode="&#x3b5;" 
d="M224 160h-64v32h-96v-64h96v-32h-96v-64h96v32h64v-32h-32v-32h-160v32h-32v64h32v32h-32v64h32v32h160v-32h32v-32z" />
    <glyph glyph-name="zeta" unicode="&#x3b6;" 
d="M0 320h224v-32h-32v-32h-32v-32h-32v-32h-32v-32h-32v-128h128v-32h32v-32h-32v-32h-96v32h64v32h-128v32h-32v128h32v32h32v32h32v32h32v32h-128v32z" />
    <glyph glyph-name="eta" unicode="&#x3b7;" 
d="M32 32v160h-32v32h64v-32h32v32h96v-32h32v-256h-64v256h-64v-160h-64z" />
    <glyph glyph-name="theta" unicode="&#x3b8;" 
d="M0 64v160h32v32h32v32h96v-32h32v-32h32v-160h-32v-32h-32v-32h-96v32h-32v32h-32zM64 64h32v-32h32v32h32v64h-96v-64zM64 160h96v64h-32v32h-32v-32h-32v-64z" />
    <glyph glyph-name="iota" unicode="&#x3b9;" 
d="M64 224v-192h32v-32h96v32h-64v192h-64z" />
    <glyph glyph-name="kappa" unicode="&#x3ba;" 
d="M0 224v-224h64v96h64v-32h32v-64h64v64h-32v32h-32v64h32v32h32v32h-64v-32h-32v-32h-64v64h-64z" />
    <glyph glyph-name="lambda" unicode="&#x3bb;" 
d="M0 0v96h32v32h32v32h64v128h-64v-32h-64v32h32v32h128v-32h32v-224h32v-64h-64v64h-32v64h-32v-32h-32v-96h-64z" />
    <glyph glyph-name="uni03BC" unicode="&#x3bc;" 
d="M64 -96h-64v320h64v-192h64v192h64v-192h32v-32h-64v32h-32v-32h-64v-96z" />
    <glyph glyph-name="nu" unicode="&#x3bd;" 
d="M0 224v-32h32v-160h32v-32h64v32h32v32h32v32h32v128h-64v-128h-32v-32h-32v160h-96z" />
    </font>
</defs>
</svg>
