<svg width="38" height="35" viewBox="0 0 38 35" fill="none" xmlns="http://www.w3.org/2000/svg">
<path d="M15.5712 26.25H19.2573V24.5H21.1003V22.75H22.9433V21H24.7863V19.25H26.6294V15.75H24.7863V14H22.9433V12.25H21.1003V10.5H19.2573V8.75H15.5712V12.25H17.4142V14H19.2573V15.75H21.1003V19.25H19.2573V21H17.4142V22.75H15.5712V26.25ZM11.8852 0V1.75H8.19913V3.5H6.3561V5.25H4.51308V7H2.67006V10.5H0.827034V24.5H2.67006V28H4.51308V29.75H6.3561V31.5H8.19913V33.25H11.8852V35H26.6294V33.25H30.3154V31.5H32.1584V29.75H34.0015V28H35.8445V24.5H37.6875V10.5H35.8445V7H34.0015V5.25H32.1584V3.5H30.3154V1.75H26.6294V0H11.8852ZM13.7282 3.5H24.7863V5.25H28.4724V7H30.3154V8.75H32.1584V12.25H34.0015V22.75H32.1584V26.25H30.3154V28H28.4724V29.75H24.7863V31.5H13.7282V29.75H10.0422V28H8.19913V26.25H6.3561V22.75H4.51308V12.25H6.3561V8.75H8.19913V7H10.0422V5.25H13.7282V3.5Z" fill="white"/>
</svg>
