<svg width="16" height="15" viewBox="0 0 16 15" fill="none" xmlns="http://www.w3.org/2000/svg">
<path d="M15.2666 4.5V10.5H14.5166V12H13.7666V12.75H13.0166V13.5H12.2666V14.25H10.7666V15H4.7666V14.25H3.2666V13.5H2.5166V12.75H1.7666V12H1.0166V10.5H0.266602V4.5H1.0166V3H1.7666V2.25H2.5166V1.5H3.2666V0.75H4.7666V0H10.7666V0.75H12.2666V1.5H13.0166V2.25H13.7666V3H14.5166V4.5H15.2666ZM12.2666 3.75V3H11.5166V2.25H10.0166V1.5H5.5166V2.25H4.0166V3H3.2666V3.75H2.5166V5.25H1.7666V9.75H2.5166V11.25H3.2666V12H4.0166V12.75H5.5166V13.5H10.0166V12.75H11.5166V12H12.2666V11.25H13.0166V9.75H13.7666V5.25H13.0166V3.75H12.2666Z" fill="white"/>
</svg>
